<?xml version="1.0" encoding="UTF-8" standalone="no"?>
<svg width="112px" height="108px" viewBox="0 0 112 108" version="1.1" xmlns="http://www.w3.org/2000/svg" xmlns:xlink="http://www.w3.org/1999/xlink">
    <!-- Generator: Sketch 43 (38999) - http://www.bohemiancoding.com/sketch -->
    <title>calendar</title>
    <desc>Created with Sketch.</desc>
    <defs></defs>
    <g id="لاگین" stroke="none" stroke-width="1" fill="none" fill-rule="evenodd">
        <g id="صفحه-اول" transform="translate(-697.000000, -903.000000)" fill-rule="nonzero">
            <g id="calendar" transform="translate(697.000000, 903.000000)">
                <path d="M0,27.2195122 L0,99.2195122 C0,104.060854 3.92546875,108 8.75,108 L103.25,108 C108.074531,108 112,104.060854 112,99.2195122 L112,27.2195122 L0,27.2195122 Z" id="Shape" fill="#D8DCE1"></path>
                <path d="M103.25,2.63414634 L8.75,2.63414634 C3.92546875,2.63414634 0,6.57329268 0,11.4146341 L0,27.2195122 L112,27.2195122 L112,11.4146341 C112,6.57329268 108.074312,2.63414634 103.25,2.63414634 Z M14,20.195122 C11.1004687,20.195122 8.75,17.8364634 8.75,14.9268293 C8.75,12.0171951 11.1004687,9.65853659 14,9.65853659 C16.8995312,9.65853659 19.25,12.0171951 19.25,14.9268293 C19.25,17.8364634 16.8995312,20.195122 14,20.195122 Z M98,20.195122 C95.1004688,20.195122 92.75,17.8364634 92.75,14.9268293 C92.75,12.0171951 95.1004688,9.65853659 98,9.65853659 C100.899531,9.65853659 103.25,12.0171951 103.25,14.9268293 C103.25,17.8364634 100.899531,20.195122 98,20.195122 Z" id="Shape" fill="#64A4EE"></path>
                <g id="Group" transform="translate(14.000000, 43.024390)" fill="#FFFFFF">
                    <path d="M42,0 C38.1395,0 35,3.15043902 35,7.02439024 C35,10.8983415 38.1395,14.0487805 42,14.0487805 C45.8605,14.0487805 49,10.8983415 49,7.02439024 C49,3.15043902 45.8605,0 42,0 Z" id="Shape"></path>
                    <path d="M24.5,0 C20.6395,0 17.5,3.15043902 17.5,7.02439024 C17.5,10.8983415 20.6395,14.0487805 24.5,14.0487805 C28.3605,14.0487805 31.5,10.8983415 31.5,7.02439024 C31.5,3.15043902 28.3605,0 24.5,0 Z" id="Shape"></path>
                    <path d="M7,0 C3.1395,0 0,3.15043902 0,7.02439024 C0,10.8983415 3.1395,14.0487805 7,14.0487805 C10.8605,14.0487805 14,10.8983415 14,7.02439024 C14,3.15043902 10.8605,0 7,0 Z" id="Shape"></path>
                    <path d="M59.5,0 C55.6395,0 52.5,3.15043902 52.5,7.02439024 C52.5,10.8983415 55.6395,14.0487805 59.5,14.0487805 C63.3605,14.0487805 66.5,10.8983415 66.5,7.02439024 C66.5,3.15043902 63.3605,0 59.5,0 Z" id="Shape"></path>
                    <path d="M77,14.0487805 C80.8605,14.0487805 84,10.8983415 84,7.02439024 C84,3.15043902 80.8605,0 77,0 C73.1395,0 70,3.15043902 70,7.02439024 C70,10.8983415 73.1392812,14.0487805 77,14.0487805 Z" id="Shape"></path>
                    <path d="M42,17.5609756 C38.1395,17.5609756 35,20.7114146 35,24.5853659 C35,28.4593171 38.1395,31.6097561 42,31.6097561 C45.8605,31.6097561 49,28.4593171 49,24.5853659 C49,20.7114146 45.8605,17.5609756 42,17.5609756 Z" id="Shape"></path>
                    <path d="M24.5,17.5609756 C20.6395,17.5609756 17.5,20.7114146 17.5,24.5853659 C17.5,28.4593171 20.6395,31.6097561 24.5,31.6097561 C28.3605,31.6097561 31.5,28.4593171 31.5,24.5853659 C31.5,20.7114146 28.3605,17.5609756 24.5,17.5609756 Z" id="Shape"></path>
                    <path d="M7,17.5609756 C3.1395,17.5609756 0,20.7114146 0,24.5853659 C0,28.4593171 3.1395,31.6097561 7,31.6097561 C10.8605,31.6097561 14,28.4593171 14,24.5853659 C14,20.7114146 10.8605,17.5609756 7,17.5609756 Z" id="Shape"></path>
                    <path d="M59.5,17.5609756 C55.6395,17.5609756 52.5,20.7114146 52.5,24.5853659 C52.5,28.4593171 55.6395,31.6097561 59.5,31.6097561 C63.3605,31.6097561 66.5,28.4593171 66.5,24.5853659 C66.5,20.7114146 63.3605,17.5609756 59.5,17.5609756 Z" id="Shape"></path>
                    <path d="M77,17.5609756 C73.1395,17.5609756 70,20.7114146 70,24.5853659 C70,28.4593171 73.1395,31.6097561 77,31.6097561 C80.8605,31.6097561 84,28.4593171 84,24.5853659 C84,20.7114146 80.8605,17.5609756 77,17.5609756 Z" id="Shape"></path>
                    <path d="M42,35.1219512 C38.1395,35.1219512 35,38.2723902 35,42.1463415 C35,46.0202927 38.1395,49.1707317 42,49.1707317 C45.8605,49.1707317 49,46.0202927 49,42.1463415 C49,38.2721707 45.8605,35.1219512 42,35.1219512 Z" id="Shape"></path>
                    <path d="M24.5,35.1219512 C20.6395,35.1219512 17.5,38.2723902 17.5,42.1463415 C17.5,46.0202927 20.6395,49.1707317 24.5,49.1707317 C28.3605,49.1707317 31.5,46.0202927 31.5,42.1463415 C31.5,38.2721707 28.3605,35.1219512 24.5,35.1219512 Z" id="Shape"></path>
                    <path d="M7,35.1219512 C3.1395,35.1219512 0,38.2723902 0,42.1463415 C0,46.0202927 3.1395,49.1707317 7,49.1707317 C10.8605,49.1707317 14,46.0202927 14,42.1463415 C14,38.2721707 10.8605,35.1219512 7,35.1219512 Z" id="Shape"></path>
                    <path d="M59.5,35.1219512 C55.6395,35.1219512 52.5,38.2723902 52.5,42.1463415 C52.5,46.0202927 55.6395,49.1707317 59.5,49.1707317 C63.3605,49.1707317 66.5,46.0202927 66.5,42.1463415 C66.5,38.2721707 63.3605,35.1219512 59.5,35.1219512 Z" id="Shape"></path>
                    <path d="M77,35.1219512 C73.1395,35.1219512 70,38.2723902 70,42.1463415 C70,46.0202927 73.1395,49.1707317 77,49.1707317 C80.8605,49.1707317 84,46.0202927 84,42.1463415 C84,38.2721707 80.8605,35.1219512 77,35.1219512 Z" id="Shape"></path>
                </g>
                <path d="M14,17.5609756 C12.5507812,17.5609756 11.375,16.3819756 11.375,14.9268293 L11.375,2.63414634 C11.375,1.179 12.5507812,0 14,0 C15.4492188,0 16.625,1.179 16.625,2.63414634 L16.625,14.9268293 C16.625,16.3819756 15.4492188,17.5609756 14,17.5609756 Z" id="Shape" fill="#5C546A"></path>
                <path d="M98,17.5609756 C96.5507812,17.5609756 95.375,16.3819756 95.375,14.9268293 L95.375,2.63414634 C95.375,1.179 96.5507812,0 98,0 C99.4492188,0 100.625,1.179 100.625,2.63414634 L100.625,14.9268293 C100.625,16.3819756 99.4492188,17.5609756 98,17.5609756 Z" id="Shape" fill="#5C546A"></path>
                <ellipse id="Oval" fill="#64A4EE" cx="21" cy="50.0487805" rx="7" ry="7.02439024"></ellipse>
                <ellipse id="Oval" fill="#64A4EE" cx="56" cy="85.1707317" rx="7" ry="7.02439024"></ellipse>
                <ellipse id="Oval" fill="#64A4EE" cx="73.5" cy="67.6097561" rx="7" ry="7.02439024"></ellipse>
            </g>
        </g>
    </g>
</svg>