<?xml version="1.0" encoding="UTF-8"?>
<svg width="100px" height="100px" viewBox="0 0 100 100" version="1.1" xmlns="http://www.w3.org/2000/svg" xmlns:xlink="http://www.w3.org/1999/xlink">
    <title>icon/ic-score-class copy</title>
    <g id="icon/ic-score-class-copy" stroke="none" stroke-width="1" fill="none" fill-rule="evenodd">
        <g id="Group-2" transform="translate(15.000000, 0.000000)">
            <g id="Screen-Shot-2020-07-05-at-9" transform="translate(0.000000, 15.000000)">
                <g id="#d9d9d9ff" transform="translate(0.000000, 0.187716)" fill="#E0E0E0" fill-rule="nonzero">
                    <path d="M1.18629908,0.0769634231 C1.89491507,-0.0156429722 21.8741688,-0.0158776167 61.1240602,0.0762594893 C61.1240602,41.4323671 61.0350877,65.0141477 60.8571429,70.8216011 C60.787794,73.0848874 58.1879699,78.2129055 51.7819549,84.0203589 C32.2969925,84.0203589 5.87218045,84.0203589 2.13533835,84.0203589 C1.06766917,84.0203589 0.244140351,83.4220152 0.266917293,82.4365079 C0.289694236,81.4510007 0.18031746,2.26572809 0.176521303,1.28022084 C0.316979114,0.762125604 0.599792815,0.191469979 1.18629908,0.0769634231 Z" id="Path"></path>
                </g>
                <g id="#bfbfbfff" transform="translate(47.262155, 0.000000)" fill="#BFBFBF" fill-rule="nonzero">
                    <path d="M16.7030911,0.182084196 C17.1643241,0.195224293 17.7128688,0.174575569 18.031746,0.572532781 C18.3885848,0.90478951 18.3752982,1.41913043 18.3904829,1.86589372 C18.3904829,4.71541753 18.3976007,67.6522567 18.3994987,71.2732919 C16.7899282,69.6777088 15.2121504,72.5955141 13.5949875,71.0093168 C13.6338981,68.6933747 13.6490827,1.25581781 13.6870443,0.195224293 C14.6911278,0.183961353 15.6971094,0.183961353 16.7030911,0.182084196 Z" id="Shape"></path>
                    <path d="M0.0569423559,84.2787026 C1.12935673,83.0885852 2.3251462,82.0148516 3.44880869,80.8735404 C3.44311445,81.6337888 3.38427402,82.3977916 3.47917794,83.1561629 C3.54561069,83.6085576 3.90434754,83.93706 4.16438429,84.2918427 C2.7939716,84.2805797 1.42545698,84.2880883 0.0569423559,84.2787026 Z" id="Path"></path>
                </g>
                <g id="#fed262ff" transform="translate(7.402506, 4.352657)">
                    <ellipse id="Oval-Copy-2" fill="#FDAF5F" cx="24.8944862" cy="24.9485852" rx="24.8233083" ry="24.5496894"></ellipse>
                    <path d="M33.7027569,45.010697 C39.5749373,41.57902 45.9809524,36.0355418 45.9809524,24.6846101 C45.9809524,18.8519462 43.3137469,13.8293213 39.8418546,9.90200138 C36.0857131,5.65314563 30.8716344,3.21734975 28.0974937,1.98274672 C27.6220021,1.77113401 23.8728492,0.414263739 23.3679202,0.444559206 C10.3693482,1.22446637 0.0711779449,11.8971487 0.0711779449,24.9485852 C0.0711779449,37.707404 9.91274777,48.1929379 22.4977806,49.3853201 C23.2864897,49.4600472 27.8305764,48.4423741 33.7027569,45.010697 Z" id="Oval-Copy-3" fill="#FED262"></path>
                    <path d="M41.4433584,43.1628709 C42.5556324,41.9239476 43.9281805,40.8112629 44.9132832,39.4672188 C45.8395455,40.3400966 46.3624662,40.8009386 47.3646516,41.5930987 C46.1916391,42.7362871 45.052792,43.9151415 43.8551044,45.0339268 C43.0332364,44.2549068 42.1912013,44.0151001 41.4433584,43.1628709 Z" id="Path" fill="#FED262" fill-rule="nonzero"></path>
                </g>
                <g id="#fdaf5fff" transform="translate(44.213367, 41.649413)" fill="#FDAF5F" fill-rule="nonzero">
                    <path d="M7.83004845,0.780427881 C8.08439098,0.528888889 8.40516625,0.35994479 8.72214536,0.198509317 C8.43363743,0.695955832 8.13753718,1.19152519 7.79398496,1.65706004 C6.80888221,3.00110421 5.65295238,4.20811594 4.54067836,5.44703934 C5.2885213,6.29926846 6.22237594,6.95815045 7.04424394,7.73717046 C6.99109774,7.78785369 6.88290727,7.88922015 6.82976107,7.93990338 C6.00030075,8.76022084 5.17084043,9.57866115 4.34138012,10.3971014 C3.4056274,9.53924086 2.56098246,8.58939959 1.6024528,7.75406487 C1.08807352,8.10321601 0.558509607,8.42608696 0.0156591479,8.72830918 C0.336434419,8.21396825 0.740725146,7.75594203 1.19436591,7.3542305 C3.41701587,5.17297447 5.63017544,2.98233264 7.83004845,0.780427881 Z" id="Path"></path>
                </g>
                <g id="#f1c75dff" transform="translate(23.607352, 46.588682)" fill="#FED262" fill-rule="nonzero">
                    <path d="M5.67050961,0.498385093 C6.63283542,0.626031746 7.60654971,0.629786059 8.57646784,0.654189096 C7.90834419,1.70539683 6.88148371,2.45438233 6.03873684,3.35729469 C5.05553216,4.41037957 3.91478697,5.3189234 3.04167084,6.46774327 C2.9923208,6.45648033 2.8955188,6.43395445 2.84616876,6.42269151 C2.03379114,6.23122153 1.22141353,6.03224293 0.429914787,5.76380952 C2.12869507,3.96361629 3.96603509,2.29670117 5.67050961,0.498385093 Z" id="Path"></path>
                </g>
                <g id="#f9f1efff" transform="translate(13.654302, 11.743961)">
                    <ellipse id="Oval" fill="#DDDBDB" cx="18.1503759" cy="17.9503106" rx="18.1503759" ry="17.9503106"></ellipse>
                    <ellipse id="Oval-Copy" fill="#F9F1EF" cx="18.1503759" cy="17.9503106" rx="15.481203" ry="15.310559"></ellipse>
                </g>
                <g id="#4e4699ff" transform="translate(30.559064, 16.296066)" fill="#4E4699" fill-rule="nonzero">
                    <path d="M0.108190476,1.28960663 C0.136661654,0.608198758 0.859829574,0.0807177364 1.52985129,0.204610076 C1.99488053,0.221504486 2.25871345,0.632601794 2.55101754,0.929192547 C2.60606182,3.63042098 2.56050794,6.33164941 2.57759064,9.03287785 C1.76141688,8.84140787 0.901587302,8.8357764 0.0873116124,9.03850932 C0.0911077694,7.1726156 0.0873116124,5.30672188 0.0892096909,3.44270531 C0.0987000835,2.72563147 0.0512481203,2.00668047 0.108190476,1.28960663 Z" id="Path"></path>
                </g>
                <g id="#cc2f39ff" transform="translate(27.522139, 25.118703)" fill="#CC2F39" fill-rule="nonzero">
                    <path d="M5.61451629,0.210241546 C6.33198997,0.471166322 6.9925213,0.880386473 7.53347368,1.41725328 C7.79920468,1.72322981 8.02127987,2.06299517 8.21678195,2.41590062 C8.89629407,3.80124224 8.74824394,5.5526294 7.81628739,6.79342995 C6.9488655,7.96853002 5.43799499,8.63116632 3.97457644,8.4978882 C3.57977611,8.43781919 3.18877193,8.35334714 2.8110543,8.22757764 C2.02904595,7.87654934 1.33814536,7.33968254 0.829460317,6.65452036 C-0.032267335,5.38180814 -0.134763576,3.64543823 0.609283208,2.29763975 C1.12176441,1.29899241 2.08219215,0.604444444 3.12423726,0.215873016 C3.93851295,0.0131400966 4.79834252,0.0187715666 5.61451629,0.210241546 Z M3.65949541,2.68621118 C2.86989474,3.03160801 2.38968087,4.01711525 2.72374269,4.82992409 C3.03882373,6.01253278 4.87616374,6.38233264 5.64488555,5.4268599 C6.12130326,4.96883368 6.08144361,4.24425121 5.96376274,3.6510697 C5.70942022,2.71061422 4.51552882,2.2826225 3.65949541,2.68621118 Z" id="Shape"></path>
                </g>
                <g id="#fc414dff" transform="translate(29.989641, 27.559006)" fill="#FC414D" fill-rule="nonzero">
                    <path d="M1.19199332,0.245907522 C2.04802673,-0.157681159 3.24191813,0.270310559 3.49626065,1.21076605 C3.61394152,1.80394755 3.65380117,2.52853002 3.17738346,2.98655625 C2.40866165,3.94202899 0.571321637,3.57222912 0.256240602,2.38962043 C-0.0778212197,1.57681159 0.402392648,0.591304348 1.19199332,0.245907522 Z" id="Path"></path>
                </g>
                <g id="#4a4391ff" transform="translate(24.105597, 31.688751)" fill="#4A4391" fill-rule="nonzero">
                    <path d="M4.24600167,0.0844720497 C4.75468672,0.769634231 5.4455873,1.30650104 6.22759566,1.65752933 C4.91602339,3.05037957 3.65569925,4.48640442 2.37259816,5.90365769 C2.02904595,6.29222912 1.48050125,6.6094686 0.950937343,6.39547274 C0.565627402,6.28096618 0.326469507,5.94120083 0.0949039265,5.64273292 C-0.113884712,4.66661146 0.73645447,4.02274672 1.30967419,3.37325052 C2.27769424,2.2694824 3.30455472,1.2126432 4.24600167,0.0844720497 Z" id="Path"></path>
                </g>
                <g id="#504f56ff" transform="translate(14.994820, 45.391994)" fill="#504F56" fill-rule="nonzero">
                    <path d="M39.7723375,0.553761215 C40.1424628,0.204610076 40.6454536,-0.093857833 41.1731195,0.082594893 C41.7843008,0.307853692 42.177203,0.863492063 42.6498246,1.28022084 C43.6861754,2.35395445 44.7775706,3.37512767 45.8234119,4.4394755 C47.4405748,6.02567288 49.0501454,7.62125604 50.659716,9.2168392 C50.7470276,9.30131125 50.9216508,9.47213251 51.0089624,9.55848171 C51.6011629,10.1404003 52.1914653,10.1981228 52.7836658,10.7819186 C54.0231111,11.9363699 55.0215004,13.4962871 55.0063158,15.232657 C55.0651562,16.1806211 54.8506734,17.1248309 54.4539749,17.9864458 C53.5049357,17.8756936 52.5824695,18.8222498 51.6353283,18.6514286 C49.936548,18.4862388 48.4332698,17.5026087 47.3665497,16.2223879 C46.7155088,15.4264734 45.8898446,14.8032574 45.1457978,14.0993237 C43.7791813,12.7627881 42.4315455,11.407481 41.0668271,10.0709455 C40.1272782,9.17929607 39.3604545,8.11870255 38.3316959,7.31715666 C37.3883509,6.43301587 36.1963576,5.58078675 36.0483074,4.19732229 C36.1014536,4.14663906 36.2096441,4.0452726 36.2627903,3.99458937 C37.4604779,2.875804 38.599325,1.69694962 39.7723375,0.553761215 Z" id="Path"></path>
                    <path d="M0.267629073,14.4278261 C-0.0797192982,13.7520497 0.3093868,12.8735404 1.04014703,12.6632988 C11.6940618,12.7139821 22.3517728,12.6182471 33.0056876,12.7158592 C33.7478363,13.0349758 33.840989,13.4743569 33.8513072,14.0024155 C33.8610995,14.5304741 33.584127,15.0583161 32.7833751,15.0583161 C26.3773601,15.0583161 2.07601927,15.1295651 1.30587803,15.0904624 C0.859829574,15.0923395 0.539054302,14.7338026 0.267629073,14.4278261 Z" id="Path"></path>
                    <path d="M0.833256475,18.5162733 C1.25083375,18.4618357 1.67220718,18.4336784 2.09358062,18.4318012 C5.43799499,18.4393099 29.5758596,18.4336784 30.8058145,18.4355556 C31.7168922,18.5143961 32.9297644,18.140842 33.5599265,19.0099655 C34.0932865,19.7683368 33.4688187,20.8721049 32.5501487,20.8814907 C31.0165013,20.9340511 4.32761905,20.9040166 1.68928989,20.9002622 C1.08190476,20.9340511 0.425169591,20.6731263 0.189807853,20.0818219 C0.00949039265,19.4586059 0.339756057,18.8823188 0.833256475,18.5162733 Z" id="Path"></path>
                    <path d="M0.275221387,26.0286542 C-0.161336675,25.2965631 0.468825397,24.2021808 1.3438396,24.2847757 C2.98188137,24.2678813 19.7044277,24.2974465 21.8397661,24.2974465 C23.9751044,24.2974465 23.8019048,24.7183989 23.9936107,24.9455349 C24.0847185,25.4016839 24.1188839,25.9385507 23.7468605,26.2914562 C23.3311813,26.8020428 22.6023191,26.7194479 22.0139148,26.7400966 C15.2415706,26.7100621 8.4692264,26.7419738 1.69688221,26.7288337 C1.14454135,26.7494824 0.51627736,26.5673982 0.275221387,26.0286542 Z" id="Path"></path>
                </g>
                <g id="#3a3a3aff" transform="translate(47.831579, 49.521739)" fill="#3A3A3A" fill-rule="nonzero">
                    <path d="M0.72316792,2.52477571 C1.55262824,1.7063354 2.38208855,0.8878951 3.21154887,0.0675776398 C3.359599,1.4510421 4.55159231,2.30327122 5.49493734,3.18741201 C6.52369591,3.9889579 7.29051963,5.04955141 8.2300685,5.94120083 C9.59478697,7.27773637 10.9424227,8.63304348 12.3090393,9.96957902 C13.053086,10.6735128 13.8787502,11.2967288 14.5297911,12.0926432 C15.5965113,13.372864 17.0997895,14.3564941 18.7985698,14.5216839 C19.7457109,14.6925052 20.6681771,13.7459489 21.6172164,13.8567012 C20.8978446,15.3659351 19.4894703,17.0427053 17.8685113,17.4894686 C16.2855138,17.9099517 14.5335873,17.6640442 13.14799,16.7967978 C12.5766683,16.4101035 12.0717794,15.9389372 11.5877694,15.4546308 C10.7621053,14.6624707 9.97060652,13.8365217 9.14684043,13.0443616 C7.49551211,11.4018496 5.8346934,9.77060041 4.18336508,8.12996549 C3.57408187,7.53115252 2.96100251,6.93609386 2.35931161,6.32977226 C1.68739181,5.61645273 0.907281537,4.99886818 0.311284879,4.21797101 C-0.104394319,3.64543823 0.280915622,2.95089027 0.72316792,2.52477571 Z" id="Path"></path>
                </g>
                <g id="#b2aeadff" transform="translate(50.488889, 69.982747)" fill="#B2AEAD" fill-rule="nonzero">
                    <path d="M0.229667502,1.13567978 C0.305590643,0.606321601 0.751639098,0.105120773 1.30967419,0.0675776398 C2.11635756,-0.0187715666 2.92873517,0.0431746032 3.73731662,0.0488060732 C5.98274353,0.0713319531 8.2300685,0.0694547964 10.4754954,0.0488060732 C11.6617945,0.0638233264 12.8537878,-0.0093857833 14.0400869,0.0769634231 C14.5696508,0.099489303 14.8904261,0.561269841 15.2093033,0.917929607 C15.2681437,1.54489993 14.9777377,2.11743271 14.5108104,2.52477571 C10.3388338,6.59257419 6.2674553,10.2337888 2.04043442,14.2415183 C1.67220718,14.2771843 1.30397995,14.297833 0.937650794,14.3090959 C0.677614035,13.9543133 0.318877193,13.6258109 0.252444444,13.1734161 C0.157540518,12.4150449 0.216380952,11.6510421 0.222075188,10.8907937 C0.235361738,8.30219462 0.246750209,6.23966874 0.216380952,3.6510697 C0.203094403,2.81198068 0.108190476,1.96913734 0.229667502,1.13567978 Z" id="Path"></path>
                </g>
            </g>
            <g id="mortarboard" transform="translate(43.042921, 19.887104) rotate(25.000000) translate(-43.042921, -19.887104) translate(23.542921, 7.387104)" fill-rule="nonzero">
                <path d="M30.4464381,9.08883901 C30.4458268,8.91699897 30.3712491,8.75337049 30.2410437,8.63916202 C30.1103034,8.52495356 29.9353972,8.47169143 29.7634711,8.49142931 L8.99624535,10.902162 C8.68884141,10.9377957 8.4565501,11.1952921 8.4565501,11.5007018 L8.4565501,16.9248504 C8.4565501,19.3034902 15.373024,19.9382663 19.459823,19.9382663 C23.5466219,19.9382663 30.4630959,19.3034902 30.4630959,16.9248504 C30.4630959,16.9248504 30.4630959,16.9239463 30.4630959,16.923645 L30.4464381,9.08883901 Z" id="Path" fill="#5D647F"></path>
                <path d="M30.4464381,10.8980186 L19.4431653,10.8980186 L19.4431653,19.9382663 C19.4486669,19.9382663 19.4543978,19.9382663 19.4598994,19.9382663 C23.4397985,19.9382663 30.1004463,19.3355831 30.4464381,17.1073127 L30.4464381,10.8980186 Z" id="Path" fill="#68748D"></path>
                <path d="M37.6804788,5.76112384 L22.0369576,0.473181631 C20.3750049,-0.0888957688 18.5447175,-0.0888957688 16.8827648,0.473181631 L1.23993131,5.76112384 C0.48712406,6.0153808 0,6.6866192 0,7.47146336 C0,8.25600619 0.48712406,8.92724458 1.23993131,9.18150155 L16.8828412,14.4693684 C17.7138175,14.7503695 18.586591,14.8907946 19.4599758,14.8907946 C20.3333606,14.8907946 21.2061341,14.7504448 22.0371104,14.4693684 L37.6806316,9.18150155 C38.4334388,8.92724458 38.9199516,8.25600619 38.9199516,7.47146336 C38.9199516,6.6866192 38.433286,6.0153808 37.6804788,5.76112384 Z" id="Path" fill="#74829C"></path>
                <path d="M31.0577311,20.5409494 C30.7198389,20.5409494 30.4464381,20.271098 30.4464381,19.9382663 L30.4464381,12.0633818 C30.4464381,11.8058854 30.2804721,11.5766398 30.0333569,11.4930929 L19.2450299,7.84640764 C18.9256294,7.73837668 18.7555371,7.39590196 18.8647293,7.081 C18.9746092,6.76609804 19.3214415,6.59749742 19.641377,6.70635707 L30.429704,10.3530423 C31.1711259,10.6037585 31.669024,11.2908927 31.669024,12.0633818 L31.669024,19.9382663 C31.669024,20.271098 31.3956232,20.5409494 31.0577311,20.5409494 Z" id="Path" fill="#5C546A"></path>
                <path d="M31.669024,24.7597317 L30.4464381,24.7597317 C30.1088516,24.7597317 29.8351452,24.4898803 29.8351452,24.1570485 L29.8351452,20.5409494 C29.8351452,19.8752105 30.3824816,19.3355831 31.0577311,19.3355831 L31.0577311,19.3355831 C31.7329805,19.3355831 32.280317,19.8752105 32.280317,20.5409494 L32.280317,24.1570485 C32.280317,24.4898803 32.0066105,24.7597317 31.669024,24.7597317 Z" id="Path" fill="#FFE671"></path>
                <path d="M19.4598994,17.5275335 C23.8949825,17.5275335 28.3671252,16.864808 30.4602686,15.5837296 L30.4567537,13.9341858 C30.3891294,14.758355 26.5167415,16.3221672 19.4598994,16.3221672 C12.3404762,16.3221672 8.45662651,14.7295015 8.45662651,13.9114345 L8.45662651,15.5819216 C10.5484709,16.86413 15.0227532,17.5275335 19.4598994,17.5275335 Z" id="Path" fill="#5D647F"></path>
                <g id="Group" transform="translate(8.405278, 13.861713)" fill="#5C546A">
                    <path d="M22.0508197,1.72970072 C22.0565197,1.72706398 22.0633197,1.72465325 22.0689197,1.72201651 L22.0643197,0.0724726522 C22.0633197,0.0818142415 22.0531197,0.0924365325 22.0508197,0.101928793 L22.0508197,1.72970072 Z" id="Path"></path>
                    <path d="M11.0378874,2.46022807 C3.92946742,2.45766667 0.0513486068,0.867185759 0.0513486068,0.0497213622 L0.0513486068,1.72020846 C2.14059505,3.00075955 6.60616637,3.66393705 11.0378874,3.66566976 L11.0378874,2.46022807 Z" id="Path"></path>
                </g>
                <ellipse id="Oval" fill="#5D647F" cx="19.4598994" cy="7.2819195" rx="2.44517175" ry="1.20536636"></ellipse>
                <path d="M29.8351452,20.5409494 L29.8351452,24.1570485 C29.8351452,24.4898803 30.1088516,24.7597317 30.4464381,24.7597317 L31.0577311,24.7597317 L31.0577311,19.3355831 C30.382558,19.3355831 29.8351452,19.8752105 29.8351452,20.5409494 Z" id="Path" fill="#FFCD00"></path>
            </g>
        </g>
    </g>
</svg>