<?xml version="1.0" encoding="UTF-8"?>
<svg width="100px" height="100px" viewBox="0 0 100 100" version="1.1" xmlns="http://www.w3.org/2000/svg" xmlns:xlink="http://www.w3.org/1999/xlink">
    <title>icon/ic-invoicePlus</title>
    <g id="icon/ic-invoicePlus" stroke="none" stroke-width="1" fill="none" fill-rule="evenodd">
        <g id="ic-invoicePlus" transform="translate(11.000000, 0.000000)">
            <g id="#a1412bff" transform="translate(4.184715, 12.113243)" fill="#B74C44" fill-rule="nonzero">
                <path d="M0.090887995,0.152769183 C3.01090655,0.12762995 8.90315594,0.187577351 11.8231745,0.123762376 C15.2111695,0.104424505 49.8510984,0.26299505 53.2410272,0.26299505 C53.2468286,0.483446782 53.2739016,82.0583231 53.7360767,82.9362624 C51.0481126,82.9923422 2.75758045,82.775758 0.0696163366,82.7912283 C0.0425433168,71.5249846 0.075417698,57.2884437 0.0522122525,46.0221999 C0.133431312,41.3211634 0.0715501238,36.6181931 0.0850866337,31.9152228 C0.129563738,25.9707611 0.133431312,20.0243657 0.0812190594,14.0799041 C0.0966893564,10.4269802 0.0850866337,3.80569307 0.090887995,0.152769183 Z" id="Path"></path>
            </g>
            <g id="#f1eee0ff" transform="translate(20.884901, 1.547030)" fill="#F1EEE0" fill-rule="nonzero">
                <path d="M5.37399444,0.12762995 C5.33145112,3.07472153 5.37786201,6.02181312 5.36239171,8.9689047 C5.31404703,10.6841739 5.33145111,8.61888923 5.35272277,10.3341584 C7.58431312,10.3612314 42.6941523,10.3186881 54.8576733,10.3341584 C54.8924815,13.6525371 54.8576733,63.799505 54.8576733,67.2648515 C52.3263459,67.2841894 7.56110767,67.2551826 5.35272277,67.2648515 C7.56497525,67.2803218 35.5526763,67.2977258 37.5309406,67.2648515 L54.8576733,67.2648515 C54.8576733,83.6014851 55.3527228,85.5816832 29.4032333,85.6338954 C24.4991491,85.5816832 19.595065,85.6841739 14.6909808,85.647432 C9.81010211,85.6590347 4.9292234,85.6222927 0.0483446782,85.6667698 C1.34204827,85.3264233 2.64735458,84.8178372 3.58717513,83.8316058 C4.73584468,82.694539 5.37012686,81.0894956 5.36045792,79.478651 C5.35852414,75.481513 5.34305384,53.2410272 5.3643255,46.1169554 C5.3643255,45.6779857 5.35465656,8.93603033 5.32371597,6.57681003 C5.35659035,4.42837252 5.25603342,2.27413366 5.37399444,0.12762995 Z" id="Shape"></path>
                <path d="M19.4055539,2.40176361 C19.7536355,2.27800124 20.1287902,2.27413366 20.4942759,2.26446472 C26.9395885,2.27606745 33.384901,2.26639851 39.8302135,2.2683323 C40.7545638,2.19484839 41.7098546,2.79625619 41.9032333,3.72834158 C42.0521349,4.73584467 41.9399752,5.75688428 41.978651,6.77018873 C41.9612469,7.53983601 42.0772742,8.42357673 41.5358138,9.05592512 C41.0968441,9.63606126 40.3368657,9.80623452 39.6445699,9.77722772 C33.1315749,9.75788985 26.6185798,9.78883045 20.1055848,9.76175743 C19.1193534,9.78496287 18.2066058,8.94956683 18.1930693,7.95560025 C18.1447247,6.71604269 18.1640625,5.47261757 18.1814665,4.23306002 C18.1563273,3.44214109 18.6610457,2.67636139 19.4055539,2.40176361 Z" id="Path"></path>
            </g>
            <g id="#db765aff" transform="translate(0.000000, 8.121906)" fill="#DB765A" fill-rule="nonzero">
                <path d="M10.0730971,0.00386757426 C13.4707612,-3.21587808e-13 34.6921411,0.00386757426 38.089805,0.00193378713 C38.1207456,2.36115409 37.563815,4.86540842 37.6237624,7.22462871 C34.2338336,7.22462871 13.4552909,7.06605817 10.0672958,7.08539604 C10.8872216,6.77792388 10.8678837,0.301670792 10.0730971,0.00386757426 Z" id="Path"></path>
                <path d="M0.108292079,35.1214418 C0.464108911,35.7692605 6.78565904,35.9568379 7.20722463,35.1620514 C7.23043008,46.4282951 7.19755569,72.5460242 7.22462871,83.8122679 C9.91259287,83.7967976 12.6024907,83.8432085 15.2904549,83.7871287 L15.4026145,83.7813273 C16.5628867,85.1639851 18.2936262,86.055461 20.1152538,86.0341893 C31.5207302,86.0477258 42.9281405,86.0341893 54.3355508,86.0399907 C56.095297,86.0477258 57.8569771,86.0071163 59.6167234,86.0806002 C58.8586788,88.644802 56.5149288,90.6404703 53.8385674,90.887995 L6.15524444,90.887995 C4.13443688,90.6868812 2.22578899,89.5285427 1.15060335,87.7978032 C0.400293936,86.6568688 0.0928217822,85.2819461 0.103809743,83.9302289 C0.106358292,72.6117729 0.100556931,46.4398979 0.108292079,35.1214418 Z" id="Path"></path>
            </g>
            <g id="#ffc751ff" transform="translate(26.106127, 0.000000)" fill="#FFC751" fill-rule="nonzero">
                <path d="M47.1612005,0 C49.636448,0 49.636448,1.48514851 49.636448,3.96039604 C49.636448,8.41584158 49.5837159,11.6385304 49.636448,15.8415842 C37.472927,15.8261139 18.9859221,15.6849474 6.82046721,15.6733447 C3.59684406,15.8415842 3.59684406,15.8415842 0.131318589,15.8415842 C0.146967822,12.8944926 0.110225866,4.62175124 0.152769183,1.67465965 C0.23592203,0.860535272 0.914681312,0.264928837 1.64758663,0 L47.1612005,0 Z" id="Shape"></path>
                <path d="M0.148901609,66.6750464 C2.35728651,66.6653774 13.4746287,66.688583 15.6810798,66.6615099 C15.1222153,67.2068378 15.0777382,70.2854269 15.6965501,70.8810334 C13.4842976,70.8384901 2.36115409,70.8771658 0.148901609,70.8616955 C0.135365099,69.4655012 0.135365099,68.0712407 0.148901609,66.6750464 Z" id="Path"></path>
                <path d="M14.6116955,66.6615099 C17.1410891,66.6827816 46.6100712,66.851021 49.1413985,66.8316832 C49.3483138,68.9820545 49.1413985,68.8118812 49.2496906,70.8520266 C47.2714263,70.884901 16.5802908,70.8326887 14.6039604,70.8810334 C15.1802289,70.3202351 15.234375,67.2377784 14.6116955,66.6615099 Z" id="Path"></path>
            </g>
            <g id="#e8e4d8ff" transform="translate(50.278465, 1.547030)" fill="#E8E4D8" fill-rule="nonzero">
                <path d="M25.4776454,2.70150062 C25.4563738,6.95583231 25.5259901,11.2120978 25.4293007,15.4644956 C25.4331683,31.0643564 25.4293007,46.666151 25.4312346,62.2660118 C25.4022277,64.779935 25.5569307,67.2938583 25.4370358,69.8077816 C25.4215655,72.8360922 25.4312346,75.8663366 25.4331683,78.8965811 C25.4409035,79.9853033 25.3384128,81.1068998 24.8588336,82.1028001 C23.9074103,84.2164295 21.6680848,85.664836 19.3475402,85.6532333 C16.1123144,85.6551671 12.8790223,85.6512995 9.64379641,85.6532333 C7.23236386,85.6571009 4.82093131,85.6532333 2.40949876,85.6551671 C1.60891089,85.6571009 0.80832302,85.6590347 0.00966893564,85.6338954 C1.26856436,83.6188892 2.34181621,81.4975248 3.47888304,79.414836 C4.1769802,77.6608911 4.50185644,77.761448 4.1769802,77.6608911 C5.02784653,75.5298576 7.35999381,71.494044 8.22052908,69.3649444 C13.9484065,69.3494741 19.6782178,69.3649444 25.4060952,69.3572092 C25.4312346,67.9397432 25.4312346,66.5203435 25.4099629,65.1028775 C20.2428837,65.1106127 15.0758045,65.0854734 9.91065901,65.1144802 C11.2527073,61.8695854 12.1905941,58.4796565 13.399211,55.1864171 C14.0779703,51.9183168 14.8495514,49.8201578 15.1956992,48.2711944 C15.561185,46.6777538 15.9460086,45.0881807 16.2418781,43.4812036 C17.0482673,40.5321782 17.0482673,40.5321782 17.3073948,37.227336 C17.7637685,35.5488088 17.9126702,33.8142018 18.1273205,32.0931312 C18.3400371,30.1361386 18.6185025,28.1810798 18.6436417,26.2086169 C19.0284653,24.1955446 19.1928372,24.3676516 18.8350866,24.083385 C19.0806776,20.7727414 19.1773669,17.4543627 19.1425588,14.135984 C21.2310489,14.1456529 23.319539,14.1379177 25.4080291,14.1417852 C25.4254332,9.45815285 25.444771,4.77452043 25.400294,0.090887995 C25.5433942,0.953357054 25.4583075,1.83129642 25.4776454,2.70150062 Z" id="Shape"></path>
            </g>
            <g id="#ffaf40ff" transform="translate(58.400371, 0.000000)" fill="#FFAF40" fill-rule="nonzero">
                <path d="M10.0150836,0 L15.8899288,0 C16.5590192,0.313273515 17.1778311,0.870204208 17.278388,1.6379177 C17.322865,6.32155012 17.3035272,11.0051826 17.2861232,15.688815 C15.1976331,15.6849474 13.109143,15.6926826 11.0206529,15.6830137 C10.9549041,10.4424505 10.6300278,5.20575495 10.0150836,0 Z" id="Path"></path>
                <path d="M4.30267636,26.5450959 C5.74141398,25.5433942 7.00224319,24.3115718 8.00007735,22.8689665 C8.98050743,23.7159653 9.63606126,24.882039 10.7131807,25.6304146 C11.0709313,25.9146813 11.4422184,26.1854115 11.7612933,26.5141553 C11.5775836,27.1058942 10.9491027,27.3630879 10.5217357,27.7556466 C9.5393719,28.4866182 8.93022896,29.5811417 8.00007735,30.3662593 C7.31358292,29.4863861 6.65802908,28.5639697 5.77622215,27.8639387 C5.26183477,27.4501083 4.75324876,27.0285427 4.30267636,26.5450959 Z" id="Path"></path>
                <path d="M5.78202351,40.0081219 C6.65996287,39.308091 7.3155167,38.3837407 8.00587871,37.5096689 C8.43517946,37.8964263 8.83160581,38.317992 9.18548886,38.7743657 C9.88358601,39.7431931 10.9375,40.3426671 11.7632271,41.1819307 C11.6297957,41.6267018 11.1656868,41.851021 10.8408106,42.1449566 C9.75595606,42.9262067 8.95730198,44.0071937 8.11997215,45.0282333 C7.51856436,44.4113552 7.0157797,43.7093905 6.41823948,43.0886448 C5.78202351,42.423422 5.02397896,41.8935644 4.30267636,41.3269648 C4.75711634,40.8454517 5.26570235,40.4219524 5.78202351,40.0081219 Z" id="Path"></path>
                <path d="M1.78875309,66.6615099 C6.95389851,66.6325031 12.1209777,66.6576423 17.2880569,66.6499071 C17.3093286,68.0673732 17.3093286,69.4867729 17.2841893,70.9042388 C11.5563119,70.9119741 5.82650061,70.8965038 0.0986231436,70.9119741 L0.123762376,70.8520266 C0.700030941,69.4635674 1.25696163,68.0673732 1.78875309,66.6615099 Z" id="Path"></path>
            </g>
            <g id="#f2886bff" transform="translate(0.000000, 7.928527)" fill="#F2886B" fill-rule="nonzero">
                <path d="M0.732905322,4.00680693 C1.78681931,1.72687191 4.22532487,0.112159653 6.75665223,0.189511139 C9.84297649,0.203047649 12.9273669,0.185643564 16.0136912,0.197246287 C16.8084777,0.495049505 17.6013304,0.910813738 18.1195853,1.60504332 C19.0439356,2.79818998 19.0613397,4.59081064 18.1698639,5.80716275 C17.6554764,6.54200186 16.8278155,6.9713026 16.0078898,7.27877475 C13.0878713,7.34258973 10.1659189,7.28264233 7.24590037,7.30778156 C7.24009901,10.9607054 7.25170173,26.4928837 7.23623144,30.1458075 C6.82820236,29.4303063 0.514387376,29.5037902 0.0773514851,30.1535427 C0.0773514851,26.5122215 0.0792852723,10.9877785 0.075417698,7.34645731 C0.0812190594,6.20745668 0.228186881,5.04138305 0.732905322,4.00680693 Z" id="Path"></path>
                <path d="M0.0792852723,29.1460396 C0.475711634,29.8750773 6.74311572,30.1361386 7.24009901,29.169245 C7.2265625,33.8722153 7.28844368,45.5058787 7.20722462,50.2069152 C6.78565903,51.0017017 6.27707302,51.808091 5.4842203,52.279935 C4.24272896,53.0399134 2.51779084,52.916151 1.41746597,51.9550588 C0.860535272,51.4580754 0.464108911,50.8141244 0.108292079,50.1663056 C0.0406095297,45.4710705 0.0947555693,33.8432085 0.0792852723,29.1460396 Z" id="Path"></path>
            </g>
            <g id="#ffe059ff" transform="translate(26.106127, 8.121906)" fill="#FFE059" fill-rule="nonzero">
                <path d="M2.76918317,0.0812190594 C4.51732673,-0.33647896 6.51879642,0.891475866 6.76438738,2.70923576 C6.95196473,4.31621287 6.80306312,9.89905632 6.82046721,11.5118348 C4.58694307,11.509901 2.35341894,11.527305 0.121828589,11.5002321 C0.100556931,9.78496287 0.0928217822,4.10929764 0.14116646,2.39402847 C0.719368812,1.36525371 1.54122835,0.313273515 2.76918317,0.0812190594 Z" id="Path"></path>
                <path d="M6.77018873,58.539604 C13.345065,58.5047958 19.9199412,58.5047958 26.4928837,58.539604 C27.1155631,59.1158726 27.8542698,59.7849629 27.7923886,60.7170483 C27.7943224,61.5988552 27.061417,62.1983292 26.4851485,62.7591275 C23.1338954,62.8345451 19.7826423,62.7765316 16.4313892,62.7939356 C13.2155012,62.7765316 9.99961327,62.8345451 6.78565903,62.7591275 C6.16684715,62.163521 5.42040532,61.4750929 5.53063119,60.5256034 C5.52482982,59.6728032 6.21132426,59.084932 6.77018873,58.539604 Z" id="Path"></path>
            </g>
            <g id="#f9f8f2ff" transform="translate(26.106127, 15.663675)" fill="#F9F8F2" fill-rule="nonzero">
                <path d="M0.0889542079,0.197246287 C2.34955137,0.102490718 4.61594988,0.0715501238 6.87654703,0.1953125 C6.9248917,2.2838026 6.86494431,4.37422649 6.90942141,6.46465038 C6.16104579,6.67349939 5.48808787,7.29231127 5.48615409,8.11417079 C5.41653774,8.98630879 6.09723081,9.69600866 6.89395112,9.9164604 C6.90168626,10.61069 6.90168626,11.3029857 6.89395112,11.9972153 C6.1146349,12.2079981 5.44361077,12.8867574 5.48615409,13.73569 C5.46294863,14.5749536 6.13590655,15.234375 6.90555384,15.4393564 C6.8804146,17.3267327 6.8823484,19.2160427 6.90555384,21.1053528 C6.13590655,21.3142018 5.45908106,21.9736232 5.48615409,22.8167544 C5.44747834,23.6637531 6.12043627,24.336711 6.8958849,24.5532951 C6.90362005,25.2475248 6.90555384,25.9436881 6.89781868,26.6379177 C6.0991646,26.8428991 5.42233911,27.5564666 5.48615409,28.4208694 C5.50355817,29.1499072 6.03148205,29.8247989 6.73344678,30.0201114 L6.95003094,30.078125 C6.65996287,30.8516399 6.4008354,31.6986386 5.74334777,32.2478342 C4.65655941,33.2476021 2.89487933,33.3674969 1.6669245,32.5591739 C0.978496287,32.1086015 0.525990099,31.3950341 0.14116646,30.6872679 C0.0483446782,20.5232828 0.150835396,10.3592976 0.0889542079,0.197246287 Z" id="Path"></path>
            </g>
            <g id="#8f8b81ff" transform="translate(31.520731, 22.045173)" fill="#8F8B81" fill-rule="nonzero">
                <path d="M0.0715501238,1.73267327 C0.0734839109,0.910813738 0.746441832,0.292001856 1.49481745,0.0831528465 C2.80399134,0.075417698 4.11509901,0.0464108911 5.42427289,0.090887995 C6.25580136,0.0792852723 7.03125,0.730971535 7.12600557,1.56636757 C7.28264233,2.48298267 6.5652073,3.44987624 5.62345297,3.50595606 C4.24466274,3.60264543 2.86007116,3.53496287 1.47934716,3.53496287 C0.682626856,3.31451114 0.00193378713,2.60481127 0.0715501238,1.73267327 Z" id="Path"></path>
                <path d="M0.0715501238,7.35419246 C0.0290068069,6.5052599 0.700030941,5.82650062 1.47934716,5.61571782 C2.09042389,5.59251238 4.68169863,5.60024752 5.29277537,5.59831374 C4.72810952,6.02568069 4.75905013,8.77939356 5.45908107,9.08493193 C4.79772587,9.06559406 2.15423886,9.07913057 1.49094988,9.05785891 C0.721302599,8.85287748 0.0483446782,8.19345607 0.0715501238,7.35419246 Z" id="Path"></path>
                <path d="M4.55793626,5.60024752 C7.20529084,5.61571782 12.8248762,5.61185025 15.4722308,5.59831374 C16.0562346,5.61185025 16.7195235,5.59831374 17.1797649,6.02374691 C17.9378094,6.63869122 17.9764851,7.90145421 17.2667852,8.56861077 C16.86069,9.00371287 16.234143,9.06559406 15.6733447,9.06946163 C12.9621751,9.07332921 7.27684096,9.03271968 4.56567141,9.0887995 C5.11873452,8.65563119 5.13807241,6.02181312 4.55793626,5.60024752 Z" id="Path"></path>
                <path d="M0.0715501238,16.4352568 C0.044477104,15.5921256 0.721302599,14.9327042 1.49094988,14.7238551 C2.86780632,14.7335242 4.24659653,14.6735767 5.6195854,14.752862 C6.5362005,14.8031405 7.25170173,15.7236232 7.13374071,16.6228342 C7.07185952,17.4756343 6.29447711,18.177599 5.43974319,18.1621287 C4.12090037,18.2104734 2.80012376,18.177599 1.48128094,18.1717976 C0.705832302,17.9552135 0.0328743812,17.2822555 0.0715501238,16.4352568 Z" id="Path"></path>
                <path d="M0.0715501238,22.0393719 C0.00773514851,21.1749691 0.684560644,20.4614016 1.48321472,20.2564202 C2.04788056,20.2293471 3.60264543,20.2274134 4.16924505,20.2080754 C3.69740099,20.7243966 3.66259282,23.1629022 4.04935025,23.6328125 C3.46921411,23.6424814 1.89897896,23.6618193 1.31884282,23.6386139 C0.616878094,23.4433014 0.0889542079,22.7684097 0.0715501238,22.0393719 Z" id="Path"></path>
                <path d="M4.68556622,20.2100093 C7.41800743,20.2873608 13.1226795,20.2100093 15.8570545,20.2448174 C16.5764233,20.2177445 17.3306003,20.5619585 17.6226021,21.2523206 C18.0886449,22.1902073 17.4891708,23.4433014 16.460396,23.6540842 C13.5693843,23.6695545 7.70614171,23.6869585 4.81512995,23.6308787 C5.20768874,23.1667698 5.17288057,20.7185952 4.68556622,20.2100093 Z" id="Path"></path>
                <path d="M1.0519802,29.5250619 C2.39982982,29.1750464 3.82889851,29.4206373 5.21155631,29.3568224 C6.14750928,29.2678682 7.08732982,29.9795019 7.1356745,30.9386603 C7.25170173,31.9113551 6.3989016,32.8337717 5.42233911,32.8105662 C4.19438428,32.8337717 2.96256188,32.8415068 1.73267327,32.8066986 C0.980430074,32.7950959 0.286200495,32.2362314 0.121828589,31.4994585 C-0.0850866337,30.7298113 0.328743812,29.859607 1.0519802,29.5250619 Z" id="Path"></path>
                <path d="M0.425433168,37.6663056 C-0.338412748,36.7400217 0.20884901,35.2142636 1.35945236,34.9261293 C1.92025062,34.9164604 4.46318069,34.947401 5.02591274,34.9667389 C4.64495668,35.4347153 4.6584932,37.9041615 5.20382117,38.354734 C4.25819926,38.3315285 1.07131807,38.5481126 0.425433168,37.6663056 Z" id="Path"></path>
                <path d="M4.84026918,34.974474 C7.71774443,34.8816522 13.5693843,34.947401 16.4487933,34.9222618 C17.4369585,35.1407797 18.059638,36.2952506 17.6651454,37.237005 C17.4002166,37.9718441 16.6189665,38.3895421 15.860922,38.3508663 C13.109143,38.3624691 7.38900061,38.3469987 4.63722153,38.3547339 C5.19995358,37.9157643 5.22315903,35.4347153 4.84026918,34.974474 Z" id="Path"></path>
                <path d="M0.199180074,56.5052599 C0.456373762,55.7994276 1.20281559,55.4068688 1.92798577,55.4300743 C5.4242729,55.3855971 11.8927909,55.4784189 15.3871442,55.3875309 C14.9288366,55.859375 14.7780013,58.294013 15.1744276,58.8122679 C11.5524444,58.8702816 4.95629642,58.8644802 1.33237934,58.8296721 C0.369353342,58.5821472 -0.204981436,57.4199412 0.199180074,56.5052599 Z" id="Path"></path>
                <path d="M15.2904549,55.3894648 C17.2590501,55.4996906 23.1957766,55.3314511 25.1624381,55.4726176 C25.808323,55.6505259 26.3633199,56.1900526 26.4561417,56.8707456 C26.6224474,57.7293471 26.0249071,58.6498298 25.1682395,58.8374071 C23.2344524,58.8741491 17.3383354,58.856745 15.4045483,58.8180693 C15.7913057,58.3520266 15.7603651,55.9096535 15.2904549,55.3894648 Z" id="Path"></path>
            </g>
            <g id="#f79a7cff" transform="translate(0.000000, 23.592203)" fill="#F79A7C" fill-rule="nonzero">
                <path d="M1.53736077,0.759978342 C2.70730198,-0.16823948 4.48251856,-0.193378713 5.69113552,0.672957921 C6.36796101,1.16413985 6.82820235,1.88544245 7.23623144,2.60094368 C7.28844368,8.54540532 7.28457611,14.4918007 7.24009901,20.4362624 C6.74311572,21.4031559 6.07982673,22.3874536 5.04138304,22.8225556 C3.9217203,23.2750619 2.54099629,23.1571009 1.58377165,22.393255 C0.926284035,21.8711324 0.475711634,21.1420947 0.0792852723,20.4130569 C0.0425433168,14.4782643 0.0483446782,8.54347153 0.0773514851,2.60867884 C0.514387376,1.95892636 0.92241646,1.26082921 1.53736077,0.759978342 Z" id="Path"></path>
            </g>
            <g id="#d8d4c9ff" transform="translate(13.923267, 46.581064)" fill="#D8D4C9" fill-rule="nonzero">
                <path d="M0.145034035,3.30677599 C0.0734839109,2.2683323 0.858601485,1.22988861 1.92411819,1.16413985 C3.7109375,1.06358292 10.5256034,1.01910581 12.3143564,0.943688119 C12.3143564,12.3298267 12.3143564,23.7159653 12.3143564,34.112005 C12.3143564,43.5179455 1.08485458,40.0235922 0.928217822,39.5575495 C0.845064975,38.9116646 0.145034035,34.7211479 0.14116646,34.0694617 C0.146967822,23.8145885 0.135365099,13.5597153 0.145034035,3.30677599 Z" id="Path"></path>
            </g>
            <g id="#b5b1a4ff" transform="translate(14.696782, 27.459777)" fill="#B5B1A4" fill-rule="nonzero">
                <path d="M20.1365253,0.183709777 C21.5404549,0.199180074 22.946318,0.1953125 24.3521813,0.185643564 C24.9323174,0.607209158 25.6110767,1.13706683 25.535659,1.94538985 C25.5840037,2.734375 24.9129796,3.24102723 24.3599164,3.67419554 C23.0081992,3.67226176 21.6545482,3.69159963 20.3028311,3.67032797 C19.6028001,3.3647896 18.9201733,2.76144802 18.9627165,1.92991955 C18.8989016,1.13319926 19.5718595,0.611076733 20.1365253,0.183709777 Z" id="Path"></path>
                <path d="M20.0030941,14.7934715 C21.494044,14.7393255 22.9869276,14.7335242 24.4798113,14.7954053 C24.9671256,15.3039913 25.6188119,15.8493193 25.5375928,16.6344369 C25.5414604,17.2977258 25.0019338,17.7521658 24.609375,18.2162748 C27.5003867,18.2723546 30.3933323,18.2549505 33.2843441,18.2394802 C31.7353806,18.4077197 30.1748144,18.2858911 28.6219833,18.3245668 C25.2011139,18.2704208 21.7744431,18.5005415 18.359375,18.2820236 L18.1427908,18.2240099 C18.7229269,18.2472153 19.3030631,18.2278774 19.8831992,18.2182085 C19.4964418,17.7482982 18.958849,17.2880569 18.9627165,16.6286355 C18.8931002,15.8531869 19.53125,15.3097927 20.0030941,14.7934715 Z" id="Path"></path>
                <path d="M6.5207302,20.231281 C8.19732363,20.1752011 9.87585086,20.2119431 11.5524443,20.2042079 C11.5311727,27.3282797 11.5969214,34.4523515 11.5079672,41.5744895 C11.5814511,45.5716275 11.546643,49.5687654 11.5485767,53.5659035 C11.5582456,55.1767481 10.9239635,56.7817915 9.77529393,57.9188583 C8.83547339,58.9050897 7.53016708,59.4136757 6.23646349,59.7540223 C3.77862005,59.9880105 1.19314665,58.748453 0.0618811881,56.5110613 C1.58183787,54.6720297 2.77691832,52.5854734 3.87337561,50.4737778 C8.59955136,41.2264078 9.51616646,30.1632117 6.5207302,20.231281 Z" id="Path"></path>
                <path d="M18.1834004,29.5115253 C21.5887995,29.2388614 25.0096689,29.4941213 28.4228032,29.441909 C30.0394492,29.4612469 31.6580291,29.3896968 33.2727413,29.5076578 C30.3933323,29.532797 27.5119895,29.4670483 24.6345143,29.5598701 C25.0174041,30.0201114 25.5453279,30.4784189 25.5375928,31.1339728 C25.6072091,31.9152228 24.9941986,32.5011603 24.4314665,32.9401299 C22.9791925,33.0600248 21.4998452,33.0522896 20.0475712,32.9401299 C19.5022432,32.4895575 18.9008353,31.9074876 18.9607828,31.1339728 C18.9569152,30.4784189 19.4887066,30.0201114 19.8696628,29.5521349 C19.3069307,29.532797 18.7441986,29.5018564 18.1834004,29.5115253 Z" id="Path"></path>
                <path d="M29.2407951,49.972927 C31.5187964,49.9071782 33.7987314,49.9071782 36.0747989,49.9748608 C36.5447091,50.4950495 37.1867264,51.0423113 37.1113088,51.8216275 C37.1113088,52.479115 36.5756497,52.9374227 36.1888923,53.4034653 C38.1226794,53.4421411 40.0584004,53.4595451 41.9921875,53.4228032 C41.0214263,53.5543008 40.0371287,53.505956 39.0605662,53.5020885 C32.8086325,53.6316522 26.5586324,53.4556776 20.3047649,53.5078899 C19.5892636,53.5078899 18.867961,53.5175588 18.1563273,53.4150681 C21.7802445,53.4498762 25.4060952,53.4556776 29.0280786,53.397664 C28.6316522,52.879409 28.0785891,52.3495514 28.1540068,51.6379177 C28.1675434,50.9146813 28.7824876,50.4447711 29.2407951,49.972927 Z" id="Path"></path>
            </g>
            <g id="#229bffff" transform="translate(62.654703, 52.212252)" fill="#4087D9" fill-rule="nonzero">
                <path d="M3.7554146,0.0425433168 C4.20405322,0.12762995 4.40903465,0.605275371 4.69716894,0.912747525 C5.48615408,2.02080754 6.61548576,2.79625619 7.63072401,3.67806312 C6.8804146,4.37422649 6.01987933,4.94662748 5.32758354,5.70467203 C4.81126238,6.2654703 4.35875619,6.8804146 3.85403775,7.4508818 C2.93162129,6.45498144 2.15423886,5.30631188 1.0229734,4.52119431 C0.738706683,4.22339109 0.133431312,4.03387995 0.20884901,3.55043317 C0.672957921,3.05925124 1.25889542,2.7053682 1.75394492,2.24706064 C2.52165842,1.60504332 3.03024444,0.723236386 3.7554146,0.0425433168 Z" id="Path"></path>
                <path d="M3.69353342,23.2189821 C3.7708849,23.2267172 3.92365409,23.2421875 4.00100556,23.2479889 C4.73971225,24.0601795 5.3488552,25 6.23066213,25.6768254 C6.6560953,26.0829208 7.28070853,26.3246442 7.53016708,26.8854425 C6.67930074,27.7672494 5.56930693,28.3899288 4.84607054,29.4090347 C4.47478342,29.7629177 4.2814047,30.4571473 3.69353342,30.4590811 C3.05151609,29.7745204 2.55066522,28.9642636 1.83709777,28.3473855 C1.27436571,27.7788521 0.502784653,27.4288366 0.0831528465,26.7268719 C0.961092203,26.0848546 1.83903155,25.4215655 2.55259901,24.5919709 C2.95289294,24.1530012 3.26229889,23.6328125 3.69353342,23.2189821 Z" id="Path"></path>
            </g>
            <g id="#7f392cff" transform="translate(13.923267, 82.572711)" fill="#7F392C" fill-rule="nonzero">
                <path d="M0.125696163,2.89874691 C0.0928217822,1.93572091 0.183709777,0.9765625 0.297803218,0.0212716584 C0.454439975,0.487314356 0.636215965,0.945621906 0.83539604,1.3981281 C1.9666615,3.6355198 4.5521349,4.87507735 7.00997834,4.64108911 C11.890857,4.596612 16.7717357,4.63335396 21.6526145,4.62175124 C26.5566986,4.65849319 31.4607828,4.55600248 36.3648669,4.60821472 C37.163521,4.63335396 37.9641089,4.63142017 38.7646967,4.62948639 C38.7743657,6.17844987 38.780167,7.72547957 38.762763,9.27444307 C27.9026145,9.29184715 17.0424659,9.27637686 6.18231745,9.28217822 C4.61401609,9.28991337 3.04571472,9.24350248 1.47934716,9.33052289 L1.3671875,9.33632426 C0.905012376,8.4583849 0.392558787,7.57464419 0.243657178,6.57681002 C0.059947401,5.36045792 0.158570545,4.12476794 0.125696163,2.89874691 Z" id="Path"></path>
            </g>
            <g id="#b55434ff" transform="translate(15.276919, 87.020421)" fill="#B55434" fill-rule="nonzero">
                <path d="M37.4110457,0.18177599 C39.8224783,0.179842203 42.2339109,0.183709777 44.6453435,0.179842203 C44.6453435,1.73267327 44.6472772,3.28550434 44.6499725,4.8383354 C44.6569461,5.62732054 44.5525217,6.42017327 44.339805,7.1820854 C42.5800588,7.10860149 40.8183787,7.14921102 39.0586324,7.14147586 C27.6512222,7.1356745 16.2438119,7.14921102 4.8383354,7.1356745 C3.01670792,7.15694616 1.28596845,6.2654703 0.125696163,4.8828125 C1.69206373,4.79579208 3.2603651,4.84220297 4.82866646,4.83446782 C15.688815,4.82866647 26.5489635,4.84413676 37.409112,4.82673267 C37.426516,3.27776918 37.4207148,1.73073948 37.4110457,0.18177599 Z" id="Path"></path>
            </g>
            <path d="M51.5169928,2.05864269 C52.0109823,1.88267221 52.5155724,1.74486399 53.0180423,1.60281552 C53.1516102,2.63319694 53.2364152,3.67205885 53.2554964,4.7130409 C53.2724574,5.95331482 53.2088537,7.19570886 53.266097,8.43598278 C53.2279348,9.04233892 54.0060212,9.04233892 54.4279263,9.02325778 C55.2780969,8.95753387 55.7911675,8.17732737 56.151589,7.49252655 C56.5353319,6.77592384 56.8575911,5.90455191 57.6568787,5.55261093 C58.6915004,5.07982276 59.925414,5.74766256 60.3324782,6.75260246 C60.8667501,7.99075625 60.6928997,9.81194479 59.3190578,10.4183009 C58.282316,10.7235991 57.3112981,10.1766065 56.4314457,9.69745797 C55.7954078,10.1978078 55.0470032,10.636674 54.2053131,10.5688299 C53.1282888,10.6387941 51.8646936,10.0218373 51.7480866,8.84092692 C51.6187589,6.79076473 51.8413722,4.72364152 51.5890771,2.67559947 C51.5721161,2.52083024 51.536074,2.21341192 51.5169928,2.05864269 M57.3282592,8.39146013 C57.8773719,8.71583947 58.4816079,8.92149172 59.102805,9.05929993 C59.7791252,8.27485318 59.1134055,7.07486166 58.2229525,6.82468675 C57.8667713,7.31231581 57.5805542,7.84446753 57.3282592,8.39146013 M66.0250175,3.16322852 C66.3663578,2.81764793 66.7119384,2.47206734 67.057519,2.12860686 C67.4030996,2.47418747 67.7465601,2.81976806 68.0900206,3.16534865 C67.74444,3.51304938 67.3988594,3.85650985 67.0469184,4.19785019 C66.705578,3.85226959 66.3663578,3.50880913 66.0250175,3.16322852 M68.2023872,3.15898828 C68.5437276,2.8155278 68.8850679,2.47418747 69.2348888,2.1392075 C69.5868298,2.48690822 69.9387708,2.8388492 70.2885916,3.19079017 C69.9451311,3.53637077 69.6016707,3.87983124 69.2560901,4.22329171 C68.8999088,3.87347086 68.5479678,3.51728963 68.2023872,3.15898828 M45.4894736,5.80278584 C45.8647359,5.39784171 46.2569593,5.00773847 46.6619035,4.6324761 C47.0477664,5.01409884 47.4315093,5.39784171 47.8131321,5.78370471 C47.4336294,6.17804821 47.0435262,6.56603134 46.6470626,6.94341383 C46.2611996,6.56391121 45.8753365,6.18228847 45.4894736,5.80278584 M68.4546823,5.70526003 C68.9295906,5.48052664 69.4023788,5.25579325 69.8772871,5.03105985 C70.4857634,6.42186274 71.2066063,8.23669091 70.2143871,9.61477304 C69.3642165,10.7299595 67.8334852,10.5497488 66.5974516,10.5624695 C66.1585854,12.2882524 64.7783832,13.6493735 63.1162042,14.228168 C62.6116141,14.4083787 62.090063,14.5271058 61.5685119,14.630992 C61.7868849,14.2875316 62.0200988,13.9525516 62.2469523,13.6112112 C62.4335235,13.3143936 62.6052537,13.0090953 62.7748638,12.701677 C63.7628427,12.2267687 64.7635423,11.6310132 65.2342104,10.5900312 C64.2292705,10.5476286 63.0928828,10.6006318 62.2872348,9.88826934 C61.5897132,9.30735472 61.5557911,8.28757394 61.7444824,7.46920517 C61.9586151,6.5872326 62.4674454,5.654377 63.3790998,5.35119893 C64.2080692,5.05650137 65.0900418,5.51656879 65.6179533,6.15048656 C66.3260754,6.93917357 66.5656497,8.00347701 66.7034579,9.02325778 C67.3988594,9.01265716 68.1239426,9.06778044 68.785422,8.80488477 C69.003795,8.69039795 69.3366549,8.54410923 69.3090933,8.24729153 C69.2984926,7.33351708 68.8045032,6.52362881 68.4546823,5.70526003 M63.6886382,6.88193016 C63.198889,7.21054975 62.7791041,7.90383107 63.0335192,8.49110607 C63.5677911,9.17590688 64.5494095,8.97873513 65.3084148,9.02537791 C65.162126,8.28333368 64.8568278,7.54976997 64.2992347,7.0218585 C64.1444654,6.88405029 63.8836899,6.70383954 63.6886382,6.88193016 M48.4979329,6.43670362 C48.9728412,6.18228847 49.4477495,5.92575318 49.9226578,5.67345814 C50.4442089,6.95401446 50.9509191,8.30029469 50.9233574,9.70593848 C50.8788348,11.1412641 50.0117031,12.5596285 48.667543,13.1235822 C47.4739119,13.6472534 46.1021901,13.6154515 44.8619161,13.2804715 C43.6237624,12.9666928 42.7057476,11.8409057 42.4704137,10.6112325 C42.1629953,9.02961817 42.610342,7.39288061 43.4477919,6.04448025 C43.8484957,6.32645706 44.2491996,6.61267412 44.6477834,6.9010113 C44.0626285,7.9631946 43.4668731,9.24375093 43.9142197,10.4628236 C44.5417771,11.8875485 46.4138487,12.2458499 47.7601289,11.7306591 C48.7035851,11.4105201 49.5813174,10.5412682 49.5007527,9.48120508 C49.4011067,8.40418089 48.9113575,7.41832213 48.4979329,6.43670362" id="Fill-5" fill="#FFFFFF" fill-rule="nonzero"></path>
            <g id="Group-2" transform="translate(33.000000, 5.000000)" stroke="#64A4EE" stroke-linecap="round" stroke-linejoin="round" stroke-width="2">
                <line x1="0" y1="3" x2="6" y2="3" id="Line-6"></line>
                <line x1="3" y1="0" x2="3" y2="6" id="Line-6-Copy"></line>
            </g>
        </g>
    </g>
</svg>