<?xml version="1.0" encoding="UTF-8" standalone="no"?>
<svg width="130px" height="115px" viewBox="0 0 130 115" version="1.1" xmlns="http://www.w3.org/2000/svg" xmlns:xlink="http://www.w3.org/1999/xlink">
    <!-- Generator: Sketch 43 (38999) - http://www.bohemiancoding.com/sketch -->
    <title>picture</title>
    <desc>Created with Sketch.</desc>
    <defs></defs>
    <g id="لاگین" stroke="none" stroke-width="1" fill="none" fill-rule="evenodd">
        <g id="صفحه-اول" transform="translate(-687.000000, -1505.000000)" fill-rule="nonzero">
            <g id="picture" transform="translate(687.000000, 1505.000000)">
                <path d="M4.32508523,30.1071474 L101.005199,4.25278846 C104.055398,3.435625 107.188324,5.22291667 107.997869,8.24240385 L127.082756,79.3267788 C127.893778,82.348109 126.07858,85.4564263 123.024688,86.2735897 L26.3464205,112.127949 C23.294375,112.945112 20.1632955,111.157821 19.35375,108.138333 L0.268863636,37.0521154 C-0.542159091,34.0326282 1.27488636,30.9224679 4.32508523,30.1071474 Z M20.2958807,29.8657212 L120.387386,29.8657212 C123.545057,29.8657212 126.10554,32.4001442 126.10554,35.5272596 L126.10554,109.119888 C126.10554,112.24516 123.545426,114.781426 120.387386,114.781426 L20.2958807,114.781426 C17.1359943,114.781426 14.5777273,112.24516 14.5777273,109.119888 L14.5777273,35.5272596 C14.5777273,32.4001442 17.1359943,29.8657212 20.2958807,29.8657212 L20.2958807,29.8657212 Z" id="Shape" fill="#CDCDCD"></path>
                <path d="M126.10517,75.6899038 L113.802813,29.8653526 L20.2958807,29.8653526 C17.1359943,29.8653526 14.5777273,32.3997756 14.5777273,35.526891 L14.5777273,90.3439263 L19.3541193,108.137965 C20.165142,111.159295 23.2947443,112.944744 26.3467898,112.12758 L123.025057,86.2750641 C124.314716,85.9300641 125.363949,85.1619231 126.10517,84.1785256 L126.10517,75.6899038 Z" id="Shape" fill="#A2A2A2"></path>
                <path d="M6.21599432,26.3327885 L102.896108,0.478429487 C105.946307,-0.338733974 109.079233,1.44855769 109.888778,4.46804487 L128.973665,75.5524199 C129.784687,78.57375 127.969489,81.6820673 124.915597,82.4992308 L28.2373295,108.35359 C25.1852841,109.170753 22.0542045,107.383462 21.2446591,104.363974 L2.15977273,33.2777564 C1.34875,30.2582692 3.16579545,27.148109 6.21599432,26.3327885 Z" id="Shape" fill="#EDEDED"></path>
                <path d="M126.10517,82.0233814 L126.10517,64.8706891 L116.7075,29.8653526 L20.2958807,29.8653526 C17.1359943,29.8653526 14.5777273,32.3997756 14.5777273,35.526891 L14.5777273,79.5247115 L21.2450284,104.361763 C22.0560511,107.383093 25.1856534,109.168542 28.2376989,108.351378 L124.915966,82.4988622 C125.339574,82.3875481 125.732898,82.2198397 126.10517,82.0233814 L126.10517,82.0233814 Z" id="Shape" fill="#D5D5D5"></path>
                <path d="M14.1352841,31.9847436 L98.8121875,9.34043269 C101.149233,8.71567308 103.552756,10.0953045 104.176534,12.4240545 L120.026193,71.4551763 C120.650341,73.7820833 119.26429,76.1768109 116.923182,76.8034135 L32.248125,99.4458814 C29.9110795,100.072484 27.5075568,98.6910096 26.8815625,96.3622596 L11.0341193,37.3311378 C10.4099716,35.0060737 11.7978693,32.6095032 14.1352841,31.9847436 Z" id="Shape" fill="#B9EBFF"></path>
                <path d="M108.860227,29.8657212 L22.0619602,29.8657212 L16.4420455,31.3699359 C15.3038068,32.4041987 14.5777273,33.8759776 14.5777273,35.5272596 L14.5777273,50.5266506 L26.8837784,96.3644712 C27.5097727,98.6913782 29.9129261,100.074696 32.2503409,99.4480929 L116.925398,76.805625 C119.26429,76.1790224 120.652557,73.7842949 120.028409,71.4573878 L108.860227,29.8657212 Z" id="Shape" fill-opacity="0.676941803" fill="#929292"></path>
                <path d="M124.169205,26.0913622 C127.326875,26.0913622 129.887358,28.6257853 129.887358,31.7529006 L129.887358,105.345529 C129.887358,108.470801 127.327244,111.007067 124.169205,111.007067 L24.0776989,111.007067 C20.9178125,111.007067 18.3595455,108.470801 18.3595455,105.345529 L18.3595455,31.7529006 C18.3595455,28.6257853 20.9178125,26.0913622 24.0776989,26.0913622 L124.169205,26.0913622 Z" id="Shape" fill="#F6F6F6"></path>
                <path d="M30.2626705,33.5984295 L117.925142,33.5984295 C120.345653,33.5984295 122.30821,35.5534295 122.30821,37.9636378 L122.30821,99.0761859 C122.30821,101.486026 120.345284,103.439183 117.925142,103.439183 L30.2626705,103.439183 C27.8421591,103.439183 25.8796023,101.486026 25.8796023,99.0761859 L25.8796023,37.9632692 C25.8777557,35.5515865 27.8403125,33.5984295 30.2626705,33.5984295 L30.2626705,33.5984295 Z" id="Shape" fill="#A3E0F5"></path>
                <path d="M33.4698295,82.6614103 C30.8432386,82.6614103 28.3097159,82.8803526 25.8777557,83.2522596 L25.8777557,99.0743429 C25.8777557,101.484183 27.8406818,103.43734 30.2608239,103.43734 L63.3177557,103.43734 C63.5655682,102.512548 63.7317614,101.570801 63.7317614,100.602885 C63.733608,90.6970353 50.1833239,82.6614103 33.4698295,82.6614103 L33.4698295,82.6614103 Z" id="Shape" fill="#3DB39E"></path>
                <path d="M122.30821,99.0758173 L122.30821,75.5804327 C116.450085,74.0762179 110.022841,73.2461538 103.276136,73.2461538 C76.0451989,73.2461538 53.9669886,86.7660256 53.9669886,103.441026 L117.925142,103.441026 C120.345653,103.439183 122.30821,101.486026 122.30821,99.0758173 Z" id="Shape" fill="#4BC2AD"></path>
                <path d="M25.8777557,37.9632692 L25.8777557,59.8243269 C26.8080682,59.935641 27.747983,60.009359 28.7085795,60.009359 C41.761392,60.009359 52.3430966,49.4544231 52.3430966,36.4328846 C52.3430966,35.4723397 52.2673864,34.52875 52.1558523,33.5984295 L30.2630398,33.5984295 C27.8403125,33.5984295 25.8777557,35.5515865 25.8777557,37.9632692 Z" id="Shape" fill="#EFC75E"></path>
                <g id="background" transform="translate(25.852273, 32.067308)">
                    <g id="Group" fill="#B9EBFF">
                        <path d="M6.68554459,47.8112103 C6.68554459,46.9035581 7.43399992,46.1675685 8.35702541,46.1675685 L10.0285062,46.1675685 L15.6134258,40.6756673 C12.0756347,35.1197184 10.0285062,28.5525985 10.0285062,21.514244 C10.0285062,13.5192707 12.6722406,6.13461206 17.1398732,0.14783095 L5.01425311,0.14783095 C2.24498732,0.14783095 0,2.35524121 0,5.07838412 L0,56.028861 L6.68554459,49.454666 L6.68554459,47.8112103 Z" id="Shape"></path>
                        <path d="M91.9270901,0.14783095 L76.4586977,0.14783095 C80.9263304,6.13442587 83.5700647,13.5192707 83.5700647,21.514244 C83.5700647,23.5814569 83.3909505,25.6071506 83.0524131,27.5794091 L96.9413433,41.2368291 L96.9413433,5.07838412 C96.9413433,2.35524121 94.6963559,0.14783095 91.9270901,0.14783095 Z" id="Shape"></path>
                    </g>
                    <g id="Group" transform="translate(9.845605, 0.000000)" fill="#D2F5F0">
                        <path d="M34.4465538,46.9893894 L36.9535856,44.5241128 C34.9802992,44.5241128 33.0645716,44.2826308 31.2340464,43.8305734 L34.4465538,46.9893894 Z" id="Shape"></path>
                        <path d="M5.76782059,40.6756673 L12.1695467,34.3805637 C13.3423097,33.2273333 14.8422498,32.5937455 16.3757028,32.4766351 C14.5762291,29.2176515 13.5541796,25.4833375 13.5541796,21.5140579 C13.5541796,11.8141878 19.6662177,3.53267562 28.3030855,0.147644765 L7.29426806,0.147644765 C2.82663538,6.13423969 0.18290105,13.5190845 0.18290105,21.5140579 C0.18290105,28.5524123 2.23002957,35.1197184 5.76782059,40.6756673 Z" id="Shape"></path>
                        <path d="M60.3533704,21.5140579 C60.3533704,21.6207419 60.3507196,21.726495 60.3492049,21.8326205 C62.9066009,20.376467 66.2347941,20.7233298 68.4235479,22.8756293 L73.2066186,27.5790367 C73.5455346,25.6067782 73.7242702,23.5810846 73.7242702,21.5138717 C73.7242702,13.5188983 71.0805359,6.13423969 66.6129032,0.14745858 L45.6044645,0.14745858 C54.241143,3.53267562 60.3533704,11.8141878 60.3533704,21.5140579 Z" id="Shape"></path>
                    </g>
                    <path d="M23.3995954,21.5140579 C23.3995954,25.4833375 24.421645,29.2176515 26.2209293,32.4766351 C28.1012506,32.3329002 30.0317465,32.966488 31.4697729,34.3805637 L41.0794622,43.830201 C42.9103661,44.2826308 44.8259043,44.5239266 46.7991908,44.5239266 L68.8143427,22.8754431 C69.2365677,22.4602504 69.7015832,22.1133876 70.1949994,21.8324343 C70.1965142,21.7263088 70.1991649,21.6203695 70.1991649,21.5138717 C70.1991649,11.8140016 64.0871268,3.53248944 55.450259,0.14745858 L38.1485013,0.14745858 C29.5118228,3.53267562 23.3995954,11.8141878 23.3995954,21.5140579 Z M46.7991908,8.36566782 C54.1837734,8.36566782 60.1704693,14.2524675 60.1704693,21.514244 C60.1704693,28.7760205 54.1839627,34.6628203 46.7991908,34.6628203 C39.4144189,34.6628203 33.4279123,28.7760205 33.4279123,21.514244 C33.4279123,14.2524675 39.4146083,8.36566782 46.7991908,8.36566782 Z" id="Shape" fill="#FCFFDC"></path>
                    <path d="M46.7991908,34.6626341 C54.1837734,34.6626341 60.1704693,28.7758344 60.1704693,21.5140579 C60.1704693,14.2522814 54.1839627,8.36548163 46.7991908,8.36548163 C39.4144189,8.36548163 33.4279123,14.2522814 33.4279123,21.5140579 C33.4279123,28.7758344 39.4146083,34.6626341 46.7991908,34.6626341 Z M46.7991908,14.9398628 C50.4914821,14.9398628 53.4847354,17.8832627 53.4847354,21.5140579 C53.4847354,25.144853 50.4914821,28.0882529 46.7991908,28.0882529 C43.1068995,28.0882529 40.1136462,25.144853 40.1136462,21.5140579 C40.1136462,17.8832627 43.1068995,14.9398628 46.7991908,14.9398628 Z" id="Shape" fill="#FFF5A5"></path>
                    <ellipse id="Oval" fill="#FFDC69" cx="46.7991908" cy="21.5140579" rx="6.68554459" ry="6.57419502"></ellipse>
                    <path d="M78.269153,22.8756293 C76.0803993,20.7233298 72.7522061,20.376467 70.1948101,21.8326205 C69.7015832,22.1133876 69.2363783,22.4604366 68.8141533,22.8756293 L46.7991908,44.5239266 L44.2921589,46.9892032 L70.1989756,72.4645347 L91.9272795,72.4645347 C94.6965453,72.4645347 96.9415326,70.2569383 96.9415326,67.5337954 L96.9415326,41.2368291 L83.0526024,27.5792229 L78.269153,22.8756293 Z" id="Shape" fill="#B4EBBE"></path>
                    <path d="M44.2921589,46.9893894 L41.0796516,43.8303872 L31.4699622,34.3807499 C30.0317465,32.966488 28.1014399,32.3330864 26.2211186,32.4768213 C24.687855,32.5941179 23.1877256,33.2275195 22.0149625,34.3807499 L15.6134258,40.6758535 L10.0285062,46.1675685 L35.0995824,46.1675685 C36.0226079,46.1675685 36.7710633,46.9035581 36.7710633,47.8112103 L36.7710633,51.0983078 C36.7710633,52.0059601 36.0226079,52.7419497 35.0995824,52.7419497 L8.35702541,52.7419497 C7.43399992,52.7419497 6.68554459,52.0059601 6.68554459,51.0983078 L6.68554459,49.454666 L0,56.0290472 L0,67.5339815 C0,67.9594144 0.0547188441,68.3723729 0.15790836,68.7661544 C0.260908537,69.1599358 0.412190047,69.5347264 0.605126041,69.8841958 C0.682186835,70.0238346 0.766253157,70.1595635 0.856188973,70.290824 C1.21650025,70.8153073 1.67697164,71.2681094 2.2105277,71.6226058 C2.34382205,71.7112299 2.48184986,71.7937099 2.62404312,71.8694872 C2.97924226,72.059396 3.36057012,72.2081579 3.76102118,72.3092564 C4.16147223,72.4107272 4.58142516,72.4645347 5.01406377,72.4645347 L41.3072365,72.4645347 L70.1985969,72.4645347 L44.2921589,46.9893894 Z M23.3995954,64.246884 C23.3995954,65.1545363 22.6511401,65.8905259 21.7281146,65.8905259 L8.35702541,65.8905259 C7.43399992,65.8905259 6.68554459,65.1545363 6.68554459,64.246884 L6.68554459,64.246884 C6.68554459,63.3392318 7.43399992,62.6032422 8.35702541,62.6032422 L21.7283039,62.6032422 C22.6513294,62.6032422 23.3995954,63.3390456 23.3995954,64.246884 L23.3995954,64.246884 Z M35.0993931,59.3161447 L8.35702541,59.3161447 C7.43399992,59.3161447 6.68554459,58.5801551 6.68554459,57.6725028 C6.68554459,56.7648506 7.43399992,56.028861 8.35702541,56.028861 L35.0993931,56.028861 C36.0224186,56.028861 36.7708739,56.7648506 36.7708739,57.6725028 C36.7708739,58.5801551 36.0224186,59.3161447 35.0993931,59.3161447 Z" id="Shape" fill="#A0D778"></path>
                    <path d="M6.68554459,47.8112103 L6.68554459,49.4548522 L6.68554459,51.098494 C6.68554459,52.0061462 7.43399992,52.7421358 8.35702541,52.7421358 L35.0993931,52.7421358 C36.0224186,52.7421358 36.7708739,52.0061462 36.7708739,51.098494 L36.7708739,47.8113965 C36.7708739,46.9037442 36.0224186,46.1677546 35.0993931,46.1677546 L10.0285062,46.1677546 L8.35702541,46.1677546 C7.43399992,46.1675685 6.68554459,46.9035581 6.68554459,47.8112103 Z" id="Shape" fill="#FFF5A5"></path>
                    <g id="Group" transform="translate(6.626850, 55.855523)" fill="#73B96E">
                        <path d="M28.4725435,0.17352449 L1.73017577,0.17352449 C0.807150286,0.17352449 0.0586949539,0.909514094 0.0586949539,1.81716634 C0.0586949539,2.72481858 0.807150286,3.46080819 1.73017577,3.46080819 L28.4725435,3.46080819 C29.395569,3.46080819 30.1440243,2.72481858 30.1440243,1.81716634 C30.1440243,0.909514094 29.395569,0.17352449 28.4725435,0.17352449 Z" id="Shape"></path>
                        <path d="M15.1014543,6.74771951 L1.73017577,6.74771951 C0.807150286,6.74771951 0.0586949539,7.48370911 0.0586949539,8.39136136 L0.0586949539,8.39136136 C0.0586949539,9.2990136 0.807150286,10.0350032 1.73017577,10.0350032 L15.1014543,10.0350032 C16.0244798,10.0350032 16.7729351,9.2990136 16.7729351,8.39136136 L16.7729351,8.39136136 C16.7727458,7.48352293 16.0244798,6.74771951 15.1014543,6.74771951 Z" id="Shape"></path>
                    </g>
                </g>
            </g>
        </g>
    </g>
</svg>