<?xml version="1.0" encoding="UTF-8" standalone="no"?>
<svg width="99px" height="115px" viewBox="0 0 99 115" version="1.1" xmlns="http://www.w3.org/2000/svg" xmlns:xlink="http://www.w3.org/1999/xlink">
    <!-- Generator: Sketch 43 (38999) - http://www.bohemiancoding.com/sketch -->
    <title>podium</title>
    <desc>Created with Sketch.</desc>
    <defs></defs>
    <g id="لاگین" stroke="none" stroke-width="1" fill="none" fill-rule="evenodd">
        <g id="صفحه-اول" transform="translate(-100.000000, -1202.000000)">
            <g id="podium" transform="translate(100.000000, 1202.000000)">
                <path d="M68.6938776,70.6140351 L68.6938776,54.7864035 C68.6938776,52.3855263 66.7401429,50.4385965 64.3358571,50.4385965 L34.660102,50.4385965 C32.2558163,50.4385965 30.3061224,52.3855263 30.3061224,54.7884211 L30.3061224,80.3890351 C30.3061224,82.7899123 28.3564286,84.7368421 25.9501224,84.7368421 L4.35397959,84.7368421 C1.94969388,84.7368421 0,86.6837719 0,89.0866667 L0,112.482105 C0,113.86614 1.12334694,114.987895 2.50934694,114.987895 L32.3204694,114.987895 L66.6613469,114.987895 L96.4886327,115 C97.8746327,115 99,113.878246 99,112.492193 L99,79.0090351 C99,76.6081579 97.0523265,74.6592105 94.6460204,74.6592105 L73.0478571,74.6511404 C70.6435714,74.6491228 68.6938776,73.0149123 68.6938776,70.6140351 Z" id="Shape" fill="#546A79" fill-rule="nonzero"></path>
                <ellipse id="Oval" fill="#7FB1EB" fill-rule="nonzero" cx="49.5" cy="67.5877193" rx="9.09183673" ry="9.07894737"></ellipse>
                <ellipse id="Oval" fill="#477EBD" fill-rule="nonzero" cx="81.8265306" cy="93.8157895" rx="9.09183673" ry="9.07894737"></ellipse>
                <ellipse id="Oval" fill="#1C3D63" fill-rule="nonzero" cx="17.1734694" cy="99.8684211" rx="9.09183673" ry="9.07894737"></ellipse>
                <path d="M62.3073673,29.4783333 C64.1944286,26.3249123 65.4511224,22.8466667 66.2148367,19.2534211 C67.1361429,14.9116667 68.4918367,7.7695614 68.6736735,2.43719298 C68.7181224,1.09754386 67.6129592,0 66.2714082,0 L50.4718163,0 L34.6722245,0 C33.3306735,0 32.2255102,1.09754386 32.2699592,2.43719298 C32.4497755,7.7695614 33.8074898,14.9116667 34.7287959,19.2534211 C35.4925102,22.8466667 36.7471837,26.3249123 38.6362653,29.4783333 C42.2527959,35.5188596 46.0915714,37.4476316 48.3948367,38.0589474 L48.0372245,38.7852632 C45.1702653,44.6058772 42.9538776,48.4210526 38.3877551,48.4210526 C37.2704694,48.4210526 36.3673469,49.3228947 36.3673469,50.4385965 C36.3673469,51.5542982 37.2704694,52.4561404 38.3877551,52.4561404 L62.6326531,52.4561404 C63.7499388,52.4561404 64.6530612,51.5542982 64.6530612,50.4385965 C64.6530612,49.3228947 63.7499388,48.4210526 62.6326531,48.4210526 C58.0665306,48.4210526 55.8501429,44.6058772 52.9872245,38.7852632 L52.6255714,38.0549123 C54.9086327,37.4355263 58.7029592,35.4986842 62.3073673,29.4783333 Z" id="Shape" fill="#F0C419" fill-rule="nonzero"></path>
                <path d="M67.8574286,10.305614 C67.3543469,13.6224561 66.7219592,16.8626316 66.2148367,19.2534211 C65.4511224,22.8466667 64.196449,26.3249123 62.3073673,29.4783333 C61.9113673,30.1380702 61.5153673,30.7372807 61.1173469,31.3042105 C62.5073878,31.925614 64.0408776,32.2807018 65.6632653,32.2807018 C71.8012653,32.2807018 76.7755102,27.3135088 76.7755102,21.1842105 C76.7755102,15.8054386 72.9427959,11.3244737 67.8574286,10.305614 Z" id="Shape" stroke="#F29C1F" stroke-width="2" stroke-linecap="round" stroke-linejoin="round"></path>
                <path d="M38.6322245,29.4783333 C36.7451633,26.3249123 35.4884694,22.8466667 34.7247551,19.2534211 C34.2176327,16.8666667 33.5852449,13.6325439 33.0841837,10.3217544 C28.0372041,11.3688596 24.244898,15.8336842 24.244898,21.1842105 C24.244898,27.3135088 29.2191429,32.2807018 35.3571429,32.2807018 C36.9552857,32.2807018 38.4726122,31.9377193 39.8444694,31.3304386 C39.4403878,30.7574561 39.0342857,30.1481579 38.6322245,29.4783333 Z" id="Shape" stroke="#F29C1F" stroke-width="2" stroke-linecap="round" stroke-linejoin="round"></path>
            </g>
        </g>
    </g>
</svg>