<?xml version="1.0" encoding="UTF-8" standalone="no"?>
<svg width="120px" height="128px" viewBox="0 0 120 128" version="1.1" xmlns="http://www.w3.org/2000/svg" xmlns:xlink="http://www.w3.org/1999/xlink">
    <!-- Generator: Sketch 43 (38999) - http://www.bohemiancoding.com/sketch -->
    <title>chatting</title>
    <desc>Created with Sketch.</desc>
    <defs></defs>
    <g id="لاگین" stroke="none" stroke-width="1" fill="none" fill-rule="evenodd">
        <g id="صفحه-اول" transform="translate(-393.000000, -592.000000)" fill-rule="nonzero">
            <g id="chatting" transform="translate(393.000000, 592.000000)">
                <path d="M57.7840167,8.82070753 L110.97113,8.82070753 C115.846695,8.82070753 119.835565,12.7901508 119.835565,17.6414151 L119.835565,48.5141412 C119.835565,53.3656552 115.846444,57.3348487 110.97113,57.3348487 L82.1613389,57.3348487 L82.1613389,65.6989079 C82.1613389,66.6814013 80.9676151,67.1730227 80.2699582,66.4785575 L71.0806695,57.3350985 L57.7837657,57.3350985 C52.9082008,57.3350985 48.9193305,53.3656552 48.9193305,48.514391 L48.9193305,17.6416649 C48.9195816,12.7901508 52.9084519,8.82070753 57.7840167,8.82070753 Z" id="Shape" fill="#C7CFE2"></path>
                <path d="M108.679331,26.4623724 L75.5131381,26.4623724 L75.5131381,22.0520186 L93.1669456,22.0520186 C94.347113,22.0520186 95.3771548,21.1657011 95.4537238,19.9941033 C95.5373222,18.7098423 94.516318,17.6416649 93.2422594,17.6416649 L75.5131381,17.6416649 L75.5131381,8.82070753 L71.0809205,8.82070753 L71.0809205,39.6934337 C71.0809205,44.5449477 67.0917992,48.5141412 62.2164854,48.5141412 L48.9195816,48.5141412 C48.9195816,50.1259 49.3915481,51.6207489 50.1584937,52.924495 L62.2164854,52.924495 C69.5482845,52.924495 75.5133891,46.9888158 75.5133891,39.6931839 L84.3092887,39.6931839 C85.4199163,39.6931839 86.4123013,38.9092875 86.5704603,37.8151301 C86.7670293,36.4519298 85.7111297,35.2828301 84.3778243,35.2828301 L75.5133891,35.2828301 L75.5133891,30.8724763 L108.755397,30.8724763 C110.029456,30.8724763 111.05046,29.8045487 110.966862,28.5200379 C110.890042,27.3486899 109.859749,26.4623724 108.679331,26.4623724 Z" id="Shape" fill="#AFB9D2"></path>
                <g id="Group" transform="translate(90.878661, 17.486534)" fill="#959CB3">
                    <path d="M17.8762343,4.5654843 L11.2277824,4.5654843 C10.0029289,4.5654843 9.01154812,3.57799473 9.01154812,2.36018252 C9.01154812,1.14237031 10.0026778,0.154880733 11.2277824,0.154880733 L17.8762343,0.154880733 C19.1010879,0.154880733 20.0924686,1.14237031 20.0924686,2.36018252 C20.0924686,3.57799473 19.1013389,4.5654843 17.8762343,4.5654843 Z" id="Shape"></path>
                    <path d="M17.8762343,22.2071492 L2.36334728,22.2071492 C1.13849372,22.2071492 0.147112971,21.2196596 0.147112971,20.0018474 C0.147112971,18.7840352 1.13824268,17.7965456 2.36334728,17.7965456 L17.8762343,17.7965456 C19.1010879,17.7965456 20.0924686,18.7840352 20.0924686,20.0018474 C20.0924686,21.2196596 19.1013389,22.2071492 17.8762343,22.2071492 Z" id="Shape"></path>
                </g>
                <path d="M108.754895,48.514391 L77.7291213,48.514391 C76.5042678,48.514391 75.512887,47.5269014 75.512887,46.3090892 C75.512887,45.091277 76.5040167,44.1037874 77.7291213,44.1037874 L108.754895,44.1037874 C109.979749,44.1037874 110.97113,45.091277 110.97113,46.3090892 C110.97113,47.5269014 109.98,48.514391 108.754895,48.514391 Z" id="Shape" fill="#AFB9D2"></path>
                <path d="M62.2162343,0 L9.02912134,0 C4.15355649,0 0.164686192,3.96944329 0.164686192,8.82070753 L0.164686192,39.6934337 C0.164686192,44.5449477 4.15380753,48.5141412 9.02912134,48.5141412 L37.8389121,48.5141412 L37.8389121,56.8782004 C37.8389121,57.8606938 39.032636,58.3523152 39.7302929,57.65785 L48.9195816,48.514391 L62.2164854,48.514391 C67.0920502,48.514391 71.0809205,44.5449477 71.0809205,39.6936835 L71.0809205,8.82070753 C71.0806695,3.96944329 67.0917992,0 62.2162343,0 Z" id="Shape" fill="#E4EAF6"></path>
                <path d="M17.8935565,13.2313111 L11.2453556,13.2313111 C10.0205021,13.2313111 9.02912134,12.2438215 9.02912134,11.0260093 C9.02912134,9.8081971 10.020251,8.82070753 11.2453556,8.82070753 L17.8938075,8.82070753 C19.1186611,8.82070753 20.1100418,9.8081971 20.1100418,11.0260093 C20.1100418,12.2438215 19.1186611,13.2313111 17.8935565,13.2313111 Z" id="Shape" fill="#AFB9D2"></path>
                <g id="Group" transform="translate(8.786611, 8.743267)" fill="#C7CFE2">
                    <path d="M51.2136402,4.48804394 L17.9716318,4.48804394 C16.7467782,4.48804394 15.7553975,3.50055436 15.7553975,2.28274215 C15.7553975,1.06492994 16.7465272,0.0774403663 17.9716318,0.0774403663 L51.2136402,0.0774403663 C52.4384937,0.0774403663 53.4298745,1.06492994 53.4298745,2.28274215 C53.4298745,3.50055436 52.4384937,4.48804394 51.2136402,4.48804394 Z" id="Shape"></path>
                    <path d="M51.2136402,13.3087515 L2.45874477,13.3087515 C1.23389121,13.3087515 0.24251046,12.3212619 0.24251046,11.1034497 C0.24251046,9.88563747 1.23364017,8.89814789 2.45874477,8.89814789 L51.2136402,8.89814789 C52.4384937,8.89814789 53.4298745,9.88563747 53.4298745,11.1034497 C53.4296234,12.3212619 52.4384937,13.3087515 51.2136402,13.3087515 Z" id="Shape"></path>
                </g>
                <path d="M60.000251,30.8727261 L53.3517992,30.8727261 C52.1269456,30.8727261 51.1355649,29.8852366 51.1355649,28.6674244 C51.1355649,27.4496121 52.1266946,26.4621226 53.3517992,26.4621226 L60.000251,26.4621226 C61.2251046,26.4621226 62.2164854,27.4496121 62.2164854,28.6674244 C62.2162343,29.8854864 61.2251046,30.8727261 60.000251,30.8727261 Z" id="Shape" fill="#AFB9D2"></path>
                <g id="Group" transform="translate(8.786611, 26.229801)" fill="#C7CFE2">
                    <path d="M35.7005021,4.64292467 L2.45874477,4.64292467 C1.23389121,4.64292467 0.24251046,3.6554351 0.24251046,2.43762288 C0.24251046,1.21981067 1.23364017,0.232321099 2.45874477,0.232321099 L35.7007531,0.232321099 C36.9256067,0.232321099 37.9169874,1.21981067 37.9169874,2.43762288 C37.9167364,3.6556849 36.9256067,4.64292467 35.7005021,4.64292467 Z" id="Shape"></path>
                    <path d="M51.2136402,13.463882 L2.45874477,13.463882 C1.23389121,13.463882 0.24251046,12.4763924 0.24251046,11.2585802 C0.24251046,10.040768 1.23364017,9.05327843 2.45874477,9.05327843 L51.2136402,9.05327843 C52.4384937,9.05327843 53.4298745,10.040768 53.4298745,11.2585802 C53.4296234,12.4763924 52.4384937,13.463882 51.2136402,13.463882 Z" id="Shape"></path>
                </g>
                <polygon id="Shape" fill="#E6AF78" points="38.1798326 110.599332 38.1798326 103.474818 19.7688703 103.474818 19.7688703 110.599332 28.9742259 118.741312"></polygon>
                <path d="M52.4133891,113.931766 L39.7569038,110.968548 C39.5658577,110.923832 39.3898745,110.84789 39.2256904,110.755711 L28.974477,116.70563 L19.1226778,110.467433 C18.8676151,110.706499 18.5512971,110.883863 18.1915481,110.968048 L5.53506276,113.931266 C3.68686192,114.364433 2.38066946,116.005419 2.38066946,117.894464 L2.38066946,125.865826 C2.38066946,126.98996 3.29648536,127.901508 4.42644351,127.901508 L53.5222594,127.901508 C54.6519665,127.901508 55.5680335,126.99021 55.5680335,125.865826 L55.5680335,117.894464 C55.5677824,116.005669 54.261841,114.364433 52.4133891,113.931766 Z" id="Shape" fill="#EFF2FA"></path>
                <path d="M19.7688703,103.474818 L19.7688703,110.99178 C31.3654393,115.149078 38.1798326,104.744091 38.1798326,104.744091 L38.1798326,103.474818 L19.7688703,103.474818 L19.7688703,103.474818 Z" id="Shape" fill="#D29B6E"></path>
                <path d="M15.6775732,80.0655947 L16.5690377,99.5778191 C16.6523849,101.400665 17.5506276,103.090864 19.0174895,104.185771 L23.2466109,107.34184 C24.3090377,108.13473 25.6009205,108.56315 26.9287029,108.56315 L31.02,108.56315 C32.3477824,108.56315 33.6399163,108.13448 34.7020921,107.34184 L38.9312134,104.185771 C40.3983264,103.090864 41.296318,101.400665 41.3796653,99.5778191 L42.2708787,80.0653449 L15.6775732,80.0653449 L15.6775732,80.0655947 Z" id="Shape" fill="#F0C087"></path>
                <path d="M25.9056904,84.1369595 C29.9969874,84.1369595 36.1340586,83.1192432 37.5896234,80.0658445 L15.6775732,80.0658445 L16.5687866,99.5783187 C16.6521339,101.401165 17.5503766,103.091363 19.0172385,104.18627 L23.2463598,107.34259 C24.3087866,108.135479 25.6006695,108.563899 26.9284519,108.563899 L28.9742259,108.563899 C26.9284519,108.563899 22.8371548,104.492784 22.8371548,99.4037032 L22.8371548,87.1901084 C22.8374059,86.1721423 23.8599163,84.1369595 25.9056904,84.1369595 Z" id="Shape" fill="#E6AF78"></path>
                <g id="Group" transform="translate(2.259414, 115.161319)" fill="#E4EAF6">
                    <path d="M45.7995816,6.13477585 L52.4274477,0.210338027 C52.9827615,0.910299015 53.3086192,1.79062111 53.3086192,2.73339512 L53.3086192,10.7047567 C53.3086192,11.828891 52.3928033,12.7404391 51.2628452,12.7404391 L44.1030126,12.7404391 L44.1030126,9.92086034 C44.1030126,8.4762228 44.7198326,7.09978274 45.7995816,6.13477585 Z" id="Shape"></path>
                    <path d="M7.63004184,6.13477585 L1.00217573,0.210338027 C0.446861925,0.910299015 0.121004184,1.79062111 0.121004184,2.73339512 L0.121004184,10.7047567 C0.121004184,11.828891 1.03682008,12.7404391 2.16677824,12.7404391 L9.32661088,12.7404391 L9.32661088,9.92086034 C9.32686192,8.4762228 8.71004184,7.09978274 7.63004184,6.13477585 Z" id="Shape"></path>
                </g>
                <polygon id="Shape" fill="#5B5D6E" points="31.5313808 127.901508 26.4170711 127.901508 27.0564854 118.741312 30.8922176 118.741312"></polygon>
                <path d="M31.5313808,116.70563 L26.4170711,116.70563 L26.4170711,117.293677 C26.4170711,118.655378 27.5261925,119.759028 28.8946444,119.759028 L29.0533054,119.759028 C30.4217573,119.759028 31.5308787,118.655378 31.5308787,117.293677 L31.5308787,116.70563 L31.5313808,116.70563 L31.5313808,116.70563 Z" id="Shape" fill="#515262"></path>
                <g id="Group" transform="translate(16.569038, 107.916898)" fill="#E4EAF6">
                    <path d="M3.05623431,0.416179517 L12.4051883,8.78873215 C12.4051883,8.78873215 9.78677824,10.1039693 6.5558159,12.7546781 C5.8892887,13.301507 4.88108787,13.0799277 4.52359833,12.2972804 L0.131297071,2.68168494 L1.52083682,0.607781971 C1.86677824,0.0916794014 2.5925523,0.000999230532 3.05623431,0.416179517 Z" id="Shape"></path>
                    <path d="M21.7543933,0.416179517 L12.4054393,8.78873215 C12.4054393,8.78873215 15.0238494,10.1039693 18.2548117,12.7546781 C18.9213389,13.301507 19.9295397,13.0799277 20.2870293,12.2972804 L24.6793305,2.68168494 L23.2897908,0.607781971 C22.9438494,0.0916794014 22.2180753,0.000999230532 21.7543933,0.416179517 Z" id="Shape"></path>
                </g>
                <path d="M35.1753138,73.322787 L36.1343096,80.0658445 C40.5115481,80.9369237 41.1421757,87.7721602 41.2330544,89.7246566 C41.2496234,90.0788838 41.3633473,90.4211203 41.5564017,90.7191408 L43.2266109,93.2969058 C43.2266109,93.2969058 42.654728,89.0346879 45.2723849,86.1723921 C45.2721339,86.1721423 46.1706276,69.2516721 35.1753138,73.322787 Z" id="Shape" fill="#785550"></path>
                <path d="M44.252636,92.8612413 L43.0975732,97.4587009 C42.9607531,98.0032816 42.4687029,98.3854873 41.9043515,98.3854873 L41.9043515,98.3854873 C41.2840167,98.3854873 40.7610879,97.926091 40.6840167,97.3138125 L40.0933054,92.6114336 C39.9353975,91.353902 40.9207531,90.2432573 42.1943096,90.2432573 L42.1985774,90.2432573 C43.5758159,90.2435071 44.5867782,91.5315152 44.252636,92.8612413 Z" id="Shape" fill="#F0C087"></path>
                <path d="M16.6576569,71.4994411 L18.1707113,72.5276494 C11.3307113,77.5530295 12.6090377,86.1723921 12.6090377,86.1723921 C14.6548117,88.2080745 14.6548117,93.2969058 14.6548117,93.2969058 L16.7005858,91.2612234 C16.7005858,91.2612234 15.911046,85.3810015 19.7691213,83.1189934 C23.3490377,81.0198598 26.48159,82.1012771 29.6776569,82.1012771 C38.2438494,82.1012771 40.6410879,78.8887509 40.2256067,74.9767634 C40.0107113,72.9523223 36.900251,68.7360691 28.974477,68.869966 C25.7756485,68.9239244 19.7688703,69.8876823 16.6576569,71.4994411 Z" id="Shape" fill="#694B4B"></path>
                <path d="M16.0611715,81.2104631 C16.0611715,81.2104631 14.9743933,76.9482452 18.1707113,72.5273995 C11.3307113,77.5527797 12.6090377,86.1721423 12.6090377,86.1721423 C14.6548117,88.2078247 14.6548117,93.296656 14.6548117,93.296656 L16.7005858,91.2609736 C16.7005858,91.2609736 15.911046,85.3807517 19.7691213,83.1187436 C23.3490377,81.01961 26.48159,82.1010273 29.6776569,82.1010273 C31.0707113,82.1010273 32.2850209,82.0080988 33.3660251,81.8489714 C26.7687866,82.0695515 22.8798326,77.0971306 16.0611715,81.2104631 Z" id="Shape" fill="#5A4146"></path>
                <path d="M13.6960669,92.8612413 L14.8511297,97.4587009 C14.9879498,98.0032816 15.48,98.3854873 16.0443515,98.3854873 L16.0443515,98.3854873 C16.6646862,98.3854873 17.1876151,97.926091 17.2646862,97.3138125 L17.8553975,92.6114336 C18.0133054,91.353902 17.0279498,90.2432573 15.7543933,90.2432573 L15.7501255,90.2432573 C14.372887,90.2435071 13.3619247,91.5315152 13.6960669,92.8612413 Z" id="Shape" fill="#E6AF78"></path>
                <path d="M41.2483682,125.865826 L36.1340586,125.865826 C35.0043515,125.865826 34.0882845,126.777124 34.0882845,127.901508 L34.0882845,127.901508 L43.2938912,127.901508 L43.2938912,127.901508 C43.2938912,126.777124 42.3780753,125.865826 41.2483682,125.865826 Z" id="Shape" fill="#E4EAF6"></path>
                <path d="M86.5938075,69.5284589 C65.9600837,69.5284589 68.2478661,94.4967318 68.3420084,112.590798 C68.345523,113.274022 68.705272,113.890298 69.2934728,114.243026 C71.58,115.61472 77.8594142,118.821251 86.5938075,118.821251 C95.3282008,118.821251 101.607615,115.61472 103.894142,114.243026 C104.482343,113.890298 104.842092,113.274022 104.845607,112.590798 C104.939749,94.4972315 107.227531,69.5284589 86.5938075,69.5284589 Z" id="Shape" fill="#694B4B"></path>
                <path d="M85.2642678,69.5801691 C66.0740586,70.6508446 68.2498745,94.8996716 68.3420084,112.590798 C68.345523,113.274022 68.705272,113.890298 69.2934728,114.243026 C71.58,115.61472 77.8594142,118.821251 86.5938075,118.821251 L91.8082845,82.5002199" id="Shape" fill="#5A4146"></path>
                <path d="M86.5938075,69.5284589 C74.8614226,69.5284589 74.0465272,83.635096 74.0465272,83.635096 C80.808954,82.4999701 84.9642678,85.337535 91.8082845,82.4999701 L86.5938075,118.821251 C95.3284519,118.821251 101.607615,115.61472 103.894142,114.243026 C104.482343,113.890298 104.842092,113.274022 104.845607,112.590798 C104.939749,94.4972315 107.227531,69.5284589 86.5938075,69.5284589 Z" id="Shape" fill="#694B4B"></path>
                <path d="M104.845356,112.590798 C104.926192,97.043021 106.612971,76.4341411 93.9979079,70.9378736 C93.7779916,72.0752477 93.3793305,75.2503027 94.4151464,77.3114655 C97.0225105,82.5002199 99.6296234,82.5002199 102.236736,86.3917232 C104.8441,100.660735 97.2552301,115.805573 94.734477,117.867235 L94.734477,117.867235 C99.2003347,116.810299 102.401423,115.138087 103.89364,114.243026 C104.482092,113.890298 104.841841,113.274272 104.845356,112.590798 Z" id="Shape" fill="#785550"></path>
                <path d="M106.348368,116.526268 L94.7161506,111.703482 C93.7446025,111.300792 93.1117155,110.356019 93.1117155,109.308576 L93.1117155,106.17399 L80.0756485,106.17399 L80.0756485,109.308576 C80.0756485,110.356019 79.4427615,111.300792 78.4712134,111.703482 L66.8389958,116.526268 C65.3816736,117.130552 64.4322176,118.547212 64.4322176,120.118502 L64.4322176,125.307256 C64.4322176,126.740152 65.5995816,127.901758 67.0395816,127.901758 L106.147531,127.901758 C107.587531,127.901758 108.754895,126.740152 108.754895,125.307256 L108.754895,120.118502 C108.754895,118.547212 107.80569,117.130552 106.348368,116.526268 Z" id="Shape" fill="#E6AF78"></path>
                <path d="M106.348368,116.526268 L95.1015063,111.863109 L86.5938075,115.516795 L78.0861088,111.863109 L66.8392469,116.526268 C65.3819247,117.130552 64.4324686,118.547212 64.4324686,120.118502 L64.4324686,125.307256 C64.4324686,126.740152 65.5998326,127.901758 67.0398326,127.901758 L106.147782,127.901758 C107.587782,127.901758 108.755146,126.740152 108.755146,125.307256 L108.755146,120.118502 C108.754895,118.547212 107.80569,117.130552 106.348368,116.526268 Z" id="Shape" fill="#B4E1FA"></path>
                <path d="M93.1117155,106.17374 L80.0756485,106.17374 L80.0756485,109.308326 C80.0756485,110.355769 79.4427615,111.300542 78.4712134,111.703232 L76.6546444,112.456652 C90.5573222,115.984185 93.1117155,106.17374 93.1117155,106.17374 Z" id="Shape" fill="#D29B6E"></path>
                <g id="Group" transform="translate(64.267782, 109.665551)" fill="#A0D2F0">
                    <path d="M6.51866109,11.8788526 L1.28610879,7.73729182 C0.584937238,8.45074242 0.164686192,9.4154995 0.164686192,10.4529506 L0.164686192,15.6417049 C0.164686192,17.0746015 1.33205021,18.236207 2.77205021,18.236207 L7.9865272,18.236207 L7.9865272,14.9180122 C7.98627615,13.7354229 7.44627615,12.6172839 6.51866109,11.8788526 Z" id="Shape"></path>
                    <path d="M44.487113,15.6414551 L44.487113,10.4527008 C44.487113,9.42324354 44.0738912,8.46498146 43.3827615,7.75327951 L38.1333891,11.8786028 C37.2057741,12.6170341 36.6657741,13.7351731 36.6657741,14.9172628 L36.6657741,18.2359572 L41.880251,18.2359572 C43.32,18.2359572 44.487113,17.0743517 44.487113,15.6414551 Z" id="Shape"></path>
                    <path d="M22.52159,15.6414551 L22.1304603,15.6414551 C21.51841,15.6414551 21.0223431,15.1478353 21.0223431,14.5388042 L21.0223431,5.85424188 L23.6297071,5.85424188 L23.6297071,14.5388042 C23.6294561,15.1478353 23.1333891,15.6414551 22.52159,15.6414551 Z" id="Shape"></path>
                    <path d="M22.3260251,5.85124419 L14.8649372,0.283032048 C14.3859414,-0.0744426747 13.7035983,0.0417178747 13.3714644,0.537336219 L11.8970711,2.73789166 L16.4713808,9.11048438 C16.8190795,9.59486138 17.5044351,9.68953847 17.9713808,9.31782472 L22.3260251,5.85124419 Z" id="Shape"></path>
                    <path d="M22.3260251,5.85124419 L29.787113,0.283032048 C30.2661088,-0.0744426747 30.9484519,0.0417178747 31.2805858,0.537336219 L32.7549791,2.73789166 L28.1806695,9.11048438 C27.8329707,9.59486138 27.1476151,9.68953847 26.6806695,9.31782472 L22.3260251,5.85124419 Z" id="Shape"></path>
                </g>
                <path d="M93.1117155,81.2032186 C86.5938075,87.6889742 73.8020084,82.5004697 73.8020084,92.8777286 L74.6113808,100.521842 C74.7675314,102.231775 75.763682,103.754103 77.2719665,104.587961 L84.6943933,108.691051 C85.8755649,109.344049 87.3115481,109.344049 88.4927197,108.691051 L95.9151464,104.587961 C97.423431,103.754103 98.4195816,102.231775 98.5757322,100.521842 L99.5101255,91.4433331 C99.5766527,90.79808 99.5907113,90.14883 99.5688703,89.5013286 C99.0813389,86.1993713 94.4151464,83.7974709 93.1117155,81.2032186 Z" id="Shape" fill="#F0C087"></path>
                <path d="M73.8020084,92.8777286 L74.6113808,100.521842 C74.7675314,102.231775 75.763682,103.754103 77.2719665,104.587961 L84.6943933,108.691051 C85.5140586,109.144202 86.4539749,109.261362 87.3487029,109.085747 L87.3487029,109.085747 C87.3487029,109.085747 83.6066109,107.957117 81.3793305,101.957986 C80.6969874,100.120151 79.7500418,90.3913932 80.5646862,89.2023089 C82.1751464,86.8521187 91.156318,86.6078068 93.8101255,82.2479142 C93.6790795,82.0860388 93.5580753,81.9239137 93.4476151,81.7615387 C93.4388285,81.7485487 93.4280335,81.7353089 93.4189958,81.7220691 C93.3037657,81.549452 93.1993305,81.3765851 93.1117155,81.2029688 C86.5938075,87.689224 73.8020084,82.5002199 73.8020084,92.8777286 Z" id="Shape" fill="#E6AF78"></path>
                <path d="M96.1099582,125.307006 L92.7205858,125.307006 C91.4967364,125.307006 90.5043515,126.294496 90.5043515,127.512308 L90.5043515,127.901508 L98.3259414,127.901508 L98.3259414,127.512308 C98.3261925,126.294496 97.3338075,125.307006 96.1099582,125.307006 Z" id="Shape" fill="#A0D2F0"></path>
            </g>
        </g>
    </g>
</svg>