<?xml version="1.0" encoding="UTF-8" standalone="no"?>
<svg width="133px" height="106px" viewBox="0 0 133 106" version="1.1" xmlns="http://www.w3.org/2000/svg" xmlns:xlink="http://www.w3.org/1999/xlink">
    <!-- Generator: Sketch 43 (38999) - http://www.bohemiancoding.com/sketch -->
    <title>exam</title>
    <desc>Created with Sketch.</desc>
    <defs></defs>
    <g id="لاگین" stroke="none" stroke-width="1" fill="none" fill-rule="evenodd">
        <g id="صفحه-اول" transform="translate(-387.000000, -904.000000)">
            <g id="exam" transform="translate(387.000000, 904.000000)">
                <path d="M112.143111,105.749289 L6.86596296,105.749289 C3.07403704,105.749289 0,102.668794 0,98.868902 L0,7.13135784 C0,3.33146569 3.07403704,0.250970588 6.86596296,0.250970588 L112.143111,0.250970588 C115.935037,0.250970588 119.009074,3.33146569 119.009074,7.13135784 L119.009074,98.868902 C119.008815,102.668794 115.935037,105.749289 112.143111,105.749289 Z" id="Shape" fill="#E4EAF8" fill-rule="nonzero"></path>
                <g id="Group" transform="translate(11.407407, 8.691176)" fill="#64A4EE">
                    <path d="M32.3043478,19.6608696 L33.126087,19.6608696 C33.752177,19.6608696 34.3543449,19.6347829 34.9326087,19.5826087 C35.5108725,19.5304345 36.0217369,19.4195661 36.4652174,19.25 C36.9086979,19.0804339 37.2673899,18.8413059 37.5413043,18.5326087 C37.8152188,18.2239115 37.9608695,17.813046 37.9782609,17.3 C37.9869566,17.1086947 37.9891305,16.9500006 37.9847826,16.823913 C37.9804348,16.6978255 37.956522,16.5456531 37.9130435,16.3673913 C37.869565,16.1891295 37.8065222,15.9543493 37.723913,15.6630435 C37.6413039,15.3717377 37.5260877,14.9608722 37.3782609,14.4304348 L41.173913,13.3608696 C41.3391313,13.778263 41.4913037,14.3304313 41.6304348,15.0173913 C41.7695659,15.7043513 41.8739127,16.4565177 41.9434783,17.273913 C41.9608697,17.5347839 41.9913041,17.8043464 42.0347826,18.0826087 C42.0782611,18.360871 42.1499995,18.6173901 42.25,18.8521739 C42.3500005,19.0869577 42.4869557,19.280434 42.6608696,19.4326087 C42.8347835,19.5847834 43.0608682,19.6608696 43.3391304,19.6608696 C43.6260884,19.6608696 45.0614883,19.6608696 45.313969,19.6608696 C45.3149579,19.6608696 45.3159284,19.6608758 45.3168806,19.6608882 C45.3199474,19.6608758 45.3230162,19.6608696 45.326087,19.6608696 L46.2782609,19.6608696 L46.2652174,19.6608696 C46.560871,19.7304351 46.8347813,19.6978268 47.0869565,19.5630435 C47.3391317,19.4282602 47.5565208,19.23261 47.7391304,18.976087 C47.92174,18.7195639 48.0652169,18.4239147 48.1695652,18.0891304 C48.2739136,17.7543462 48.326087,17.4217408 48.326087,17.0913043 C48.3434783,16.3521702 48.3347828,15.4087014 48.3,14.2608696 C48.2652172,13.1130377 48.2391305,11.7739207 48.2217391,10.2434783 C48.2043477,8.84347126 48.1847827,7.56087539 48.1630435,6.39565217 C48.1413042,5.23042896 48.0956525,4.10435326 48.026087,3.0173913 L52.0826087,2.27391304 C52.1521743,2.83043757 52.2065215,3.43260546 52.2456522,4.08043478 C52.2847828,4.72826411 52.3152173,5.4043443 52.3369565,6.10869565 C52.3586958,6.813047 52.373913,7.5391267 52.3826087,8.28695652 C52.3913044,9.03478635 52.3956522,9.78695274 52.3956522,10.5434783 C52.3956522,11.7347886 52.3826088,12.9304288 52.3565217,14.1304348 C52.3391303,14.7304378 52.326087,15.3565185 52.3173913,16.0086957 C52.3086956,16.6608728 52.3043478,17.2999969 52.3043478,17.926087 C52.3043478,18.0739138 52.321739,18.2565207 52.3565217,18.473913 C52.3913045,18.6913054 52.4695646,18.899999 52.5913043,19.1 L52.5782609,19.1 C52.6826092,19.2565225 52.8347816,19.3891299 53.0347826,19.4978261 C53.2347836,19.6065223 53.5434762,19.6608696 53.9608696,19.6608696 C54.0693093,19.6608696 54.1752649,19.6686306 54.2787369,19.6841527 C54.6185702,19.6813479 55.7147071,19.6608696 55.973913,19.6608696 L60.3956522,19.6608696 C60.6478273,19.6608696 60.9369549,19.6086962 61.2630435,19.5043478 C61.5891321,19.3999995 61.8999985,19.2630443 62.1956522,19.0934783 C62.4913058,18.9239122 62.747825,18.7326098 62.9652174,18.5195652 C63.1826098,18.3065207 63.3086955,18.0913054 63.3434783,17.873913 C63.3695653,17.4391283 63.2913053,16.9695677 63.1086957,16.4652174 C62.926086,15.960867 62.6717408,15.4456548 62.3456522,14.9195652 C62.0195636,14.3934756 61.6434804,13.8673939 61.2173913,13.3413043 C60.7913022,12.8152148 60.3478284,12.3130459 59.8869565,11.8347826 C59.4260847,11.3565193 58.9652197,10.9130455 58.5043478,10.5043478 C58.043476,10.0956501 57.6173933,9.74347974 57.226087,9.44782609 L57.5782609,5.86086957 L69.5652174,0.839130435 L71.0782609,4.42608696 L61.1782609,8.46956522 C61.7782639,9.02608974 62.3217367,9.56738867 62.8086957,10.0934783 C63.2956546,10.6195678 63.7413023,11.1434757 64.1456522,11.6652174 C64.550002,12.1869591 64.9195635,12.7130408 65.2543478,13.2434783 C65.5891321,13.7739157 65.8999986,14.3173885 66.1869565,14.873913 L66.3173913,15.1086957 C66.5043488,15.4608714 66.7021729,15.8239112 66.8978261,16.1847826 C67.0934792,16.545654 67.3043467,16.9086938 67.5304348,17.273913 C67.7391315,17.6043495 67.9673901,17.9108682 68.2152174,18.1934783 C68.4630447,18.4760884 68.7347811,18.7260859 69.0304348,18.9434783 C69.3260884,19.1608707 69.6413027,19.3326081 69.976087,19.4586957 C70.3108712,19.5847832 70.6695633,19.6521739 71.0521739,19.6608696 L71.5869565,19.6608696 C71.6172001,19.6608696 71.6472504,19.6614732 71.6771075,19.6626806 C71.4725231,19.6921857 71.8189795,20.074668 71.6434783,20.2543478 C71.4608687,20.4413053 71.3152179,20.6608683 71.2065217,20.9130435 C71.0978255,21.1652187 71.0434783,21.4347812 71.0434783,21.7217391 C71.0434783,22.0086971 71.0978255,22.2782596 71.2065217,22.5304348 C71.3152179,22.78261 71.4608687,23.002173 71.6434783,23.1891304 C71.8260132,23.3760114 71.1948267,23.7822762 71.4801298,23.7826085 C71.4806013,23.7826086 71.4810729,23.7826086 71.4815445,23.7826087 C71.7692375,23.7826087 72.8177432,23.7826087 73.1043478,23.7826087 L75.1130435,23.7826087 C75.3130445,23.7826087 75.5913026,23.7804348 75.9478261,23.776087 C76.3043496,23.7717391 76.6826067,23.7586958 77.0826087,23.7369565 C77.4826107,23.7152173 77.8782589,23.6826089 78.2695652,23.6391304 C78.6608715,23.595652 78.9869552,23.5391308 79.2478261,23.4695652 C80.134787,23.21739 80.895649,22.8239157 81.5304348,22.2891304 C82.1652206,21.7543452 82.6652156,21.078265 83.0304348,20.2608696 C83.3434798,19.5304311 83.5,18.7260913 83.5,17.8478261 C83.5,17.3695628 83.439131,16.806525 83.3173913,16.1586957 C83.1956516,15.5108663 83.0347836,14.8500034 82.8347826,14.176087 C82.6347816,13.5021705 82.4086969,12.8456554 82.1565217,12.2065217 C81.9043466,11.5673881 81.6434796,11.0130458 81.373913,10.5434783 L77.6565217,12.3695652 C77.8130443,12.691306 78.0195639,13.0956497 78.276087,13.5826087 C78.53261,14.0695677 78.7826075,14.5782582 79.026087,15.1086957 C79.2695664,15.6391331 79.4804339,16.160867 79.6586957,16.673913 C79.8369574,17.1869591 79.926087,17.6304329 79.926087,18.0043478 C79.926087,18.256523 79.8782613,18.456521 79.7826087,18.6043478 C79.6173905,18.8130445 79.3586974,18.9847819 79.0065217,19.1195652 C78.6543461,19.2543485 78.2608717,19.3608692 77.826087,19.4391304 C77.3913022,19.5173917 76.9391328,19.5739129 76.4695652,19.6086957 C75.9999977,19.6434784 75.5695672,19.6608696 75.1782609,19.6608696 L73.1043478,19.6608696 C72.8173899,19.6608696 71.9658976,19.6608696 71.7047496,19.6608696 C71.6945841,19.6608696 71.6853938,19.6614856 71.6771075,19.6626806 C70.8202626,23.7824999 70.2319643,23.7390221 69.7152174,23.6521739 C69.1978235,23.565217 68.686959,23.4391313 68.1826087,23.273913 C67.660867,23.0826077 67.1739153,22.8260886 66.7217391,22.5043478 C66.269563,22.1826071 65.847828,21.8217411 65.4565217,21.4217391 C65.3608691,21.5434789 65.2521745,21.6695646 65.1304348,21.8 C65.008695,21.9304354 64.8869571,22.0565211 64.7652174,22.1782609 C64.434781,22.4739145 64.0869583,22.7195642 63.7217391,22.9152174 C63.3565199,23.1108705 62.9826106,23.2717385 62.6,23.3978261 C62.2173894,23.5239137 61.826089,23.6152171 61.426087,23.6717391 C61.026085,23.7282612 60.626089,23.7652173 60.226087,23.7826087 L55.973913,23.7826087 C55.7023277,23.7826087 54.1936106,23.8032656 53.844356,23.7840957 C53.1178338,23.7862327 52.469721,23.6531295 51.9,23.3847826 C51.299997,23.1021725 50.7913064,22.7565238 50.373913,22.3478261 C49.8782584,22.8000023 49.32609,23.1478249 48.7173913,23.3913043 C48.1086926,23.6347838 47.4913075,23.7652173 46.8652174,23.7826087 L45.4130435,23.7826087 C45.1332751,23.8252848 43.6304362,23.7826087 43.3521739,23.7826087 C42.5173871,23.7826087 41.8021769,23.6543491 41.2065217,23.3978261 C40.6108666,23.1413031 40.1000021,22.8086977 39.673913,22.4 C39.2826067,22.6608709 38.8326112,22.87826 38.323913,23.0521739 C37.8152148,23.2260878 37.2739159,23.3673908 36.7,23.476087 C36.1260841,23.5847832 35.5347857,23.6630432 34.926087,23.7108696 C34.3173883,23.7586959 33.7173943,23.7826087 33.126087,23.7826087 L32.1347826,23.7826087 C32.1249553,23.7826087 32.1151484,23.7825475 32.1053619,23.7824251 C31.8494896,23.7812841 31.5723422,23.7748236 31.273913,23.7630435 C30.9434766,23.7499999 30.6130451,23.7347827 30.2826087,23.7173913 C29.9521723,23.6999999 29.6282625,23.6760871 29.3108696,23.6456522 C28.9934767,23.6152172 28.7086969,23.5826089 28.4565217,23.5478261 C27.9869542,23.4782605 27.510872,23.3869571 27.0282609,23.273913 C26.5456498,23.160869 26.0434809,22.9782621 25.5217391,22.726087 C25.3130424,22.8478267 25.0239149,22.9565213 24.6543478,23.0521739 C24.2847808,23.1478266 23.8695675,23.2347822 23.4086957,23.3130435 C22.9478238,23.3913047 22.4543505,23.4608693 21.9282609,23.5217391 C21.4021713,23.582609 20.8739157,23.6326085 20.3434783,23.6717391 C19.8130408,23.7108698 19.2934808,23.7391303 18.7847826,23.7565217 C18.2760844,23.7739131 17.8086978,23.7826087 17.3826087,23.7826087 C17.3130431,23.7826087 17.1369579,23.7804348 16.8543478,23.776087 C16.5717377,23.7717391 16.2217412,23.7565219 15.8043478,23.7304348 C15.3869544,23.7043477 14.9195678,23.6673915 14.4021739,23.6195652 C13.88478,23.5717389 13.3543505,23.5065222 12.8108696,23.423913 C12.2673886,23.3413039 11.7304374,23.2369572 11.2,23.1108696 C10.6695626,22.984782 10.1782631,22.8304357 9.72608696,22.6478261 C7.75216404,21.8826049 6.39565587,20.760877 5.65652174,19.2826087 L5.65652174,19.2956522 C5.23912835,18.4869525 5.03043478,17.5913093 5.03043478,16.6086957 C5.03043478,16.1826066 5.08260817,15.7217416 5.18695652,15.226087 C5.29130487,14.7304323 5.42608613,14.2478284 5.59130435,13.7782609 C5.80000104,13.230432 6.02608574,12.7456543 6.26956522,12.323913 C6.5130447,11.9021718 6.76521609,11.4565241 7.02608696,10.9869565 L10.0913043,13.5565217 C9.96086891,13.7391313 9.80869652,13.9760855 9.63478261,14.2673913 C9.4608687,14.5586971 9.29347907,14.8652158 9.1326087,15.1869565 C8.97173833,15.5086973 8.83695707,15.8326071 8.72826087,16.1586957 C8.61956467,16.4847842 8.56521739,16.769564 8.56521739,17.0130435 C8.56521739,17.1869574 8.59130409,17.3304342 8.64347826,17.4434783 C8.81739217,17.8000018 9.15869311,18.115216 9.6673913,18.3891304 C10.1760895,18.6630448 10.8152135,18.8956512 11.5847826,19.0869565 C12.3543517,19.2782618 13.2369515,19.4217387 14.2326087,19.5173913 C15.2282658,19.613044 16.2999943,19.6608696 17.4478261,19.6608696 C17.7869582,19.6608696 18.152172,19.6586957 18.5434783,19.6543478 C18.9347846,19.65 19.3043461,19.6434783 19.6521739,19.6347826 C20.0000017,19.6260869 20.3065204,19.6173913 20.5717391,19.6086957 C20.8369578,19.6 21.0173908,19.5913044 21.1130435,19.5826087 C20.7999984,19.2347809 20.5173926,18.8043504 20.2652174,18.2913043 C20.0130422,17.7782583 19.8695654,17.1956554 19.8347826,16.5434783 C19.8434783,15.7260829 19.9826073,14.9369603 20.2521739,14.176087 C20.5217405,13.4152136 20.9043453,12.7217423 21.4,12.0956522 C21.9478288,11.4173879 22.5782573,10.8869584 23.2913043,10.5043478 C24.0043514,10.1217372 24.7434744,9.94782591 25.5086957,9.9826087 C26.2652212,10.0173915 26.969562,10.2130417 27.6217391,10.5695652 C28.2739163,10.9260887 28.8369542,11.3869537 29.3108696,11.9521739 C29.784785,12.5173941 30.1586943,13.1586921 30.4326087,13.876087 C30.7065231,14.5934818 30.8434783,15.330431 30.8434783,16.0869565 C30.8434783,16.6869595 30.7434793,17.2760841 30.5434783,17.8543478 C30.3434773,18.4326116 30.0913059,18.9826061 29.7869565,19.5043478 C30.2043499,19.5478263 30.6413021,19.5847825 31.0978261,19.6152174 C31.5543501,19.6456523 31.95652,19.6608696 32.3043478,19.6608696 Z M84.1,6.76086957 L81.5956522,9.27826087 L79.1173913,6.8 L76.6652174,9.25217391 L74.1347826,6.73478261 L76.6391304,4.2173913 L79.1173913,6.69565217 L81.5695652,4.24347826 L84.1,6.76086957 Z M42.5565217,28.4652174 L40.0521739,30.9826087 L37.573913,28.5043478 L35.1217391,30.9565217 L32.5913043,28.4391304 L35.0956522,25.9217391 L37.573913,28.4 L40.026087,25.9478261 L42.5565217,28.4652174 Z M27.3869565,16.3869565 C27.3869565,16.1086943 27.3195659,15.8434795 27.1847826,15.5913043 C27.0499993,15.3391292 26.8847836,15.1130445 26.6891304,14.9130435 C26.4934773,14.7130425 26.2826098,14.5456528 26.0565217,14.4108696 C25.8304337,14.2760863 25.6260879,14.182609 25.4434783,14.1304348 C25.2434773,14.1739133 25.0152187,14.2521733 24.7586957,14.3652174 C24.5021726,14.4782614 24.2586968,14.6369555 24.0282609,14.8413043 C23.7978249,15.0456532 23.6043486,15.2934768 23.4478261,15.5847826 C23.2913036,15.8760884 23.2130435,16.2217371 23.2130435,16.6217391 C23.2130435,16.7521746 23.2804341,16.9326075 23.4152174,17.1630435 C23.5500007,17.3934794 23.723912,17.6282597 23.9369565,17.8673913 C24.1500011,18.1065229 24.3934769,18.3282598 24.6673913,18.5326087 C24.9413057,18.7369575 25.2217377,18.8826083 25.5086957,18.9695652 C25.726088,18.8478255 25.947825,18.6804358 26.173913,18.4673913 C26.4000011,18.2543468 26.602173,18.0282621 26.7804348,17.7891304 C26.9586965,17.5499988 27.1043473,17.306523 27.2173913,17.0586957 C27.3304353,16.8108683 27.3869565,16.5869575 27.3869565,16.3869565 Z M25.4043478,2.66521739 L28.3,5.56086957 L25.4043478,8.45652174 L22.5086957,5.56086957 L25.4043478,2.66521739 Z" id="تکلیف"></path>
                    <ellipse id="Oval" fill-rule="nonzero" cx="6.90174074" cy="44.3088235" rx="4.57722222" ry="4.58683824"></ellipse>
                    <ellipse id="Oval" fill-rule="nonzero" cx="6.90174074" cy="62.6564363" rx="4.57722222" ry="4.58683824"></ellipse>
                    <ellipse id="Oval" fill-rule="nonzero" cx="6.90174074" cy="81.004049" rx="4.57722222" ry="4.58683824"></ellipse>
                </g>
                <path d="M68.6591111,55.293549 L32.0408148,55.293549 C30.7758889,55.293549 29.7520741,54.2678431 29.7520741,53 C29.7520741,51.7324167 30.7756296,50.706451 32.0408148,50.706451 L68.6588519,50.706451 C69.9237778,50.706451 70.9475926,51.7321569 70.9475926,53 C70.9475926,54.2678431 69.924037,55.293549 68.6591111,55.293549 Z" id="Shape" fill="#707487" fill-rule="nonzero"></path>
                <path d="M41.1955185,73.6411618 L32.0410741,73.6411618 C30.7761481,73.6411618 29.7523333,72.6154559 29.7523333,71.3476127 C29.7523333,70.0800294 30.7758889,69.0540637 32.0410741,69.0540637 L41.1955185,69.0540637 C42.4604444,69.0540637 43.4842593,70.0797696 43.4842593,71.3476127 C43.484,72.6154559 42.4604444,73.6411618 41.1955185,73.6411618 Z" id="Shape" fill="#7F8499" fill-rule="nonzero"></path>
                <path d="M54.9271852,91.9885147 L32.0408148,91.9885147 C30.7758889,91.9885147 29.7520741,90.9628088 29.7520741,89.6949657 C29.7520741,88.4273824 30.7756296,87.4014167 32.0408148,87.4014167 L54.9271852,87.4014167 C56.1921111,87.4014167 57.2159259,88.4271225 57.2159259,89.6949657 C57.2159259,90.9628088 56.1923704,91.9885147 54.9271852,91.9885147 Z" id="Shape" fill="#707487" fill-rule="nonzero"></path>
                <path d="M100.699926,73.6411618 L50.349963,73.6411618 C49.085037,73.6411618 48.0612222,72.6154559 48.0612222,71.3476127 C48.0612222,70.0800294 49.0847778,69.0540637 50.349963,69.0540637 L100.699926,69.0540637 C101.964852,69.0540637 102.988667,70.0797696 102.988667,71.3476127 C102.988407,72.6154559 101.964852,73.6411618 100.699926,73.6411618 Z" id="Shape" fill="#7F8499" fill-rule="nonzero"></path>
                <path d="M119.008815,23.1854216 L67.6778148,74.624 L61.8094815,87.2257892 C61.0822593,88.7877304 62.6987407,90.4076078 64.2571481,89.678598 L76.8322593,83.7976765 L119.008815,41.5327745 L119.008815,23.1854216 Z" id="Shape" fill="#D5DCED" fill-rule="nonzero"></path>
                <polygon id="Shape" fill="#707487" fill-rule="nonzero" points="91.5452222 69.0543235 73.2363333 69.0543235 68.6591111 73.6411618 86.968 73.6411618"></polygon>
                <path d="M59.5168519,87.5489853 L70.6307778,82.3518676 C71.5978148,81.8998088 72.4782593,81.2817353 73.2327037,80.5257059 L132.070556,21.5642451 C132.964222,20.668701 132.964222,19.2163971 132.070556,18.3208529 L126.152444,12.390049 C125.258778,11.4945049 123.809519,11.4945049 122.915852,12.390049 L64.0777407,71.35125 C63.3232963,72.1072794 62.7065185,72.9895735 62.2554074,73.9586422 L57.0691852,85.0959167 C56.3417037,86.6581176 57.9579259,88.2777353 59.5168519,87.5489853 Z" id="Shape" fill="#FFDC64" fill-rule="nonzero"></path>
                <path d="M57.4357778,87.1813627 C57.9439259,87.6905784 58.7375185,87.9132304 59.5165926,87.5489853 L70.6305185,82.3518676 C71.5975556,81.899549 72.478,81.2817353 73.2324444,80.5254461 L126.823148,26.8221569 L122.245926,22.2353186 L57.4357778,87.1813627 Z" id="Shape" fill="#FFC850" fill-rule="nonzero"></path>
                <path d="M75.5248148,78.228 L66.3703704,69.0543235 L64.0777407,71.3517696 C63.3232963,72.107799 62.7065185,72.9900931 62.2554074,73.9591618 L57.0691852,85.0961765 C56.341963,86.6581176 57.9584444,88.2777353 59.5168519,87.5489853 L70.6305185,82.3518676 C71.5975556,81.8998088 72.478,81.2817353 73.2324444,80.5254461 L75.5248148,78.228 Z" id="Shape" fill="#FAEBC8" fill-rule="nonzero"></path>
                <path d="M70.9475926,73.6411618 L57.4357778,87.1813627 C57.9439259,87.6905784 58.7375185,87.9132304 59.5165926,87.5489853 L70.6305185,82.3518676 C71.5975556,81.8998088 72.478,81.2817353 73.2324444,80.5254461 L75.5248148,78.2282598 L70.9475926,73.6411618 Z" id="Shape" fill="#F5DCB4" fill-rule="nonzero"></path>
                <path d="M126.152704,12.3897892 C125.258778,11.4939853 123.810037,11.4939853 122.916111,12.3897892 L117.668444,17.6484804 L126.822889,26.8221569 L132.070556,21.5637255 C132.964481,20.6679216 132.964481,19.2158775 132.070556,18.3203333 L126.152704,12.3897892 Z" id="Shape" fill="#FAEBC8" fill-rule="nonzero"></path>
                <path d="M132.070556,18.3200735 L129.11163,15.3549314 L122.245667,22.2353186 L126.822889,26.8221569 L132.070556,21.5637255 C132.964222,20.6679216 132.964222,19.2156176 132.070556,18.3200735 Z" id="Shape" fill="#F5DCB4" fill-rule="nonzero"></path>
            </g>
        </g>
    </g>
</svg>