<?xml version="1.0" encoding="UTF-8" standalone="no"?>
<svg width="112px" height="143px" viewBox="0 0 112 143" version="1.1" xmlns="http://www.w3.org/2000/svg" xmlns:xlink="http://www.w3.org/1999/xlink">
    <!-- Generator: Sketch 43 (38999) - http://www.bohemiancoding.com/sketch -->
    <title>Group 6</title>
    <desc>Created with Sketch.</desc>
    <defs></defs>
    <g id="لاگین" stroke="none" stroke-width="1" fill="none" fill-rule="evenodd">
        <g id="صفحه-اول" transform="translate(-696.000000, -576.000000)">
            <g id="Group-6" transform="translate(696.000000, 576.000000)">
                <g id="Group-3" fill-rule="nonzero">
                    <rect id="Rectangle-path" fill="#64A4EE" x="0.207430445" y="15.0220098" width="98.6266834" height="127.797838"></rect>
                    <polygon id="Shape" fill="#DCE3DB" points="3.75515792 19.4427426 92.2847871 19.4427426 95.2856844 138.972868 6.75605522 138.972868"></polygon>
                    <rect id="Rectangle-path" fill="#FFFFFF" x="5.23173978" y="19.4420417" width="87.0509414" height="116.590914"></rect>
                    <path d="M38.0959525,11.9142132 L61.9367654,11.9142132 C63.653419,11.9142132 65.0580495,13.316875 65.0580495,15.0311225 L65.0580495,25.2636838 L34.9743173,25.2636838 L34.9743173,15.0318235 C34.9743173,13.3172255 36.3792988,11.9142132 38.0959525,11.9142132 Z" id="Shape" fill="#666666"></path>
                    <path d="M34.3288612,24.4908529 L65.7028037,24.4908529 C66.3665109,24.4908529 66.9042156,25.0278039 66.9042156,25.6905809 L66.9042156,25.6916324 C66.9042156,26.3544093 66.3665109,26.8913603 65.7028037,26.8913603 L34.3288612,26.8913603 C33.665154,26.8913603 33.1274493,26.3544093 33.1274493,25.6916324 L33.1274493,25.6905809 C33.1274493,25.0281544 33.6655049,24.4908529 34.3288612,24.4908529 Z" id="Shape" fill="#B0B0B0"></path>
                    <path d="M46.8810355,8.80816912 L44.3434346,24.4908529 L43.037781,24.4908529 L45.5680113,8.84637255 C44.8481469,7.84992892 44.4820725,6.65475735 44.4820725,5.48166667 C44.4820725,4.7298652 44.6322929,3.98472304 44.9351905,3.30126716 C45.2415979,2.61185294 45.7034904,1.98727941 46.3247288,1.4871299 C48.3000563,-0.104446078 51.724238,-0.106198529 53.6995655,1.48607843 C54.3222078,1.9876299 54.7855042,2.61395588 55.0933156,3.30582353 C55.3969151,3.99068137 55.5481884,4.74002941 55.5481884,5.49358333 C55.5481884,6.66281863 55.1849219,7.85273284 54.4678654,8.84637255 L56.9980957,24.4908529 L55.6924421,24.4908529 L53.1548412,8.80816912 C53.1169351,8.60944118 53.1759001,8.41421814 53.2976909,8.27156863 C53.9396373,7.47034804 54.2642958,6.47495588 54.2642958,5.49498529 C54.2642958,4.91422304 54.1495246,4.34222304 53.9196313,3.82384804 C53.6925459,3.31283333 53.3517422,2.85123775 52.8979223,2.48497549 C51.3967717,1.27508333 48.6299795,1.27683578 47.1298818,2.48602696 C46.6767639,2.85053676 46.3377151,3.3103799 46.1120336,3.81929167 C45.8838952,4.33556373 45.770177,4.90546078 45.770177,5.48306863 C45.770177,6.47285294 46.1022061,7.47946078 46.7539799,8.2869902 C46.8768237,8.43875245 46.9182396,8.63047059 46.8841943,8.80781863 L46.8841943,8.80781863 L46.8810355,8.80816912 L46.8810355,8.80816912 Z" id="Shape" fill="#CDCDCD"></path>
                </g>
                <g id="Group-4" transform="translate(64.229732, 62.737745)" fill-rule="nonzero">
                    <rect id="Rectangle-path" fill="#0F7986" transform="translate(18.442434, 36.508838) rotate(36.227040) translate(-18.442434, -36.508838) " x="14.6835046" y="17.8488379" width="7.51785895" height="37.3200009"></rect>
                    <g id="Group" transform="translate(1.754911, 0.000000)" fill="#FF5B62">
                        <polygon id="Shape" points="2.61095614 49.3444632 8.67487458 53.7813186 2.39896293 58.3699363 0.121088838 56.7033554"></polygon>
                        <path d="M40.6535593,0.487882353 L43.8538145,2.82950735 C44.7754936,3.50314951 44.9762554,4.80767402 44.3023697,5.7270098 L31.0661312,23.7698946 C31.031033,23.8172108 30.9643464,23.827375 30.9166128,23.793027 L24.5389163,19.1273015 C24.4922357,19.0922525 24.4813553,19.0263603 24.5157515,18.9790441 L37.75199,0.936159314 C38.4265777,0.0168235294 39.7318802,-0.184708333 40.6535593,0.489284314 L40.6535593,0.487882353 L40.6535593,0.487882353 Z" id="Shape"></path>
                    </g>
                    <path d="M46.0572804,5.72595833 L32.8171811,23.7733995 C32.7820829,23.8158088 32.721714,23.8256225 32.6760863,23.7954804 L32.6715235,23.7919755 L31.9004157,23.2276863 L46.2692736,3.64089216 C46.5690123,4.30226716 46.5142591,5.10243627 46.0572804,5.72595833 Z" id="Shape" fill="#ED4C54"></path>
                    <path d="M2.43265721,57.110625 L3.59721596,57.9630172 L1.55590383,60.7448578 C1.32144776,61.0641544 0.867276869,61.1349534 0.547181157,60.9004755 L0.547181157,60.9004755 C0.227436427,60.666348 0.156538035,60.2128137 0.391345086,59.8931667 L2.43265721,57.111326 L2.43265721,57.110625 L2.43265721,57.110625 Z" id="Shape" fill="#21D0C3"></path>
                    <path d="M39.4363533,1.03114216 L47.3088827,6.79039706 L47.7332201,7.10093137 L47.4050518,7.54780637 L33.5022982,26.4998627 L33.3745407,26.6737059 L33.1643024,26.7192696 L31.7923132,27.0217426 C31.1991534,27.0785221 30.9439894,26.1409608 31.6182261,25.9615098 L32.779977,25.7053015 L46.2278577,7.37396324 L38.7800167,1.92559314 L39.4356513,1.03289461 L39.4356513,1.03149265 L39.4363533,1.03149265 L39.4363533,1.03114216 Z" id="Shape" fill="#FAD24D"></path>
                    <rect id="Rectangle-path" fill="#076673" transform="translate(21.126872, 38.471570) rotate(36.227040) translate(-21.126872, -38.471570) " x="20.6268709" y="19.8114971" width="1" height="37.3200009"></rect>
                </g>
                <g id="Group" transform="translate(12.986339, 36.801471)" fill-rule="nonzero" fill="#64A4EE">
                    <rect id="Rectangle-path" x="0.0558061603" y="0.115661765" width="26.0814828" height="2.93220098"></rect>
                </g>
                <g id="Group" transform="translate(13.337321, 44.862745)" fill-rule="nonzero" fill="#D9DADA">
                    <rect id="Rectangle-path" x="0.0438727675" y="0.30422549" width="7.30604423" height="7.29580392"></rect>
                    <rect id="Rectangle-path" x="31.1036863" y="0.30422549" width="7.30604423" height="7.29580392"></rect>
                </g>
                <rect id="Rectangle-path" fill="#64A4EE" fill-rule="nonzero" x="13.0421454" y="65.154375" width="26.0814828" height="2.93220098"></rect>
                <g id="Group" transform="translate(12.635357, 45.213235)" fill-rule="nonzero" fill="#D9DADA">
                    <rect id="Rectangle-path" x="0.745837048" y="28.1944828" width="7.30604423" height="7.29580392"></rect>
                    <rect id="Rectangle-path" x="31.8056506" y="28.1944828" width="7.30604423" height="7.29580392"></rect>
                    <path d="M0.199357856,46.5160074 L50.5905657,46.5160074 L50.5905657,48.0157549 L0.199357856,48.0157549 L0.199357856,46.5160074 Z M0.199357856,56.6073211 L36.6607865,56.6073211 L36.6607865,58.1070686 L0.199357856,58.1070686 L0.199357856,56.6073211 Z M0.199357856,51.5616642 L50.5905657,51.5616642 L50.5905657,53.0614118 L0.199357856,53.0614118 L0.199357856,51.5616642 Z" id="Shape"></path>
                    <path d="M10.2932532,28.5355098 L21.754926,28.5355098 L21.754926,30.0352574 L10.2932532,30.0352574 L10.2932532,28.5355098 Z M10.2932532,33.0428137 L18.5869612,33.0428137 L18.5869612,34.5425613 L10.2932532,34.5425613 L10.2932532,33.0428137 L10.2932532,33.0428137 Z" id="Shape"></path>
                    <path d="M42.5207843,28.5355098 L53.9824571,28.5355098 L53.9824571,30.0352574 L42.5207843,30.0352574 L42.5207843,28.5355098 Z M42.5207843,33.0428137 L50.8144923,33.0428137 L50.8144923,34.5425613 L42.5207843,34.5425613 L42.5207843,33.0428137 L42.5207843,33.0428137 Z" id="Shape"></path>
                    <path d="M10.2932532,0.168585784 L21.754926,0.168585784 L21.754926,1.66833333 L10.2932532,1.66833333 L10.2932532,0.168585784 Z M10.2932532,4.67588971 L18.5869612,4.67588971 L18.5869612,6.17563725 L10.2932532,6.17563725 L10.2932532,4.67588971 L10.2932532,4.67588971 Z" id="Shape"></path>
                    <path d="M42.5207843,0.168585784 L53.9824571,0.168585784 L53.9824571,1.66833333 L42.5207843,1.66833333 L42.5207843,0.168585784 Z M42.5207843,4.67588971 L50.8144923,4.67588971 L50.8144923,6.17563725 L42.5207843,6.17563725 L42.5207843,4.67588971 L42.5207843,4.67588971 Z" id="Shape"></path>
                </g>
                <g id="Group" transform="translate(9.125536, 99.188725)" fill="#FF7058">
                    <path d="M10.1832153,19.8897271 C10.1832153,19.2862714 10.1797818,18.6748245 10.1729147,18.0553681 C10.1660476,17.4359116 10.1477357,16.822179 10.1179784,16.2141516 C10.088221,15.6061243 10.0458747,15.0106779 9.99093808,14.4277945 C9.93600147,13.8449112 9.85932027,13.2848944 9.76089218,12.7477274 C9.66246409,12.2105604 9.54000306,11.7042595 9.39350544,11.2288095 C9.24700781,10.7533596 9.06846651,10.3190609 8.85787617,9.92590034 L10.6089719,8.83557106 C10.8470305,9.20587342 11.0450282,9.59445649 11.202971,10.0013319 C11.3609137,10.4082074 11.4948197,10.8287914 11.6046929,11.2630966 C11.7145661,11.6974019 11.8049813,12.1454153 11.8759411,12.6071503 C11.9469009,13.0688854 12.0144261,13.5374709 12.0785188,14.0129208 C12.1242993,14.3832232 12.1609232,14.7798065 12.1883915,15.2026826 C12.2158598,15.6255588 12.2376052,16.0564288 12.2536284,16.4953057 C12.2696516,16.9341826 12.279952,17.3684813 12.2845301,17.7982149 C12.2891081,18.2279485 12.2913971,18.6302463 12.2913971,19.0051203 L12.2913971,19.8897271 L10.1832153,19.8897271 Z M20.6279859,20.1365941 C20.5043786,19.9445854 20.3727616,19.7102927 20.233131,19.4337088 C20.0935005,19.157125 19.951583,18.8542588 19.8073744,18.5251011 C19.6631658,18.1959435 19.5178149,17.84279 19.3713173,17.4656302 C19.2248197,17.0884704 19.0817577,16.703316 18.9421272,16.3101555 C18.8024966,15.9169949 18.6674461,15.5204116 18.5369717,15.1203936 C18.4064972,14.7203756 18.2863252,14.3283639 18.176452,13.9443466 C18.0253763,14.4289398 17.85828,14.9272405 17.6751579,15.4392635 C17.4920359,15.9512865 17.2883157,16.4701592 17.0639912,16.9958971 C16.8396667,17.5216351 16.5924557,18.0519367 16.3223507,18.5868179 C16.0522457,19.1216991 15.7569658,19.6520007 15.4365023,20.1777386 L13.6716725,19.0531222 C14.0836971,18.3993785 14.4842705,17.7147866 14.8734049,16.9993259 C15.2625392,16.2838651 15.6093213,15.5192708 15.9137617,14.7055199 C16.2182021,13.891769 16.4619796,13.0186 16.6451017,12.0859867 C16.8282237,11.1533733 16.9197833,10.1430573 16.9197833,9.0550084 L19.1515719,9.06186581 C19.1653061,9.56017393 19.2225309,10.1053331 19.323248,10.6973597 C19.4239651,11.2893864 19.5578711,11.8985475 19.7249699,12.5248613 C19.8920688,13.1511752 20.0820551,13.7786226 20.2949344,14.4072223 C20.5078138,15.035822 20.7321349,15.6358399 20.9679045,16.2072942 C21.2036741,16.7787485 21.4428737,17.3067643 21.6855104,17.7913575 C21.9281471,18.2759507 22.1593352,18.6873916 22.3790816,19.0256925 L20.6279859,20.1365941 Z M24.6864077,21.3572143 L22.8941098,21.3572143 L27.3508199,8.23897579 L29.1362508,8.23897579 L24.6864077,21.3572143 Z M33.0779329,20.0611625 C33.0779329,19.3388443 33.0355865,18.6519666 32.9508926,18.0005087 C32.8661987,17.3490509 32.7494601,16.7273179 32.6006735,16.1352913 C32.4518868,15.5432647 32.27449,14.9798193 32.0684777,14.4449381 C31.8624654,13.9100569 31.6392888,13.3946129 31.3989411,12.8985906 C31.1585935,12.4025683 30.9045155,11.9248397 30.6366995,11.4653904 C30.3688835,11.0059412 30.0976381,10.5590707 29.822955,10.1247654 L31.5877848,8.99329165 C31.9174044,9.5373161 32.2149733,10.0847611 32.4805002,10.635643 C32.7460272,11.1865249 32.9863712,11.7362557 33.2015396,12.2848517 C33.416708,12.8334478 33.6089833,13.3763212 33.7783711,13.9134883 C33.947759,14.4506553 34.1011214,14.9752424 34.2384629,15.4872654 C34.3483362,15.0895333 34.4650747,14.6780924 34.5886821,14.2529304 C34.7122895,13.8277684 34.840473,13.4060415 34.9732364,12.987737 C35.1059999,12.5694325 35.2410504,12.1602773 35.3783919,11.7602594 C35.5157334,11.3602414 35.6542174,10.985373 35.7938479,10.635643 C35.9334785,10.285913 36.0696734,9.96704628 36.2024369,9.67903333 C36.3352004,9.39102038 36.4656729,9.14872741 36.5938583,8.95214714 L38.351821,10.0699061 C38.1778551,10.3442041 38.0027473,10.6527848 37.8264923,10.9956574 C37.6502374,11.3385299 37.476274,11.7053981 37.3045971,12.0962728 C37.1329202,12.4871475 36.9635349,12.8974455 36.796436,13.3271791 C36.6293372,13.7569127 36.4679633,14.1934972 36.3123096,14.6369457 C35.9552216,15.6609918 35.6793982,16.6255921 35.484831,17.5307757 C35.2902639,18.4359592 35.1884038,19.2794131 35.1792477,20.0611625 L33.0779329,20.0611625 Z M45.4248742,20.1160218 C45.0998326,20.1160218 44.7931077,20.0485912 44.5046905,19.913728 C44.2162733,19.7788648 43.9690623,19.6017167 43.76305,19.3822782 C43.5387255,19.6108599 43.283503,19.789151 42.9973749,19.9171567 C42.7112467,20.0451625 42.4010884,20.1091644 42.0668907,20.1091644 C41.7098027,20.1091644 41.3859105,20.0314478 41.0952043,19.8760122 C40.804498,19.7205767 40.55042,19.5205707 40.3329626,19.2759883 C40.1155052,19.0314058 39.9392529,18.7582548 39.8042004,18.4565269 C39.6691479,18.1547991 39.5764437,17.8553615 39.5260852,17.5582053 C39.507773,17.4439145 39.494039,17.322768 39.4848829,17.1947622 C39.4757268,17.0667565 39.4711489,16.9364669 39.4711489,16.8038895 C39.4711489,16.5570212 39.4871718,16.3021565 39.5192181,16.0392875 C39.5512645,15.7764185 39.5970443,15.5146964 39.656559,15.2541133 C39.7389639,14.8975258 39.847691,14.537515 39.9827435,14.1740701 C40.117796,13.8106252 40.2814588,13.433471 40.473737,13.0425963 C40.6660151,12.6517216 40.8869027,12.2402807 41.1364065,11.8082613 C41.3859103,11.3762419 41.6663117,10.9133708 41.9776191,10.4196344 C41.9318386,10.3693464 41.8814808,10.3179163 41.8265442,10.2653425 C41.7716076,10.2127687 41.7235388,10.1636244 41.6823363,10.117908 L43.1518833,8.64356338 C43.1930858,8.68927973 43.2434436,8.74185273 43.3029582,8.80128397 C43.3624729,8.86071522 43.4254201,8.92128846 43.4918019,8.98300552 C43.5581836,9.04472258 43.6234199,9.10643872 43.6875126,9.16815578 C43.7516053,9.22987284 43.811119,9.28587451 43.8660557,9.33616249 L43.8660557,9.32930507 L44.0102635,9.47331083 C44.3627734,9.80246848 44.7129891,10.1396214 45.0609209,10.4847798 C45.4088528,10.8299382 45.7430455,11.2036637 46.0635091,11.6059675 C46.4984239,12.1591352 46.8795409,12.7385811 47.2068715,13.3443227 C47.5342022,13.9500642 47.8008696,14.5615111 48.0068819,15.1786817 C48.0755527,15.3981201 48.1281995,15.6324128 48.1648239,15.8815669 C48.2014483,16.130721 48.2197602,16.3855857 48.2197602,16.6461689 C48.2197602,17.0713309 48.1659689,17.4873433 48.0583847,17.8942188 C47.9508005,18.3010942 47.7848487,18.6656765 47.5605242,18.9879767 C47.3361997,19.310277 47.0477868,19.5742849 46.6952769,19.7800084 C46.342767,19.9857319 45.9238816,20.0977353 45.4386082,20.1160218 L45.4248742,20.1160218 Z M44.7313029,15.7341324 C44.7313029,15.9169978 44.7404589,16.1352901 44.7587711,16.3890158 C44.7770833,16.6427414 44.8114182,16.8873202 44.8617767,17.1227594 C44.9121353,17.3581985 44.980805,17.5616332 45.067788,17.7330695 C45.1547709,17.9045057 45.2669315,18.0016515 45.404273,18.0245097 C45.5324585,17.9970799 45.6549195,17.9399353 45.7716598,17.8530743 C45.8884001,17.7662132 45.9902602,17.6599243 46.0772431,17.5342044 C46.1642261,17.4084844 46.2328958,17.2724804 46.2832544,17.1261881 C46.333613,16.9798958 46.3587919,16.8336057 46.3587919,16.6873134 C46.3587919,16.5318778 46.3462024,16.3753017 46.3210231,16.2175803 C46.2958438,16.059859 46.2672315,15.9215691 46.2351851,15.8027066 L46.2420521,15.8027066 C46.1047106,15.3912595 45.9261693,15.0026765 45.7064229,14.6369457 C45.4866764,14.271215 45.2474769,13.9260618 44.988817,13.6014758 C44.7301571,13.2768898 44.4646342,12.9740236 44.1922401,12.6928681 C43.9198461,12.4117126 43.6646236,12.1522762 43.426565,11.9145512 L43.3441605,11.8322622 C43.1335701,12.1157035 42.9252719,12.4231413 42.7192597,12.7545848 C42.5132474,13.0860283 42.3232611,13.4220383 42.1492952,13.7626251 C41.9753293,14.1032118 41.8208224,14.438079 41.6857699,14.7672367 C41.5507174,15.0963943 41.4488573,15.4004034 41.3801865,15.6792731 C41.3435621,15.8667101 41.3138052,16.0690019 41.2909149,16.2861545 C41.2680247,16.5033071 41.2565797,16.714742 41.2565797,16.9204656 C41.2565797,17.0667579 41.2783252,17.2061906 41.3218166,17.338768 C41.3653081,17.4713454 41.4248219,17.5867774 41.5003597,17.6850675 C41.5758976,17.7833577 41.6617347,17.8610743 41.7578738,17.9182197 C41.8540129,17.9753651 41.9570175,18.0039374 42.0668907,18.0039374 C42.1264053,18.0039374 42.1904971,17.9845083 42.2591679,17.9456494 C42.3278386,17.9067905 42.3965083,17.8519317 42.4651791,17.7810714 C42.5338499,17.710211 42.5990861,17.6233513 42.6608898,17.5204895 C42.7226935,17.4176278 42.7741958,17.3021957 42.8153982,17.17419 C42.8657568,17.0050395 42.9069586,16.8381774 42.939005,16.6735986 C42.9710514,16.5090197 42.9985192,16.3627296 43.0214095,16.2347239 C43.0305656,16.1570061 43.0408661,16.0701463 43.0523112,15.974142 C43.0637563,15.8781377 43.0740568,15.7935638 43.0832129,15.7204176 L44.7313029,15.7341324 Z" id="۱۸/۷۵" transform="translate(28.538818, 14.798095) rotate(-26.000000) translate(-28.538818, -14.798095) "></path>
                    <path d="M51.9622039,2.86764706 C51.9622039,2.86764706 52.175601,3.29248366 52.3889982,3.92973856 C52.6023953,4.24836601 52.7090939,4.77941176 52.8157925,5.31045752 C53.0291896,5.84150327 53.0291896,6.47875817 53.1358882,7.22222222 C53.2425868,8.70915033 53.0291896,10.5147059 52.3889982,12.4264706 C51.7488068,14.3382353 50.6818211,16.4624183 49.1880411,18.4803922 C46.2004811,22.5163399 41.7191411,26.5522876 36.1708154,29.5261438 C34.783734,30.2696078 33.289954,30.9068627 31.9028726,31.6503268 C30.4090926,32.2875817 28.8086141,32.8186275 27.2081355,33.3496732 C24.0071784,34.3055556 20.6995227,34.8366013 17.2851684,34.9428105 C13.8708142,34.9428105 10.4564599,34.5179739 7.2555028,33.0310458 C4.16124426,31.6503268 1.60047856,28.7826797 0.640191424,25.7026144 C-0.213397141,22.3039216 0.426794283,19.2238562 1.60047856,16.4624183 C2.77416284,13.8071895 4.48133997,11.5767974 6.1885171,9.66503268 C7.89569423,7.75326797 9.60287136,6.26633987 11.3100485,5.09803922 C12.1636371,4.46078431 12.910527,3.92973856 13.657417,3.50490196 C14.404307,2.97385621 15.0444985,2.54901961 15.6846899,2.23039216 C16.9650727,1.4869281 17.9253599,0.955882353 18.6722499,0.637254902 C19.4191399,0.318627451 19.7392356,0.10620915 19.7392356,0.10620915 C19.7392356,0.10620915 19.4191399,0.318627451 18.6722499,0.743464052 C18.0320584,1.16830065 16.9650727,1.69934641 15.7913885,2.44281046 C15.151197,2.86764706 14.5110056,3.29248366 13.8708142,3.82352941 C13.1239242,4.35457516 12.3770342,4.88562092 11.6301442,5.52287582 C10.0296656,6.79738562 8.42918708,8.39052288 6.82870852,10.1960784 C5.22822996,12.001634 3.73444997,14.2320261 2.66746427,16.7810458 C1.60047856,19.3300654 1.17368428,22.3039216 1.92057427,25.0653595 C2.77416284,27.9330065 4.90813425,30.2696078 7.78899566,31.5441176 C10.6698571,32.9248366 13.8708142,33.3496732 17.0717713,33.3496732 C20.2727284,33.3496732 23.5803841,32.8186275 26.6746427,31.8627451 C28.2751212,31.4379085 29.7689012,30.9068627 31.1559826,30.375817 C32.6497626,29.7385621 34.036844,29.1013072 35.4239255,28.3578431 C38.0913897,26.870915 40.6521554,25.3839869 42.7861268,23.5784314 C44.9200982,21.7728758 46.8406725,19.8611111 48.3344525,17.9493464 C49.8282325,16.0375817 51.0019168,14.0196078 51.7488068,12.2140523 C52.4956968,10.4084967 52.8157925,8.60294118 52.8157925,7.22222222 C52.8157925,6.47875817 52.8157925,5.84150327 52.7090939,5.31045752 C52.6023953,4.77941176 52.6023953,4.24836601 52.3889982,3.92973856 C52.0689025,3.18627451 51.9622039,2.86764706 51.9622039,2.86764706 Z" id="Shape" fill-rule="nonzero"></path>
                </g>
                <g id="Group" transform="translate(15.443214, 44.161765)" fill-rule="nonzero" fill="#0F7986">
                    <path d="M29.5607688,3.78704657 C29.3929993,3.61670833 29.3947542,3.34297549 29.5663845,3.17544118 C29.7369618,3.00790686 30.0110789,3.00965931 30.1788484,3.17999755 L31.6571851,4.68535294 L35.6608384,0.353995098 C35.8229921,0.17804902 36.0974602,0.166132353 36.2743552,0.328409314 C36.4505482,0.490335784 36.4614287,0.764419118 36.2999769,0.941066176 L31.9871083,5.60644118 L31.9871083,5.60644118 L31.9723671,5.62221324 C31.8017898,5.78974755 31.5276727,5.7879951 31.3588503,5.61765686 L29.5614708,3.78704657 L29.5607688,3.78704657 L29.5607688,3.78704657 Z" id="Shape"></path>
                    <path d="M0.200761784,3.78704657 C0.0329923212,3.61670833 0.0347472319,3.34297549 0.206377498,3.17544118 C0.376954819,3.00790686 0.65107187,3.00965931 0.818841333,3.17999755 L2.29717811,4.68535294 L6.30083138,0.353995098 C6.46298513,0.17804902 6.73745316,0.166132353 6.91434816,0.328409314 C7.0905412,0.490335784 7.10142164,0.764419118 6.93996986,0.941066176 L2.62710132,5.60679167 L2.62710132,5.60679167 L2.61236007,5.62256373 C2.44178275,5.79009804 2.1676657,5.78834559 1.99884329,5.61800735 L0.201463749,3.78739706 L0.200761784,3.78739706 L0.200761784,3.78704657 L0.200761784,3.78704657 Z" id="Shape"></path>
                </g>
                <g id="Group" transform="translate(16.145178, 72.901961)" fill-rule="nonzero" fill="#FF5B62">
                    <path d="M0.126704553,1.28629902 C-0.0171981249,1.14259804 -0.0171981249,0.908821078 0.126704553,0.764419118 C0.27060723,0.620718137 0.505414282,0.620718137 0.64931696,0.764419118 L4.80354157,4.91282108 C4.94744425,5.05652206 4.94744425,5.291 4.80354157,5.43470098 C4.65963889,5.57840196 4.42483184,5.57840196 4.28092917,5.43470098 L0.126704553,1.28629902 Z" id="Shape"></path>
                    <path d="M4.80354157,1.28629902 C4.94744425,1.14259804 4.94744425,0.908821078 4.80354157,0.764419118 C4.65963889,0.620718137 4.42483184,0.620718137 4.28092917,0.764419118 L0.126704553,4.91282108 C-0.0171981249,5.05652206 -0.0171981249,5.291 0.126704553,5.43470098 C0.27060723,5.57840196 0.505414282,5.57840196 0.64931696,5.43470098 L4.80354157,1.28629902 Z" id="Shape"></path>
                    <path d="M30.4487536,0.945622549 C30.2588723,0.756007353 30.2588723,0.448627451 30.4487536,0.259713235 C30.638635,0.0700980392 30.9464463,0.0700980392 31.1356257,0.259713235 L36.5990137,5.71544363 C36.788895,5.90505882 36.788895,6.21243873 36.5990137,6.40135294 C36.4091323,6.59096814 36.101321,6.59096814 35.9121416,6.40135294 L30.4487536,0.945622549 Z" id="Shape"></path>
                    <path d="M36.5993646,0.945622549 C36.789246,0.756007353 36.789246,0.448627451 36.5993646,0.259713235 C36.4094833,0.0700980392 36.101672,0.0700980392 35.9124926,0.259713235 L30.4491046,5.71544363 C30.2592233,5.90505882 30.2592233,6.21243873 30.4491046,6.40135294 C30.6389859,6.59096814 30.9467973,6.59096814 31.1359766,6.40135294 L36.5993646,0.945622549 Z" id="Shape"></path>
                </g>
            </g>
        </g>
    </g>
</svg>