<?xml version="1.0" encoding="UTF-8"?>
<svg width="260px" height="260px" viewBox="0 0 260 260" version="1.1" xmlns="http://www.w3.org/2000/svg" xmlns:xlink="http://www.w3.org/1999/xlink">
    <title>ic-home-workPlus</title>
    <g id="ic-home-workPlus" stroke="none" stroke-width="1" fill="none" fill-rule="evenodd">
        <g id="checklist" transform="translate(7.000000, 1.000000)">
            <g id="#ffc107ff" transform="translate(5.000000, 63.000000)" fill="#FFC850" fill-rule="nonzero">
                <path d="M17.0125732,0.49598992 C22.6330566,0.4921875 28.2235107,2.75725446 32.1723633,6.78013393 C36.0061035,10.5719866 38.2432861,15.8554688 38.4584298,21.2393973 L38.4584298,120.751674 C38.1381836,124.37779 37.3323975,127.978795 35.815918,131.303571 C31.9921875,139.726004 28.1984863,148.163504 24.3497314,156.575893 C23.1035156,159.428571 20.1005859,161.201451 17.0375977,161.241629 C10,153 3.85403764,128.795265 3.86474609,123.930804 C3.91449165,101.333212 1.26106261,102.81411 1.30224609,80.2165179 C1.26859995,66.7111663 -1.26025391,48.0736607 1.30224609,31.359375 C3.86474609,14.6450893 6,3 17.0125732,0.49598992 Z" id="Path"></path>
            </g>
            <g id="#dea806ff" transform="translate(0.000000, 63.000000)" fill="#FFDC64" fill-rule="nonzero">
                <path d="M1.9516059,13.5401786 C5.13107639,5.81584821 13.1770833,0.266183036 21.5375434,0.497209821 C21.7322049,26.6132813 21.5575087,52.7393973 21.6223958,78.8554688 C21.5724826,106.317522 21.7072483,133.779576 21.5625,161.241629 C18.4079861,161.362165 15.4181858,159.272879 14.2102865,156.380022 C10.3719618,147.892299 6.52864583,139.409598 2.70529514,130.916853 C0.968315972,127.034598 0.249565972,122.770647 0.209635417,118.531808 C0.214626736,87.2176339 0.214626736,55.9034598 0.209635417,24.5892857 C0.149739583,20.8476562 0.404296875,16.9955357 1.9516059,13.5401786 Z" id="Path"></path>
            </g>
            <g id="#eceff1ff" transform="translate(81.000000, 32.000000)" fill-rule="nonzero">
                <path d="M83.7817383,-6.17390687e-13 C88.3511963,0.0100319602 129.641479,-0.0150479403 134.210938,0.0100319602 C138.940552,0.045143821 143.645142,1.29913885 147.809204,3.54128196 C155.086304,7.44371449 160.546631,14.5714222 162.413452,22.6321023 C163.434448,26.5395508 163.194214,30.6125266 163.219238,34.6102628 C163.219238,88.1056907 163.224243,141.606135 163.219238,195.106578 C163.279297,202.640581 160.306396,210.139471 155.106323,215.576793 C150.031372,221.004084 142.829346,224.219327 135.452148,224.715886 L0.495454653,224.715886 C0.485473633,210.460494 3.09301758,12.4847745 3.06298828,-4.86739989e-13 C50.4692383,-2.03725058e-13 79.2122803,-0.0100319602 83.7817383,-6.17390687e-13 Z" id="Path" fill="#F6F6F6"></path>
                <path d="M67.1154785,85.6328125 C71.4447021,85.5324929 75.7839355,85.6027166 80.1131592,85.5876687 C81.6546631,85.4020774 83.1861572,86.6661044 83.1361084,88.2561701 C83.2362061,90.9347035 83.1411133,93.6232688 83.1661377,96.3068182 C77.815918,96.3770419 72.4606934,96.346946 67.1104736,96.3168501 C67.1254883,92.7555043 67.1154785,89.1941584 67.1154785,85.6328125 Z" id="Path" fill="#ECEFF1"></path>
            </g>
            <g id="#cdd0d2ff" transform="translate(52.000000, 31.000000)" fill-rule="nonzero">
                <path d="M7.79749178,9.83132102 C13.3763877,3.75195312 21.6325555,0.110351562 29.8837377,0.501598011 C34.0666632,0.501598011 38.2545744,0.501598011 42.4375,0.501598011 C53.8101517,0.501598011 71.5722131,0.501598011 95.7236842,0.501598011 C95.7182994,17.1743776 95.7133138,27.8717912 95.7087274,32.5938388 C95.738641,45.0786133 95.7236842,57.5633878 95.7236842,70.0531783 C95.7236842,103.228871 95.7236842,159.728871 95.7037418,182.446245 C95.7585835,196.70166 95.7087274,210.962092 95.7186986,225.217507 L26.1644737,225.217507 C19.1098376,224.304599 12.32941,220.999068 7.56815378,215.631969 C3.3254009,211.077459 0.837582237,205.098411 0,198.953835 L0,27.1866122 C0.673057155,20.7661577 3.35531456,14.5212624 7.79749178,9.83132102 Z" id="Path" fill="#E4EAF8"></path>
                <path d="M79.7946649,88.7126243 C79.8345498,87.4335494 80.9164268,86.1394265 82.2625411,86.2246982 C86.7446032,86.1043146 91.2316509,86.2848899 95.713713,86.1344105 C95.713713,89.6957564 95.7236842,93.2571023 95.7087274,96.8184482 C90.3990543,96.8134322 85.0843956,96.7682884 79.7747225,96.8385121 C79.7896793,94.1298828 79.7248664,91.4212536 79.7946649,88.7126243 Z" id="Path" fill="#CDD0D2"></path>
            </g>
            <g id="#5a7582ff" transform="translate(94.000000, 0.000000)" fill="#5A7582" fill-rule="nonzero">
                <path d="M50.4592634,0 L54.6227679,0 C62.3822545,0.220352564 70.0212054,3.3203125 75.6662946,8.64383013 C79.438058,12.1344151 82.2907366,16.5514824 84.0636161,21.3641827 C88.5033482,21.3992388 92.9430804,21.2940705 97.3777902,21.4092548 C102.816964,21.6546474 107.432478,26.6326122 107.30692,32.0512821 C107.050781,37.4198718 107.874442,42.9036458 106.573661,48.1770833 C104.69029,55.4487179 98.6936384,61.4933894 91.3861607,63.3563702 C88.1216518,64.2728365 84.7064732,64.047476 81.3616071,64.072516 C72.1506696,64.0875401 62.9347098,64.047476 53.7237723,64.0925481 C42.6796875,64.1175881 31.6305804,64.0925481 20.5864955,64.1075721 C15.1523438,63.8671875 9.84877232,61.4533253 6.11216518,57.5170272 C2.47600446,53.8060897 0.366629464,48.7279647 0.135602679,43.5647035 C0.00502232143,39.7285657 0.140625,35.8874199 0.0595576077,32.0512821 C-0.00502232143,26.6977163 4.43973214,21.7447917 9.81361607,21.3541667 C14.3487723,21.098758 18.9040179,21.3842147 23.4441964,21.2089343 C27.3816964,9.71053686 38.4157366,1.31710737 50.4592634,0 Z" id="Path"></path>
                <path d="M21.6160714,93.905649 C22.1735491,85.0815304 29.8125,77.3591747 38.6768973,76.7982772 C43.6941964,76.5979567 48.7165179,76.7331731 53.7388393,76.7231571 C58.2488839,76.7632212 62.7589286,76.708133 67.2639509,76.7481971 C70.3526786,76.7932692 73.4363839,77.5645032 76.1434152,79.056891 C81.703125,82.0667067 85.5401786,88.0512821 85.8063616,94.3764022 C85.9118304,97.391226 85.8214286,100.416066 85.8515625,103.435897 C80.5128348,103.345753 75.1741071,103.350761 69.8353795,103.435897 C69.8102679,100.756611 69.905692,98.0723157 69.8052455,95.3980369 C69.8554687,93.8104968 68.3186384,92.5484776 66.7717634,92.733774 C62.4274554,92.7487981 58.0731027,92.6786859 53.7287946,92.7788462 C49.2137277,92.9290865 44.6936384,92.7487981 40.1785714,92.8689904 C38.8225446,92.7838542 37.7327009,94.0759215 37.6925223,95.3529647 C37.6222098,98.0572917 37.6875,100.761619 37.672433,103.465946 C32.3136161,103.561098 26.9497768,103.561098 21.5909598,103.465946 C21.6261161,100.280849 21.5457589,97.0907452 21.6160714,93.905649 Z" id="Path"></path>
            </g>
            <g id="#5eaae6ff" transform="translate(83.000000, 103.000000)" fill="#5EAAE6" fill-rule="nonzero">
                <path d="M14.9999111,0.944565717 C17.4722845,0.29486443 20.044957,0.529756434 22.5674799,0.499770221 C25.9074407,0.519761029 29.2524165,0.454790901 32.5923773,0.529756434 C37.9433355,0.624712776 43.2993086,0.624712776 48.6502668,0.529756434 C53.9911951,0.459788603 59.3371384,0.504767923 64.6780667,0.509765625 C70.0390548,0.539751838 75.4050579,0.569738051 80.766046,0.499770221 C86.0969444,0.414809283 91.4278427,0.409811581 96.7587411,0.499770221 C101.45274,0.604721967 106.146739,0.469784007 110.840738,0.564740349 C116.95397,0.689682904 122.836513,4.13309972 126.026025,9.32071461 C128.458279,13.0190142 128.933058,14.5732996 128.869505,65.3649472 C111.432503,71.207261 68.4868901,79.3705193 64.5,80.5 C43.1563467,73.2633272 21.9355955,72.281767 0.500548456,65.3049747 C0.500548456,15.8527114 0.426448579,15.8377183 1.50466415,13.0440028 C3.53070643,7.06175322 8.82148516,2.33392693 14.9999111,0.944565717 Z" id="Path"></path>
            </g>
            <g id="#1d83d4ff" transform="translate(83.000000, 124.000000)" fill="#1D83D4" fill-rule="nonzero">
                <path d="M0.503305288,0.317082332 C22.0145733,7.34322416 43.5006761,14.4750601 64.9213492,21.7629207 C64.9314153,36.1071214 64.9364483,50.4462891 64.90625,64.7904898 C50.154372,64.8659856 35.402494,64.7904898 20.6455829,64.8257212 C18.0283954,64.8559195 15.3709435,64.5690355 12.9047476,63.6429537 C7.03620793,61.5592698 2.37560096,56.3701923 0.991511418,50.2952975 C0.407677284,48.1663161 0.493228592,45.9467398 0.503305288,43.7623948 C0.503305288,29.2823017 0.498272236,14.7971755 0.503305288,0.317082332 Z" id="Path"></path>
            </g>
            <g id="#2196f3ff" transform="translate(147.000000, 124.000000)" fill="#2196F3" fill-rule="nonzero">
                <path d="M12.3561506,17.9025691 C29.8536996,12.0189303 47.391496,6.26111779 64.8840141,0.377478966 C64.889045,15.8591496 64.9443851,31.3408203 64.8588595,46.8174579 C64.6475607,56.1185397 56.562868,64.3526142 47.260692,64.7049279 C31.6698627,64.8458534 16.0740024,64.6797626 0.483173077,64.7904898 C0.513358613,50.4462891 0.50832769,36.1071214 0.498265845,21.7629207 C4.49784936,20.6254507 8.39681442,19.1708984 12.3561506,17.9025691 Z" id="Path"></path>
            </g>
            <g id="Group" transform="translate(108.000000, 202.000000)">
                <path d="M84.9490881,0.851083032 C85.7317432,2.42446439 86.4138161,4.0427995 86.9984501,5.70287738 C82.7425664,7.49781652 78.4741099,9.26385682 74.2087966,11.0363191 C76.5819075,13.6307928 78.9864504,16.2670094 80.5454743,19.4812027 C81.8373267,21.8476967 82.9657331,24.8435432 85.7097408,25.7715171 C88.0262743,26.2338986 90.411958,25.9224333 92.7567802,25.986653 C94.6458393,25.8742686 96.8303587,25.9320663 98.3422346,24.5898756 C98.7445634,23.1834654 98.0373449,21.7642112 97.5407204,20.4766072 C96.8460746,19.0734079 96.2142928,17.6445208 95.5825109,16.2124227 C97.2075419,15.3647233 98.851432,14.5555558 100.520468,13.8073969 C101.81232,16.5270989 102.78671,19.426616 103.207898,22.4256735 C103.585081,25.0394132 102.726989,27.9036094 100.693343,29.611852 C99.2789062,30.8512912 97.4244222,31.438901 95.5825109,31.5127536 C92.9422286,31.63156 90.2956598,31.6026611 87.6585207,31.4999097 C86.9292998,31.4999097 86.9292998,31.4999097 85.7348864,31.3811033 C83.3900642,31.5737623 81.3564181,30.0870774 79.6245186,28.6614013 C78.3232366,29.8623087 76.8616517,31.0278953 75.0857475,31.3361496 C72.5114722,31.798531 69.8869058,31.4806438 67.2906282,31.5737623 C65.7473203,31.5512854 64.1662941,31.7407334 62.6512749,31.3554155 C61.6265939,31.0567941 60.7087815,30.4820283 59.8035418,29.9233173 C58.5494077,30.7324849 57.188405,31.4999097 55.6639562,31.5416524 C53.7780403,31.621927 51.8858379,31.615505 49.9967787,31.5544964 C48.4691868,31.5352305 47.0987545,30.7774386 45.838334,29.9650601 C43.7543969,30.8095485 41.5667343,31.4870657 39.3067784,31.5320195 C36.6099185,31.618716 33.8941995,31.6540368 31.2099125,31.3297276 C29.4654402,31.1467016 27.771259,30.0646006 25.9953548,30.6425774 C22.2486684,31.615505 18.3448224,31.6540368 14.5038402,31.5352305 C10.9426022,31.3489935 7.20848856,30.8577132 4.15644788,28.8315833 C1.94363981,27.3962742 0.42547745,24.8306993 0.437346527,22.1238412 C0.403475097,19.3334975 1.64817964,16.7615006 3.02804149,14.4303274 C4.48019679,15.4706857 5.82862671,16.6266394 7.07961763,17.9078213 C6.33153763,19.2885438 5.45458671,20.6596332 5.19055847,22.2394365 C5.04597158,23.604104 6.47298133,24.339419 7.52280789,24.7568467 C11.9452808,26.3270171 16.713505,25.970598 21.3182832,25.9641761 C20.4821938,24.516023 19.6492476,22.9201648 19.8629847,21.1766014 C20.1018674,17.5770902 22.5158399,13.8651945 26.1273689,13.1330906 C30.2040906,12.4427294 33.8439084,16.2348995 34.2493804,20.1940408 C34.5511269,22.1463181 33.8753404,24.0472196 33.0706829,25.7843611 C35.5883807,26.0380287 38.1469401,26.1825229 40.6520651,25.7490403 C41.8747673,25.5082166 43.2923475,24.8146444 43.4903686,23.4114451 C43.6255259,21.9183383 43.1886221,20.4541304 42.8523004,19.0156103 C44.5024769,18.4954311 46.1652261,18.0169947 47.8405481,17.5899341 C48.3811774,19.250012 48.7237855,20.9678875 48.8369404,22.7146619 C49.0192456,23.7582312 49.0161024,25.0394132 49.8773374,25.7747281 C51.5558026,26.166468 53.3159908,26.0861934 55.0227448,25.9545431 C56.2265878,25.8742686 56.7955058,24.5545548 57.0060998,23.5045636 C57.3361351,21.3532054 56.9966702,19.1697374 57.0281021,17.0055353 C57.0469613,12.5872236 56.9432359,8.16891183 56.7357851,3.75702207 C58.5274053,3.33638338 60.3378846,3.02170711 62.1640799,2.81299326 C62.7927186,9.55605621 62.4343946,16.3440729 62.4406809,23.1031908 C62.4972584,24.0825404 62.4406809,25.5563813 63.613092,25.8614246 C65.6498813,26.3013292 67.743248,25.9031674 69.8051828,25.9930749 C71.986559,25.9994969 74.5639774,26.3141732 76.2330131,24.5449219 C77.2419781,23.620159 76.638485,22.1334741 76.1952948,21.0738499 C74.7179939,18.0523155 72.4077469,15.5316944 69.890049,13.3835472 C69.5600137,13.0752929 69.2205489,12.7670386 68.9753798,12.3817207 C68.6579173,10.7569636 69.1388258,9.1225736 69.3242742,7.50744947 C74.5356887,5.29508262 79.7188144,3.00886318 84.9490881,0.851083032 Z" id="Path" fill="#64A4EE"></path>
                <path d="M95.5951748,4.53858303 C96.8308659,5.8466399 98.2414188,6.98408066 99.5159681,8.26180578 C100.786631,6.98408066 102.197184,5.8466399 103.436761,4.53858303 C104.785141,5.83905697 106.417186,6.90825128 107.435271,8.49687687 C107.470243,8.89877261 107.05446,9.16417545 106.852398,9.47128445 C105.818769,10.5594361 104.792913,11.7044598 103.460076,12.4589622 C102.057295,11.3215214 100.829376,9.9945072 99.5159681,8.75848825 C98.2453046,10.0589622 96.8347517,11.2191518 95.5796315,12.538583 C94.1457637,11.2494835 92.7624114,9.90351194 91.4373465,8.51204275 C92.727439,7.09403327 94.1457637,5.79735081 95.5951748,4.53858303 Z" id="Path" fill="#64A4EE"></path>
                <path d="M36.6657189,33.726083 C37.8994446,35.052566 39.3022791,36.2109032 40.5859687,37.4925473 C41.8696584,36.2109032 43.2724929,35.052566 44.5062186,33.726083 C45.9205832,34.9965174 47.2772971,36.3230004 48.5802037,37.6980587 C47.3426346,39.1478486 45.9743906,40.4780681 44.5215921,41.726083 C43.2686495,40.4220195 41.8696584,39.2599457 40.5859687,37.9857748 C39.3253394,39.2412629 37.9417218,40.3809172 36.7041527,41.6588247 C35.2475109,40.4257561 33.8638933,39.1104828 32.5802037,37.7092685 C33.8831102,36.3267369 35.2475109,35.000254 36.6657189,33.726083 Z" id="Path" fill="#64A4EE"></path>
                <path d="M23.5899914,21.0669129 C24.0656847,22.3864793 25.3236293,23.6007281 26.8916555,23.913583 C28.2834989,23.2630926 29.4427812,21.9930874 29.5802037,20.5898866 C29.3476425,19.3260766 28.1178871,18.0932423 26.6485233,17.913583 C24.9959295,18.1489986 23.4419979,19.5429067 23.5899914,21.0669129 Z" id="Path" fill="#E4EAF8"></path>
                <path d="M31.2944894,7.16969052 C30.5103718,8.79107692 28.7762029,9.78644541 27.5561029,11.101083 C26.2058589,9.82713657 24.8686293,8.54066976 23.5802037,7.2072516 C24.8751365,5.92078478 26.1895909,4.65622859 27.5300741,3.41358303 C28.7794565,4.66561886 30.2598446,5.72671923 31.2944894,7.16969052 Z" id="Path" fill="#64A4EE"></path>
            </g>
            <g id="Group-2" transform="translate(83.000000, 216.000000)" stroke="#64A4EE" stroke-width="4">
                <line x1="0" y1="7.5" x2="15" y2="7.5" id="Line-6"></line>
                <line x1="7.5" y1="0" x2="7.5" y2="15" id="Line-6-Copy"></line>
            </g>
        </g>
    </g>
</svg>