<?xml version="1.0" encoding="UTF-8"?>
<svg width="100px" height="100px" viewBox="0 0 100 100" version="1.1" xmlns="http://www.w3.org/2000/svg" xmlns:xlink="http://www.w3.org/1999/xlink">
  <!-- Generator: Sketch 53.1 (72631) - https://sketchapp.com -->
  <title>icon/ic-daily-book</title>
  <desc>Created with Sketch.</desc>
  <g id="icon/ic-daily-book" stroke="none" stroke-width="1" fill="none" fill-rule="evenodd">
    <g id="Group" transform="translate(4.000000, 0.000000)" fill-rule="nonzero">
      <g id="notebook">
        <polygon id="XMLID_1016_" fill="#DEDDE0" points="17.5 85 17.5 77.5 37.5 77.5 37.5 70 17.5 70 17.5 62.5 37.5 62.5 37.5 55 17.5 55 17.5 47.5 37.5 47.5 37.5 40 17.5 40 17.5 32.5 37.5 32.5 37.5 17.5 0 17.5 0 100 37.5 100 37.5 85"></polygon>
        <polygon id="XMLID_1017_" fill="#CDCDD0" points="37.5 32.5 37.5 40 37.5 47.5 57.5 47.5 57.5 55 37.5 55 37.5 62.5 57.5 62.5 57.5 70 37.5 70 37.5 77.5 57.5 77.5 57.5 85 37.5 85 37.5 100 75 100 75 17.5 37.5 17.5"></polygon>
        <polygon id="XMLID_1018_" fill="#FF9811" points="66.25 5 66.25 10 58.75 10 58.75 5 41.25 5 41.25 10 37.5 10 37.5 17.5 75 17.5 75 5"></polygon>
        <polygon id="XMLID_1019_" fill="#FFDA44" points="37.5 10 33.75 10 33.75 5 16.25 5 16.25 10 8.75 10 8.75 5 0 5 0 17.5 37.5 17.5"></polygon>
        <rect id="XMLID_1020_" fill="#FFFFFF" x="17.5" y="32.5" width="20" height="7.5"></rect>
        <polygon id="XMLID_1021_" fill="#FFFFFF" points="17.5 55 37.5 55 57.5 55 57.5 47.5 37.5 47.5 17.5 47.5"></polygon>
        <polygon id="XMLID_1022_" fill="#FFFFFF" points="17.5 70 37.5 70 57.5 70 57.5 62.5 37.5 62.5 17.5 62.5"></polygon>
        <polygon id="XMLID_1023_" fill="#FFFFFF" points="17.5 85 37.5 85 57.5 85 57.5 77.5 37.5 77.5 17.5 77.5"></polygon>
        <polygon id="XMLID_1024_" fill="#565659" points="16.25 10 16.25 5 16.25 0 8.75 0 8.75 5 8.75 10"></polygon>
        <polygon id="XMLID_1025_" fill="#565659" points="37.5 10 41.25 10 41.25 5 41.25 0 33.75 0 33.75 5 33.75 10"></polygon>
        <polygon id="XMLID_1026_" fill="#565659" points="66.25 10 66.25 5 66.25 0 58.75 0 58.75 5 58.75 10"></polygon>
      </g>
      <g id="pencil" transform="translate(78.000000, 2.000000)">
        <rect id="Rectangle" fill="#E0E1E2" x="0" y="12" width="7" height="7"></rect>
        <path d="M7,0 L3.47375,0 C2.99425,0 2.5375,0.096 2.121,0.267428571 C1.91275,0.353142857 1.715,0.457714286 1.53125,0.581142857 C0.60725,1.19314286 0,2.22857143 0,3.40285714 L0,12 L7,12 L7,0 Z" id="Path" fill="#D75A4A"></path>
        <path d="M10.227,0.844 L10.227,0.844 C10.775,0.844 11.297,0.956 11.773,1.156 C11.297,0.956 10.775,0.844 10.227,0.844 Z" id="Path" fill="#D75A4A"></path>
        <rect id="Rectangle" fill="#DB7B1B" x="6" y="19" width="7" height="63"></rect>
        <rect id="Rectangle" fill="#C4C4C4" x="6" y="12" width="7" height="7"></rect>
        <path d="M12.875,4 L12.875,4 C12.875,2.75151883 12.181,1.65066829 11.125,1 C12.181,1.65066829 12.875,2.75151883 12.875,4 Z" id="Path" fill="#D75A4A"></path>
        <path d="M13,12 L13,3.40285714 C13,2.22857143 12.39275,1.19314286 11.46875,0.581142857 C11.285,0.459428571 11.0855,0.353142857 10.879,0.267428571 C10.4625,0.096 10.00575,0 9.52625,0 L6,0 L6,12 L13,12 Z" id="Path" fill="#B74C44"></path>
        <polygon id="Path" fill="#EBD6BD" points="13 82 0 82 6.5 94"></polygon>
        <path d="M5,96.4 C5,97.2848 5.6705,98 6.5,98 C7.3295,98 8,97.2848 8,96.4 L8,90 L5,90 L5,96.4 Z" id="Path" fill="#4C4C4C"></path>
        <rect id="Rectangle" fill="#ED8A19" x="0" y="19" width="7" height="63"></rect>
      </g>
    </g>
  </g>
</svg>