<?xml version="1.0" encoding="UTF-8" standalone="no"?>
<svg width="97px" height="112px" viewBox="0 0 97 112" version="1.1" xmlns="http://www.w3.org/2000/svg" xmlns:xlink="http://www.w3.org/1999/xlink">
    <!-- Generator: Sketch 43 (38999) - http://www.bohemiancoding.com/sketch -->
    <title>money-bag</title>
    <desc>Created with Sketch.</desc>
    <defs></defs>
    <g id="لاگین" stroke="none" stroke-width="1" fill="none" fill-rule="evenodd">
        <g id="صفحه-اول" transform="translate(-402.000000, -1799.000000)">
            <g id="money-bag" transform="translate(402.000000, 1799.000000)">
                <path d="M96.7844444,91.0438554 C96.7844444,112.994056 75.2288889,111.734618 48.4640741,111.734618 C21.6992593,111.734618 0.143703704,112.814137 0.143703704,91.0438554 C0.143703704,69.0936546 21.6992593,32.5699598 48.4640741,32.5699598 C75.2288889,32.7498795 96.7844444,69.2735743 96.7844444,91.0438554 Z" id="Shape" fill="#DDDDDD" fill-rule="nonzero"></path>
                <path d="M48.4640741,32.7498795 C75.2288889,32.7498795 96.7844444,69.2735743 96.7844444,91.2237751 C96.7844444,113.173976 75.2288889,111.914538 48.4640741,111.914538" id="Shape" fill="#C8C8C8" fill-rule="nonzero"></path>
                <path d="M24.9325926,10.08 C24.9325926,-0.535261044 35.5307407,0.00449799197 48.4640741,0.00449799197 C61.3974074,0.00449799197 71.9955556,-0.535261044 71.9955556,10.08 C71.9955556,20.695261 61.3974074,38.5073092 48.4640741,38.5073092 C35.5307407,38.5073092 24.9325926,20.695261 24.9325926,10.08 Z" id="Shape" fill="#DDDDDD" fill-rule="nonzero"></path>
                <path d="M48.4640741,0.00449799197 C61.3974074,0.00449799197 71.9955556,-0.535261044 71.9955556,10.08 C71.9955556,20.695261 61.3974074,38.5073092 48.4640741,38.5073092" id="Shape" fill="#C8C8C8" fill-rule="nonzero"></path>
                <path d="M69.1214815,34.728996 C69.1214815,36.5281928 67.6844444,37.9675502 65.8881481,37.9675502 L31.04,37.9675502 C29.2437037,37.9675502 27.8066667,36.5281928 27.8066667,34.728996 L27.8066667,33.8293976 C27.8066667,32.0302008 29.2437037,30.5908434 31.04,30.5908434 L66.0677778,30.5908434 C67.8640741,30.5908434 69.3011111,32.0302008 69.3011111,33.8293976 L69.3011111,34.728996 L69.1214815,34.728996 Z" id="Shape" fill="#64A4EE" fill-rule="nonzero"></path>
                <path d="M30.5011111,30.7707631 L66.0677778,30.7707631 C67.8640741,30.7707631 69.3011111,32.2101205 69.3011111,34.0093173 L69.3011111,34.9089157 C69.3011111,36.7081124 67.5048148,38.1474699 65.7085185,38.1474699" id="Shape" fill="#4087D9" fill-rule="nonzero"></path>
                <ellipse id="Oval" fill="#64A4EE" fill-rule="nonzero" cx="48.4640741" cy="76.2904418" rx="21.5555556" ry="21.5903614"></ellipse>
                <path d="M33.1955556,60.9972691 C41.6381481,52.5410442 55.29,52.5410442 63.7325926,60.9972691 C72.1751852,69.453494 72.1751852,83.1273896 63.7325926,91.5836145" id="Shape" fill="#4087D9" fill-rule="nonzero"></path>
                <path d="M55.1334007,82.0636125 C55.7741859,81.9372428 54.8489694,81.7683893 55.3655207,81.557047 C55.882072,81.3457046 56.329961,81.1093097 56.7092012,80.8478553 C57.0884414,80.5864008 57.3968419,80.3075202 57.6344119,80.0112051 C57.8719819,79.7148901 58.0299962,79.4185794 58.1084597,79.1222644 L57.768453,79.1222644 C57.6507578,79.1222644 57.5330643,79.1200856 57.4153691,79.115728 C57.2976738,79.1113705 57.1843394,79.1081023 57.0753623,79.1059235 C56.9663853,79.1037448 56.8704869,79.0982979 56.7876643,79.0895827 C56.3038061,79.0547221 55.8679044,78.9523207 55.4799461,78.7823753 C55.0919877,78.6124298 54.780318,78.3814819 54.5449275,78.0895244 C54.3792824,77.8803608 54.2604992,77.647234 54.1885743,77.3901371 C54.1166495,77.1330402 54.0806876,76.8628747 54.0806876,76.5796323 C54.0806876,76.357396 54.1013929,76.1329843 54.1428042,75.9063904 C54.1842155,75.6797966 54.2430622,75.458653 54.3193461,75.242953 C54.3956301,75.0272531 54.4839002,74.8235395 54.5841591,74.6318062 C54.684418,74.440073 54.7933934,74.2657726 54.9110886,74.1088999 C55.1464791,73.8082273 55.4080201,73.5805474 55.6957196,73.4258535 C55.983419,73.2711596 56.2841912,73.1938138 56.5980452,73.1938138 C57.273703,73.1938138 57.8905039,73.494482 58.4484665,74.0958273 C58.6315479,74.3006333 58.7971906,74.5294025 58.9453994,74.7821418 C59.0936082,75.0348811 59.2221992,75.3050467 59.3311763,75.5926466 C59.4401533,75.8802466 59.5284234,76.1798253 59.5959892,76.4913919 C59.663555,76.8029585 59.7060554,77.122146 59.7234917,77.4489641 L60.1018354,77.4489641 L60.1136992,79.1222644 L59.5927199,79.1222644 C59.4445111,79.7628278 59.1949574,80.3423766 58.8440512,80.8609279 C58.4931451,81.3794793 58.0714102,81.8315709 57.5788338,82.2172162 C57.0862575,82.6028616 56.5359316,82.9198704 55.9278396,83.1682521 C55.3197475,83.4166339 54.6844208,83.593113 54.0218402,83.6976948 L55.1334007,82.0636125 Z M60.1018354,77.4526629 C60.1018354,77.4526629 60.7456903,77.4413385 60.9854398,77.426087 C61.2251894,77.4108354 61.4551275,77.3803329 61.6752612,77.3345783 C61.8953949,77.2888238 62.0948199,77.2256399 62.2735423,77.1450248 C62.4522647,77.0644097 62.5852147,76.9609188 62.6723964,76.8345492 C62.7377826,76.7386825 62.771565,76.610136 62.7737445,76.4489057 C62.7759241,76.2876755 62.754129,76.1111964 62.7083586,75.9194631 C62.6625882,75.7277298 62.601562,75.526195 62.5252781,75.3148526 C62.4489941,75.1035103 62.3672625,74.8987073 62.2800809,74.7004377 C62.1928992,74.5021681 62.1068086,74.3147952 62.0218065,74.1383134 C61.9368044,73.9618316 61.8659704,73.8125869 61.8093023,73.6905748 L63.3327941,72.938897 C63.4504893,73.1480606 63.567093,73.3997067 63.6826087,73.693843 C63.7981244,73.9879793 63.8994715,74.2919156 63.9866532,74.6056609 C64.0738348,74.9194063 64.1446689,75.2287894 64.1991574,75.5338197 C64.2536459,75.8388499 64.2808898,76.1090155 64.2808898,76.3443245 C64.2808898,76.7670092 64.208966,77.1439338 64.0651163,77.4751094 C63.8994711,77.858576 63.6662637,78.173406 63.365487,78.419609 C63.0647103,78.6658119 62.7072709,78.8499167 62.2931581,78.9719288 C62.1667447,79.0067894 62.0087303,79.0340238 61.8191102,79.0536329 C61.6294901,79.073242 61.4366036,79.0884933 61.2404449,79.0993872 C61.0442862,79.1102812 60.8579382,79.1168174 60.6813953,79.1189962 C60.5048525,79.121175 60.1136992,79.1189962 60.1136992,79.1189962 L60.1018354,77.4526629 Z M56.5980452,74.8736504 C56.484709,74.8736504 56.3626565,74.921583 56.2318841,75.0174497 C56.1011116,75.1133163 55.9812386,75.2364159 55.8722615,75.3867523 C55.7632845,75.5370886 55.6728349,75.7037633 55.60091,75.8867814 C55.5289851,76.0697996 55.4930233,76.2484574 55.4930233,76.4227604 C55.4930233,76.6057786 55.5355237,76.757202 55.6205258,76.8770353 C55.7055279,76.9968686 55.8145033,77.0938232 55.9474553,77.167902 C56.0804074,77.2419807 56.2307935,77.297539 56.3986181,77.3345783 C56.5664428,77.3716177 56.7331752,77.3988522 56.8988204,77.4162825 C56.9903611,77.42064 57.0906185,77.4249975 57.1995956,77.4293551 C57.3085726,77.4337127 57.4208173,77.4358915 57.536333,77.4358915 L57.879609,77.4358915 C57.9929452,77.4358915 58.0997411,77.4315339 58.2,77.4228188 C58.1782046,77.1787946 58.1324349,76.9478466 58.0626896,76.7299679 C57.9929443,76.5120892 57.9112127,76.309465 57.8174924,76.1220893 C57.7237721,75.9347136 57.6213352,75.7658601 57.5101786,75.6155238 C57.399022,75.4651875 57.2954954,75.3355516 57.1995956,75.2266122 L57.1995956,75.2331485 C57.1254911,75.1547122 57.0350415,75.0751876 56.928244,74.9945725 C56.8214465,74.9139574 56.7113813,74.8736504 56.5980452,74.8736504 Z M61.2992922,70.7819084 L60.1877317,71.8930843 L59.063094,70.775372 L60.1746545,69.6576598 L61.2992922,70.7819084 Z M45.7714437,77.4469613 C46.0482468,77.4356474 46.291917,77.3763991 46.5024604,77.2692151 C46.7378509,77.1493818 46.9459939,76.9936008 47.1268959,76.8018675 C47.3077978,76.6101342 47.4669019,76.3944375 47.604213,76.1547709 C47.7415241,75.9151043 47.8712049,75.6754413 47.9932592,75.4357747 C48.1065953,75.2048233 48.2253785,74.976054 48.3496124,74.7494602 C48.4738463,74.5228663 48.607886,74.3180634 48.7517358,74.1350452 C48.9653308,73.8866635 49.2061665,73.6927543 49.4742501,73.5533119 C49.7423337,73.4138695 50.0267595,73.3441494 50.3275362,73.3441494 C50.684981,73.3441494 51.0140868,73.4182271 51.3148635,73.5663846 C51.6156402,73.7145421 51.8837198,73.9280601 52.1191102,74.2069448 C52.3021917,74.4291812 52.451488,74.6830061 52.5670037,74.9684272 C52.6825194,75.2538483 52.7577124,75.5599633 52.7925851,75.8867814 L52.7925851,75.8737088 C52.8187396,76.0436542 52.8318166,76.2266696 52.8318166,76.4227604 C52.8318166,76.6449967 52.8132908,76.8617828 52.7762386,77.0731252 C52.7391864,77.2844675 52.683609,77.4860023 52.6095046,77.6777356 C52.4787321,78.0089113 52.2912943,78.2877919 52.0471857,78.5143858 C51.8030771,78.7409796 51.537177,78.89785 51.2494776,78.9850015 C51.1535778,79.0111469 51.0576794,79.0296663 50.9617796,79.0405603 C50.8658798,79.0514542 50.7678019,79.0569011 50.667543,79.0569011 C50.4844615,79.0569011 50.2904852,79.0340242 50.0856084,78.9882696 C49.8807315,78.9425151 49.6758577,78.8804206 49.4709808,78.8019842 C49.3794401,78.7627661 49.2770032,78.7159228 49.163667,78.6614532 C49.0503309,78.6069835 48.9348169,78.5470677 48.8171217,78.4817041 C48.6994264,78.4163405 48.5828227,78.3477097 48.467307,78.2758097 C48.3517914,78.2039098 48.2439057,78.1331002 48.1436468,78.063379 C47.9736426,78.2289669 47.7971024,78.3782116 47.6140209,78.5111176 C47.4309394,78.6440236 47.2380529,78.7562295 47.0353556,78.8477385 C46.8326582,78.9392476 46.6190664,79.0078784 46.3945736,79.0536329 C46.1770349,79.0979701 45.94415,79.1208251 45.6959124,79.1221985 C45.6923259,79.1222424 45.688734,79.1222644 45.6851365,79.1222644 C45.6829543,79.1222644 45.6807734,79.1222632 45.6785939,79.1222609 C45.6764219,79.1222627 45.6742412,79.1222644 45.6720593,79.1222644 C45.6692316,79.1222644 45.6664089,79.1222518 45.6635912,79.1222266 C45.1671522,79.1204844 44.7406116,79.0584024 44.3839569,78.935979 C44.022153,78.8117881 43.7104833,78.6233258 43.4489383,78.3705865 C43.2920113,78.2137138 43.1710486,78.0448604 43.0860465,77.864021 C43.0010444,77.6831817 42.9389284,77.5067025 42.8996967,77.3345783 C42.8604649,77.1624542 42.8375801,76.9990476 42.8310415,76.8443537 C42.8245028,76.6896598 42.8212336,76.5556664 42.8212336,76.4423694 C42.8255927,76.302927 42.8310414,76.071979 42.83758,75.7495185 C42.8441187,75.427058 42.8473879,75.0370609 42.8473879,74.5795156 C42.8473879,74.1699036 42.8452084,73.7341527 42.8408493,73.2722498 C42.8364903,72.8103469 42.8266825,72.3538978 42.8114257,71.9028888 C42.7961689,71.4518799 42.7711045,71.0226652 42.7362319,70.615232 C42.7013592,70.2077988 42.65341,69.8515724 42.5923829,69.5465422 L44.2335693,69.0563175 C44.2815192,69.3090568 44.3229298,69.6010099 44.3578025,69.9321856 C44.3926752,70.2633613 44.4210088,70.6152301 44.4428042,70.9878027 C44.4645996,71.3603754 44.4820357,71.7427468 44.4951129,72.1349285 C44.5081902,72.5271102 44.5147287,72.9127498 44.5147287,73.2918588 C44.5147287,73.4051557 44.5158184,73.5249872 44.517998,73.6513569 C44.5201775,73.7777265 44.522357,73.9030049 44.5245366,74.0271958 C44.5267161,74.1513867 44.5278059,74.2723076 44.5278059,74.3899621 L44.5278059,74.7102422 C44.5278059,74.87583 44.5267161,75.031611 44.5245366,75.1775897 C44.522357,75.3235685 44.5201775,75.4640981 44.517998,75.599183 C44.5158184,75.7342678 44.5136389,75.8671718 44.5114594,75.997899 C44.5092798,76.1286263 44.5081901,76.2615303 44.5081901,76.3966151 C44.503831,76.5622029 44.50819,76.7179839 44.5212673,76.8639626 C44.5343445,77.0099414 44.5779347,77.1177897 44.6520391,77.1875109 C44.8089661,77.3530988 45.1337129,77.4380702 45.6262892,77.4424278 L45.6851365,77.4424278 C45.7142656,77.4424278 45.7430346,77.443939 45.7714437,77.4469613 Z M63.7708797,70.7884447 L62.6593192,71.906157 L61.5346815,70.7819084 L62.646242,69.6707324 L63.7708797,70.7884447 Z M49.1244355,76.6842136 C49.2682852,76.7887954 49.4306586,76.88575 49.6115605,76.9750802 C49.7924624,77.0644105 49.9711821,77.1417563 50.147725,77.2071199 C50.3242678,77.2724835 50.487731,77.3236843 50.6381193,77.3607237 C50.7885077,77.397763 50.9094704,77.4162825 51.0010111,77.4162825 C51.0576792,77.4162825 51.1121669,77.4097462 51.1644759,77.3966735 C51.2080667,77.3879583 51.2527467,77.3607239 51.298517,77.3149694 C51.3442874,77.2692148 51.3846083,77.2071203 51.419481,77.128684 C51.4543536,77.0502476 51.4826872,76.9587399 51.5044826,76.8541582 C51.5262781,76.7495764 51.5328166,76.6319236 51.5240984,76.5011964 C51.5197393,76.4445479 51.503393,76.3682915 51.475059,76.2724249 C51.4467249,76.1765582 51.4074938,76.071978 51.3573643,75.9586811 C51.3072349,75.8453841 51.2451189,75.7299101 51.1710145,75.6122556 C51.0969101,75.4946011 51.012999,75.3889315 50.9192787,75.2952437 C50.8255585,75.2015558 50.720942,75.12421 50.6054264,75.063204 C50.4899107,75.0021979 50.3645889,74.9716954 50.2294574,74.9716954 C50.1074031,74.9716954 49.9864403,75.0675606 49.8665656,75.2592938 C49.7466908,75.4510271 49.5908559,75.736444 49.3990563,76.115553 L49.1244355,76.6842136 Z M36.720728,82.4492559 C36.0625065,82.4187529 35.479488,82.3250664 34.9716549,82.1681938 C34.4638218,82.0113211 34.0181122,81.762943 33.634513,81.4230522 C33.3991225,81.2138887 33.1953385,80.9829407 33.0231547,80.7302013 C32.8509709,80.477462 32.7071234,80.2094752 32.5916077,79.9262329 C32.476092,79.6429905 32.3910912,79.3477693 32.3366026,79.0405603 C32.2821141,78.7333513 32.2548702,78.4185212 32.2548702,78.0960607 C32.2548702,77.4075639 32.3573071,76.7212562 32.562184,76.037117 C32.7670609,75.3529778 33.0700126,74.7080664 33.4710482,74.1023636 L34.7591507,75.0370587 C34.6806872,75.145998 34.583699,75.3072259 34.4681834,75.520747 C34.3526677,75.7342682 34.2415127,75.9804674 34.1347152,76.2593522 C34.0279177,76.538237 33.9374681,76.8389051 33.8633637,77.1613656 C33.7892593,77.4838261 33.7522076,77.8084606 33.7522076,78.1352787 C33.7522076,78.5231028 33.8339392,78.876061 33.9974048,79.194164 C34.1608704,79.5122669 34.3820905,79.7857006 34.6610718,80.0144733 C34.9400531,80.243246 35.2637101,80.4219038 35.6320526,80.5504523 C36.0003951,80.6790007 36.3894373,80.7476315 36.7991911,80.7563467 C37.2874084,80.7650618 37.7505539,80.6986098 38.1886417,80.5569886 C38.6267295,80.4153674 39.0070538,80.2181902 39.3296259,79.9654508 C39.652198,79.7127115 39.905021,79.4142221 40.0881025,79.0699737 C40.2711839,78.7257253 40.3540053,78.3531583 40.3365689,77.9522615 C40.3278508,77.751813 40.2940684,77.5284907 40.2352208,77.2822877 C40.1763731,77.0360848 40.1055391,76.7866174 40.0227165,76.533878 C39.939894,76.2811387 39.8516239,76.0338501 39.7579036,75.7920047 C39.6641833,75.5501593 39.5759132,75.335552 39.4930907,75.1481762 C39.4102681,74.9608005 39.3405238,74.8104665 39.2838557,74.6971695 C39.2271877,74.5838726 39.1966746,74.527225 39.1923155,74.527225 L40.7288844,73.6709659 C40.7419616,73.6883962 40.7768338,73.7602951 40.8335019,73.8866647 C40.8901699,74.0130344 40.9577347,74.1786197 41.0361982,74.3834257 C41.1146617,74.5882317 41.1996625,74.8235372 41.2912032,75.0893493 C41.382744,75.3551613 41.4688346,75.6340419 41.5494776,75.9259994 C41.6301206,76.2179569 41.6998649,76.5153569 41.7587125,76.8182083 C41.8175601,77.1210598 41.853522,77.4141023 41.8665993,77.6973446 C41.8883947,78.0938839 41.8600611,78.4915066 41.7815976,78.8902247 C41.7031341,79.2889428 41.5745431,79.6680461 41.3958207,80.027546 C41.2170983,80.3870459 40.9871602,80.7214847 40.7059993,81.0308725 C40.4248385,81.3402603 40.0913737,81.604979 39.7055949,81.8250365 C39.3198161,82.045094 38.8784656,82.2117687 38.3815302,82.3250657 C37.8845948,82.4383626 37.3309996,82.4797589 36.720728,82.4492559 Z M38.3161443,73.7559381 L37.0672733,75.004377 L35.8118638,73.7494018 L37.0607347,72.5009629 L38.3161443,73.7559381 Z" id="تومان" fill="#FFFFFF"></path>
            </g>
        </g>
    </g>
</svg>