<?xml version="1.0" encoding="iso-8859-1"?>
<!-- Generator: Adobe Illustrator 19.0.0, SVG Export Plug-In . SVG Version: 6.00 Build 0)  -->
<svg version="1.1" id="Capa_1" xmlns="http://www.w3.org/2000/svg" xmlns:xlink="http://www.w3.org/1999/xlink" x="0px" y="0px"
	 viewBox="0 0 511.996 511.996" style="enable-background:new 0 0 511.996 511.996;" xml:space="preserve">
<path style="fill:#F94A46;" d="M465.454,493.882V164.538c0-5.951-4.825-10.776-10.776-10.776h-34.081
	c-5.951,0-10.776,4.825-10.776,10.776v329.344H465.454z"/>
<path style="fill:#92B620;" d="M223.203,493.882v-91.904c0-5.951-4.824-10.776-10.776-10.776h-34.081
	c-5.951,0-10.776,4.825-10.776,10.776v91.904C178.643,493.882,212.134,493.882,223.203,493.882z"/>
<path style="fill:#70B5E8;" d="M344.329,493.882V256.872c0-5.951-4.825-10.776-10.776-10.776h-34.081
	c-5.951,0-10.776,4.825-10.776,10.776v237.009H344.329z"/>
<path style="fill:#FFB70D;" d="M102.078,493.882V353.44c0-5.951-4.825-10.776-10.776-10.776H57.221
	c-5.951,0-10.776,4.824-10.776,10.776v140.442L102.078,493.882L102.078,493.882z"/>
<path style="fill:#EF3C3C;" d="M448.413,153.762h-27.816c-5.951,0-10.776,4.824-10.776,10.776v329.344h27.816V164.538
	C437.637,158.587,442.462,153.762,448.413,153.762z"/>
<path style="fill:#83A00B;" d="M206.162,391.202h-27.816c-5.951,0-10.776,4.824-10.776,10.776v91.904c10.775,0,11.044,0,27.816,0
	v-91.904C195.386,396.027,200.211,391.202,206.162,391.202z"/>
<path style="fill:#52A5D8;" d="M327.287,246.097h-27.816c-5.952,0-10.776,4.824-10.776,10.776v237.009h27.816V256.872
	C316.512,250.922,321.336,246.097,327.287,246.097z"/>
<path style="fill:#F2A306;" d="M85.036,342.664H57.221c-5.951,0-10.776,4.824-10.776,10.776v140.442h27.816V353.44
	C74.261,347.488,79.085,342.664,85.036,342.664z"/>
<path style="fill:#F94A46;" d="M461.422,73.199h-47.569c-8.296,0-15.022,6.726-15.022,15.022v27.132
	c0,4.143,3.358,7.501,7.501,7.501h63.244c3.793,0,6.868-3.075,6.868-6.868V88.22C476.444,79.924,469.719,73.199,461.422,73.199z"/>
<path style="fill:#70B5E8;" d="M340.297,165.534h-47.569c-8.296,0-15.022,6.726-15.022,15.022v27.132
	c0,4.143,3.358,7.501,7.501,7.501h63.244c3.793,0,6.868-3.075,6.868-6.868v-27.766C355.319,172.26,348.593,165.534,340.297,165.534z
	"/>
<path style="fill:#92B620;" d="M219.171,310.639h-47.569c-8.296,0-15.022,6.726-15.022,15.022v27.132
	c0,4.143,3.358,7.501,7.501,7.501h63.244c3.793,0,6.868-3.075,6.868-6.868V325.66C234.193,317.365,227.468,310.639,219.171,310.639z
	"/>
<path style="fill:#FFB70D;" d="M98.046,262.1H50.477c-8.296,0-15.022,6.726-15.022,15.022v27.132c0,4.143,3.358,7.501,7.501,7.501
	H106.2c3.793,0,6.868-3.075,6.868-6.868v-27.766C113.068,268.827,106.342,262.1,98.046,262.1z"/>
<path style="fill:#EF3C3C;" d="M437.622,115.354V88.22c0-8.296,6.726-15.022,15.022-15.022h-38.79
	c-8.296,0-15.022,6.725-15.022,15.022v27.132c0,4.143,3.359,7.501,7.501,7.501h38.79
	C440.98,122.854,437.622,119.496,437.622,115.354z"/>
<path style="fill:#52A5D8;" d="M316.496,207.689v-27.132c0-8.296,6.726-15.022,15.022-15.022h-38.79
	c-8.296,0-15.022,6.725-15.022,15.022v27.132c0,4.143,3.359,7.501,7.501,7.501h38.791
	C319.855,215.19,316.496,211.832,316.496,207.689z"/>
<path style="fill:#83A00B;" d="M195.371,352.794v-27.132c0-8.296,6.725-15.022,15.022-15.022h-38.79
	c-8.296,0-15.022,6.726-15.022,15.022v27.132c0,4.143,3.358,7.501,7.501,7.501h38.79
	C198.729,360.294,195.371,356.936,195.371,352.794z"/>
<path style="fill:#F2A306;" d="M74.245,304.255v-27.132c0-8.296,6.726-15.022,15.022-15.022h-38.79
	c-8.296,0-15.022,6.726-15.022,15.022v27.132c0,4.143,3.358,7.501,7.501,7.501h38.79C77.604,311.757,74.245,308.398,74.245,304.255z
	"/>
<circle style="fill:#F7CF9C;" cx="74.258" cy="214.025" r="25.12"/>
<path style="fill:#EAB883;" d="M74.262,188.904c-19.182-0.019-31.471,20.863-21.76,37.683c9.711,16.819,33.942,16.618,43.515-0.002
	C76.675,226.565,64.612,205.657,74.262,188.904z"/>
<path style="fill:#666666;" d="M496.758,481.518c-9.974,0-470.497,0-481.52,0C6.822,481.518,0,488.34,0,496.757l0,0
	c0,8.416,6.822,15.238,15.238,15.238c11.052,0,471.522,0,481.52,0c8.415,0,15.238-6.822,15.238-15.238l0,0
	C511.996,488.341,505.174,481.518,496.758,481.518z"/>
<path style="fill:#535454;" d="M54.549,496.757L54.549,496.757c0-8.416,6.822-15.238,15.238-15.238H15.238
	C6.822,481.518,0,488.34,0,496.757l0,0c0,8.416,6.822,15.238,15.238,15.238h54.549C61.371,511.995,54.549,505.173,54.549,496.757z"
	/>
<circle style="fill:#F7CF9C;" cx="195.388" cy="262.565" r="25.12"/>
<path style="fill:#EAB883;" d="M195.388,237.442c-19.182-0.019-31.471,20.863-21.76,37.683c6.938,12.017,22.304,16.135,34.321,9.197
	c3.964-2.289,7.063-5.498,9.194-9.199C197.801,275.103,185.739,254.195,195.388,237.442z"/>
<circle style="fill:#F7CF9C;" cx="316.508" cy="117.454" r="25.12"/>
<path style="fill:#EAB883;" d="M316.514,92.337c-4.271-0.004-8.599,1.074-12.564,3.363c-12.017,6.938-16.134,22.303-9.196,34.32
	c9.711,16.819,33.942,16.618,43.515-0.002C318.927,129.998,306.864,109.09,316.514,92.337z"/>
<circle style="fill:#F7CF9C;" cx="437.638" cy="25.124" r="25.12"/>
<path style="fill:#EAB883;" d="M437.639,0.001c-19.182-0.019-31.471,20.863-21.76,37.683c9.711,16.819,33.942,16.618,43.515-0.002
	C440.052,37.662,427.99,16.754,437.639,0.001z"/>
<g>
</g>
<g>
</g>
<g>
</g>
<g>
</g>
<g>
</g>
<g>
</g>
<g>
</g>
<g>
</g>
<g>
</g>
<g>
</g>
<g>
</g>
<g>
</g>
<g>
</g>
<g>
</g>
<g>
</g>
</svg>
