<?xml version="1.0" encoding="utf-8"?>
<!-- Generator: Adobe Illustrator 22.1.0, SVG Export Plug-In . SVG Version: 6.00 Build 0)  -->
<svg version="1.1" id="Layer_1" xmlns="http://www.w3.org/2000/svg" xmlns:xlink="http://www.w3.org/1999/xlink" x="0px" y="0px"
	 viewBox="0 0 100 100" style="enable-background:new 0 0 100 100;" xml:space="preserve">
<style type="text/css">
	.st0{fill:#C7CFE2;}
	.st1{fill:#AFB9D2;}
	.st2{fill:#E4EAF6;}
	.st3{fill:#9EBBFB;}
	.st4{fill:#455A64;}
	.st5{fill:#5BB774;}
	.st6{fill:#64A4EE;}
	.st7{fill:#FFC45C;}
	.st8{fill:#FFDC64;}
	.st9{fill:#4B80BF;}
	.st10{fill:#FFA14E;}
	.st11{fill:#FFB7BD;}
	.st12{fill:#FFA2BD;}
	.st13{fill:#453E64;}
	.st14{fill:#FFC850;}
	.st15{fill:#F8B5A9;}
	.st16{fill:#F3705A;}
	.st17{fill:#555A66;}
	.st18{fill:#333940;}
	.st19{fill:#707789;}
	.st20{fill:#FFFFFF;}
	.st21{fill:#E9EDF5;}
</style>
<title>icon/onlineExam Copy 2</title>
<g id="icon_x2F_onlineExam-Copy-2">
	<g id="onlineExam-Copy-2" transform="translate(0.000000, 1.000000)">
		<g id="_x23_bbcdfbff" transform="translate(22.841966, 46.871338)">
			<path id="Path" class="st0" d="M54.8,8.3c2.7-2.7,5.5-5.5,8.2-8.2c0.2,3.4,0.1,6.9,0.1,10.3c0,2.6,0.1,5.2-0.1,7.8
				c-0.1,1.3,0.1,2.6,0.1,3.9c0,2.8,0,5.7,0,8.6c0,1.6,0.1,3.1-0.1,4.7c-0.1,1.1,0,2.3,0.1,3.3c0,2,0,3.9,0.1,5.9
				c0,3.4-3.1,6.5-6.6,6.6c-15.9,0-31.8,0-47.6,0c-1.5,0-2.9,0.1-4.3-0.4c-2.5-0.9-4.3-3.2-4.5-5.8c1.5,0.1,2.8,0,4.3-0.1
				c3.9,0,7.8,0,11.7,0c1.2,0,2.4,0.2,3.5,0.1c3.9-0.2,7.9-0.1,11.9-0.1c2.5-0.1,5.1,0.3,7.6,0c2.7-0.1,5.5,0,8.2,0
				c1.4,0,2.7-0.4,3.8-1.2c1.9-1.2,2.9-3.4,3-5.6c0-2.7,0-5.5,0-8.2c0.2-2.8-0.1-5.6,0-8.4c0-4.2,0-8.4,0.1-12.6
				C54.4,8.6,54.6,8.4,54.8,8.3z"/>
		</g>
		<path id="Path_1_" class="st1" d="M83.1,42.6c1-1,2-2.1,3-2.9c-0.1,17.6,0,35.2-0.1,52.8c-0.1-2,0-3.9-0.1-5.9
			c-0.1-1.1-0.2-2.3-0.1-3.3c0.1-1.6,0.1-3.1,0.1-4.7c0-2.8,0-5.7,0-8.6c0-1.3-0.2-2.6-0.1-3.9c0.2-2.6,0.1-5.2,0.1-7.8
			c0-3.4,0.1-4.9-0.1-8.3c-2.7,2.7-5.5,5.5-8.2,8.2c-0.1,0.2-0.3-1.7-0.4-1.5c-0.2,4.2-0.1,8.4-0.1,12.6c-0.1,2.8,0.2,5.6,0,8.4
			c-0.1,2.7,0,5.5,0,8.2c0,2.2-1.2,4.4-3,5.6c-1.1,0.8-2.5,1.2-3.8,1.2c-2.7,0-5.5,0-8.2,0c-2.5,0.3-5.1-0.1-7.6,0
			c-3.9,0-7.9-0.1-11.9,0.1c-1.2,0-2.4-0.1-3.5-0.1c-3.9,0-7.8,0-11.7,0c-1.5,0.1-2.8,0.2-4.3,0.1c-0.1-1.9,0-3.8-0.1-5.7
			c2.4,0,4.7,0,7.1-0.1c4.9,0.1,9.9,0,14.8,0.1c1.9-0.1,3.8-0.1,5.7,0c4,0,8,0,12.2,0c1.6,0,3.1,0,4.6-0.7c2-1,3.5-2.9,3.7-5.1
			c0.3-4.3,0.1-8.7,0.1-13.1c0.1-1.9-0.2-3.7-0.1-5.7c0.2-1.9,0.1-3.8,0.1-5.7c0-0.7,0.1-1.5-0.2-2.2C75,50.7,79,46.7,83.1,42.6z"/>
		<g id="exam" transform="translate(5.273025, 5.882353)">
			<g id="Group-2">
				<g id="_x23_d9defbff">
					<path id="Shape" class="st2" d="M61,0.2c1.1,0,2.2,0.2,3.1,0.8c2.3,1.1,3.7,3.5,3.7,6.1c0,5.7,0.1,65-0.1,69.3
						c-0.3,2.2-1.8,4.2-3.7,5.1c-1.5,0.7-58,0.9-59.5,0.3c-2.5-1-4.4-3.6-4.3-6.4c0-16.7,0-33.7,0-50.4c0-12.1,3.9-25,13.7-25
						S26,0.2,29,0.2C39.6,0.2,50.3,0.2,61,0.2z"/>
				</g>
				<g id="_x23_9ebbfbff" transform="translate(3.124756, 7.811889)">
					<path id="Path_2_" class="st3" d="M29.1,0.3c0.5-0.1,1.1-0.1,1.6-0.1c0,0.3,0,0.6,0,1c-0.6,0.1-1.2,0.1-1.7,0
						C29.1,0.8,29.1,0.5,29.1,0.3z"/>
					<path id="Path_3_" class="st3" d="M33,0.2c0.5,0,1.1,0,1.6,0c0.1,0.3,0.1,0.6,0.1,0.8c-0.6,0-1.1,0-1.7,0
						C32.9,0.8,32.9,0.5,33,0.2z"/>
					<path id="Path_4_" class="st3" d="M25.2,0.3c0.5-0.1,1.1-0.1,1.6,0c0,0.2,0,0.6,0,0.8c-0.5,0-1.1,0.1-1.6,0
						C25.2,0.9,25.2,0.5,25.2,0.3z"/>
					<path id="Path_5_" class="st3" d="M36.9,0.3c0.5-0.1,1.1-0.1,1.7,0c0,0.2,0,0.6,0,0.8c-0.5,0-1.1,0-1.6,0
						C36.9,0.9,36.9,0.5,36.9,0.3z"/>
					<path id="Path_6_" class="st3" d="M40.8,0.3c0.5-0.1,1.1-0.1,1.6,0c0,0.2,0,0.6,0,0.8c-0.6,0-1.1,0-1.7,0
						C40.8,0.9,40.8,0.5,40.8,0.3z"/>
					<path id="Path_7_" class="st3" d="M44.7,0.3c0.5-0.1,1.1-0.1,1.6,0c0,0.2,0,0.6,0,0.8c-0.6,0-1.1,0-1.7,0
						C44.7,0.9,44.7,0.5,44.7,0.3z"/>
					<path id="Path_8_" class="st3" d="M48.6,0.3c0.6-0.1,1.1-0.1,1.7,0c0,0.2,0,0.6,0,0.8c-0.5,0.2-1.3,0.3-1.8,0
						C48.5,0.9,48.6,0.5,48.6,0.3z"/>
					<path id="Path_9_" class="st3" d="M52.5,0.3c0.5-0.1,1.1-0.1,1.7,0c0,0.2,0,0.6,0,0.8c-0.5,0-1.1,0-1.6,0
						C52.5,0.9,52.5,0.5,52.5,0.3z"/>
					<path id="Path_10_" class="st3" d="M56.5,0.3c0.6-0.1,1.1-0.1,1.7,0c0,0.2,0,0.6,0,0.8c-0.5,0-1.1,0-1.6,0
						C56.5,0.9,56.5,0.5,56.5,0.3z"/>
					<path id="Path_11_" class="st3" d="M60.3,0.3c0.5-0.1,1.1-0.1,1.6,0c0,0.2,0,0.6,0,0.8c-0.5,0-1.1,0-1.7,0
						C60.3,0.9,60.3,0.5,60.3,0.3z"/>
					<path id="Path_12_" class="st3" d="M0.2,67c0.5,0,1.1,0,1.6,0c0,0.3,0,0.5,0,0.8c-0.5,0-1.1,0-1.6,0C0.2,67.5,0.2,67.3,0.2,67z
						"/>
					<path id="Path_13_" class="st3" d="M4.1,67c0.5,0,1.1,0,1.6,0c0,0.3,0,0.5,0,0.8c-0.5,0-1.1,0-1.6,0C4.1,67.5,4.1,67.3,4.1,67z
						"/>
					<path id="Path_14_" class="st3" d="M8,67c0.5,0,1.1,0,1.6,0c0,0.3,0,0.6,0,0.8c-0.5,0-1.1,0-1.6,0C8,67.5,8,67.3,8,67z"/>
					<path id="Path_15_" class="st3" d="M11.9,67c0.6,0,1.1,0,1.7,0c0,0.3,0,0.6,0,0.9c-0.6,0-1.1,0-1.7,0
						C11.9,67.5,11.9,67.3,11.9,67z"/>
					<path id="Path_16_" class="st3" d="M15.8,67c0.5,0,1.1,0,1.6,0c0,0.3,0,0.5,0,0.8c-0.5,0-1.1,0-1.6,0
						C15.8,67.5,15.8,67.3,15.8,67z"/>
					<path id="Path_17_" class="st3" d="M19.7,67c0.5,0,1.1,0,1.6,0c0,0.3,0,0.5,0,0.8c-0.5,0-1.1,0-1.6,0
						C19.7,67.5,19.7,67.3,19.7,67z"/>
					<path id="Path_18_" class="st3" d="M23.6,67c0.5,0,1.1,0,1.6,0c0,0.3,0,0.6,0,0.8c-0.5,0-1.1,0-1.6,0
						C23.6,67.5,23.6,67.3,23.6,67z"/>
					<path id="Path_19_" class="st3" d="M27.5,67c0.5,0,1.1,0,1.6,0c0,0.3,0,0.6,0,0.9c-0.5,0-1.1,0-1.6,0
						C27.5,67.5,27.5,67.3,27.5,67z"/>
					<path id="Path_20_" class="st3" d="M31.4,66.9c0.6,0,1.1,0,1.7,0c0,0.3,0,0.6,0,0.9c-0.5,0-1.1,0-1.6,0
						C31.4,67.5,31.4,67.2,31.4,66.9z"/>
					<path id="Path_21_" class="st3" d="M35.4,67c0.5,0,1.1,0,1.6,0c0,0.3,0,0.5,0,0.8c-0.5,0-1.1,0-1.6,0
						C35.4,67.5,35.4,67.3,35.4,67z"/>
					<path id="Path_22_" class="st3" d="M39.2,67c0.5,0,1.1,0,1.6,0c0,0.3,0,0.5,0,0.8c-0.5,0-1.1,0-1.6,0
						C39.2,67.5,39.2,67.3,39.2,67z"/>
					<path id="Path_23_" class="st3" d="M43.1,67c0.5,0,1.1,0,1.6,0c0,0.3,0,0.6,0,0.8c-0.5,0-1.1,0-1.6,0
						C43.1,67.5,43.1,67.3,43.1,67z"/>
					<path id="Path_24_" class="st3" d="M47.1,67c0.5,0,1.1,0,1.6,0c0,0.3,0,0.6,0,0.9c-0.6,0-1.1,0-1.7,0
						C47.1,67.5,47.1,67.3,47.1,67z"/>
					<path id="Path_25_" class="st3" d="M51,67c0.5,0,1.1,0,1.6,0c0,0.3,0,0.5,0,0.8c-0.5,0-1.1,0-1.6,0C51,67.5,51,67.3,51,67z"/>
					<path id="Path_26_" class="st3" d="M54.9,67c0.5,0,1.1,0,1.6,0c0,0.3,0,0.5,0,0.8c-0.5,0-1.1,0-1.6,0
						C54.9,67.5,54.9,67.3,54.9,67z"/>
					<path id="Path_27_" class="st3" d="M58.8,67c0.5,0,1.1,0,1.6,0c0,0.3,0,0.5,0,0.8c-0.5,0-1.1,0-1.6,0
						C58.8,67.5,58.8,67.3,58.8,67z"/>
				</g>
				<g id="_x23_455a64ff" transform="translate(27.927506, 17.381455)">
					<path id="Path_28_" class="st4" d="M5.7,0.1c3.3-0.1,6.6,0,9.9,0c0.5,0,1.1-0.1,1.4,0.4c0.4,0.5-0.2,1.3-0.8,1.2
						c-3.4,0-7,0-10.4,0C5,1.6,5,0.3,5.7,0.1z"/>
					<path id="Path_29_" class="st4" d="M5.7,7.1c2-0.2,4,0,6,0c6.4,0,12.7,0,19.1,0c0.6,0,1,0.8,0.5,1.3C31,8.7,30.4,8.6,30,8.6
						c-8,0-16,0-24,0C5.1,8.7,4.8,7.4,5.7,7.1z"/>
					<path id="Path_30_" class="st4" d="M0.5,20c0.3-0.2,0.6-0.2,0.9-0.2c3.5,0,7.1,0,10.6,0c0.3,0,0.6,0.2,0.7,0.5
						c0.3,0.6-0.3,1.2-0.9,1.1c-3.6,0-7.2,0-10.8,0C0.3,21.5-0.1,20.4,0.5,20z"/>
					<path id="Path_31_" class="st4" d="M0.9,27.3c2.2,0,4.2,0,6.4,0c0.5,0,0.9,0.4,0.8,0.9c0,0.4-0.4,0.7-0.8,0.7
						c-2.2,0-4.3,0-6.4,0C-0.1,28.7,0,27.4,0.9,27.3z"/>
				</g>
				<g id="_x23_5bb774ff" transform="translate(8.007187, 34.762909)">
					<path id="Shape_1_" class="st5" d="M3.9,0.3c1-0.2,2.1-0.1,3.1-0.1s2.2-0.1,3.1,0.1c2.1,0.4,3.8,2.3,3.9,4.4c0,1,0,2,0,2.9
						c0,1.3,0.1,2.5-0.4,3.7c-0.7,1.7-2.5,2.8-4.3,2.8c-1.5,0-3,0-4.5,0c-1.9,0-3.7-1.2-4.4-2.9c-0.6-1.3-0.4-2.7-0.4-4
						s-0.2-2.6,0.3-3.9C1,1.8,2.4,0.6,3.9,0.3 M8.9,5.2C8,6,7.3,6.9,6.5,7.6C6,7.3,5.7,6.7,5.1,6.5C4.4,6.2,3.8,7,4.2,7.5
						c0.5,0.6,1.1,1.1,1.7,1.7C6.2,9.5,6.7,9.6,7,9.3c0.9-0.9,1.8-1.8,2.6-2.6c0.3-0.3,0.6-0.6,0.6-1C10.1,5.1,9.3,4.8,8.9,5.2z"/>
					<path id="Shape_2_" class="st5" d="M4.2,19.8c1.8-0.1,3.4,0,5.2-0.1c1.9,0,3.5,1.2,4.3,2.8c0.6,1.3,0.4,2.7,0.4,4.1
						s0.2,2.8-0.4,4.1c-0.7,1.8-2.5,2.9-4.3,2.9c-1.5,0-2.9,0-4.5,0c-2.2,0-4.1-1.6-4.7-3.6C-0.1,29,0.1,27.9,0,26.8
						c0.1-1.3-0.2-2.6,0.3-3.9C0.9,21.4,2.5,20.1,4.2,19.8 M8.8,24.9c-0.8,0.8-1.6,1.6-2.5,2.4c-0.5-0.4-0.8-0.9-1.4-1.2
						c-0.7-0.2-1.3,0.6-0.9,1.2c0.5,0.6,1.1,1.1,1.7,1.7c0.3,0.4,0.9,0.3,1.2,0c0.9-0.8,1.7-1.7,2.5-2.5c0.3-0.3,0.7-0.6,0.6-1
						C10.1,24.7,9.3,24.4,8.8,24.9z"/>
				</g>
			</g>
			<g id="Group" transform="translate(32.829467, 10.139832)">
				<g id="_x23_ff7ebdff" transform="translate(36.696352, 0.000000)">
					<path id="Path_32_" class="st6" d="M6.6,1.7c1.2-1.5,3.3-2.1,5.1-1.3c1.1,0.4,1.8,1.4,2.5,2.1c1.9,1.8,3.6,3.7,5.5,5.4
						c0.1,1,0.5,2,0.3,2.9c-0.1,0.9-0.5,1.7-1.2,2.4c-2.3,2.4-4.6,4.6-6.9,7L11.9,20C7.9,16.1,4,12.2,0,8.1C2.3,6.1,4.4,3.9,6.6,1.7
						z"/>
				</g>
				<path id="Path_33_" class="st4" d="M1.2,47.7C3.8,50.4,6.4,53,9,55.6c-2.5,0.2-5.2,0-7.8,0.1C1.3,53,1.2,50.4,1.2,47.7z"/>
				<g id="_x23_ffc45cff" transform="translate(32.009218, 8.202484)">
					<path id="Path_34_" class="st7" d="M2.9,1.9C3.5,1.2,4.1,0.7,4.7,0c3.9,3.9,7.8,7.8,11.9,11.9c-1.6,1.5-3.1,3.1-4.7,4.7
						C7.9,12.6,4,8.7,0.1,4.8C1.1,3.7,2.1,2.8,2.9,1.9z"/>
				</g>
				<path id="Path_35_" class="st8" d="M5.8,39.2c8.7-8.8,17.5-17.5,26.3-26.3c3.9,3.9,7.8,7.8,11.8,11.8l0.1,0.1
					c-2.7,2.5-5.3,5.3-7.9,7.8c-4.5,4.5-9,9-13.5,13.5c-1,1-1.9,2-2.9,2.8c0-0.5,0-1,0-1.6c-1.6-0.1-3.1,0.1-4.7,0
					c-1.3-0.3-2.3-1.4-2.5-2.5c0-1.6,0-3.1,0-4.6c-1,0-2.1,0-3,0C7.9,40.5,6.7,40.2,5.8,39.2z"/>
				<g id="_x23_e95aadff" transform="translate(48.609483, 8.007187)">
					<path id="Path_36_" class="st9" d="M7.8,0c0.9,0.9,1.9,1.8,2.6,2.8C11.6,4.4,11.4,6.7,10,8c-2.4,2.4-4.7,4.7-7,7.1L2.9,15
						c-1-0.9-1.9-1.9-2.8-2.8c2.3-2.4,4.6-4.6,6.9-7C7.5,4.6,8,3.7,8.1,2.9C8.3,2,7.9,1,7.8,0z"/>
				</g>
				<g id="_x23_ffa14eff" transform="translate(43.727053, 19.920319)">
					<path id="Path_37_" class="st10" d="M0.1,4.8c1.7-1.5,3.1-3.1,4.8-4.7L5,0.2c1,1,1.9,2,2.8,2.8C7.3,3.6,6.8,4.1,6.3,4.6
						c-1.1,1-2,2-3,2.9L3,7.7C2.1,6.8,1.1,5.9,0.1,4.8L0.1,4.8z"/>
				</g>
				<g id="_x23_ffb7bdff" transform="translate(0.956957, 39.059448)">
					<path id="Path_38_" class="st11" d="M1.8,3.2c1-1,2-2,3-3C5.7,1.1,7,1.4,8.2,1.3c0.1,1.2,0,2.4,0.6,3.3c0.5,0.7,1.4,0.8,2.2,1
						c0.1,0.1,0.2,0.2,0.2,0.3c0.3,1.3,1.3,2.3,2.5,2.5c0.5,0.2,1.1,0.2,1.7,0.2c0,0.7,0,1.5,0.3,2.2c0.2,0.4,0.5,0.8,0.8,1.2
						c-0.7,0.9-1.6,1.6-2.3,2.4c-0.8,0.8-1.6,1.7-2.6,2c-1,0.4-2.2,0.1-3.3,0.4c0,0-0.1-0.1-0.2-0.2c-2.6-2.5-5.2-5.2-7.8-7.8
						c0,2.6,0,5.3,0,7.9c0,0.1,0,0.3,0,0.4c-0.1-1.3,0-2.6-0.1-3.9c0-1.7-0.1-3.2,0-4.9c0-1-0.1-2.1,0.2-3C0.7,4.4,1.3,3.7,1.8,3.2z
						"/>
				</g>
				<g id="_x23_ffa2bdff" transform="translate(9.159440, 40.231232)">
					<path id="Path_39_" class="st12" d="M0,0.1c1-0.1,2.1,0,3,0c0,1.6,0,3.1,0,4.6c0-0.1-0.1-0.2-0.2-0.3c-0.8-0.1-1.7-0.2-2.2-1
						C0,2.5,0.1,1.2,0,0.1z"/>
					<path id="Path_40_" class="st12" d="M5.6,7.3c1.6,0.2,3.1,0,4.7,0c0,0.5,0,1,0,1.6c0,1,0,2,0,2.8c0.1,0.8,0.6,1.5,1.1,2.1
						C10,15,8.8,16.4,7.5,17.5c-1.3,1-3,0.7-4.5,0.8c-0.9-1-1.9-2-2.8-2.8c1.1-0.3,2.3,0,3.4-0.4c1.1-0.3,1.9-1.2,2.6-2
						c0.7-0.8,1.5-1.5,2.2-2.4C8,10.4,7.7,10,7.5,9.6C7.3,8.9,7.3,8.1,7.3,7.5C6.8,7.5,6.2,7.5,5.6,7.3z"/>
				</g>
				<g id="_x23_453e64ff" transform="translate(1.152254, 55.464417)">
					<path id="Path_41_" class="st13" d="M0.1,0.2c2.6-0.1,5.2,0.1,7.8-0.1c0,0,0.1,0.1,0.2,0.2c1,1,2,1.9,2.8,2.8
						c-2.7,0-5.6,0-8.3,0C1.3,3.1,0.1,2,0.1,0.6C0.1,0.5,0.1,0.3,0.1,0.2z"/>
				</g>
				<g id="_x23_2979ffff" transform="translate(19.314897, 24.607453)">
					<path id="Path_42_" class="st14" d="M16.7,8c2.6-2.6,5.2-5.3,7.9-7.8c1,1,2,2,2.8,2.9l0.2-0.2c-4,4-8,8-12.1,12.1
						C10.8,19.8,6,24.6,1.3,29.4c-0.5-0.6-1-1.3-1.1-2.1c-0.1-1,0-2,0-2.8c1-0.9,2-1.9,2.9-2.8C7.5,17.1,12.2,12.5,16.7,8z"/>
				</g>
			</g>
		</g>
		<g id="stopwatch">
			<circle id="Oval" class="st15" cx="18.1" cy="18.1" r="18.1"/>
			<path id="Path_43_" class="st16" d="M36.3,18.1c0-0.5,0-1-0.1-1.5l-7.3-7.3l-1.5,0.8L21,3.7l-5.8,2.8l3,3L9.5,28.2l7.9,7.9
				c0.2,0,0.4,0,0.6,0C28.1,36.3,36.3,28.1,36.3,18.1z"/>
			<polygon id="Path_44_" class="st17" points="16.4,5.1 19.9,5.1 19.9,9.6 16.4,9.6 			"/>
			<polygon id="Path_45_" class="st18" points="18.1,5.1 19.9,5.1 19.9,9.6 18.1,9.6 			"/>
			<polygon id="Path_46_" class="st17" points="7.3,9.5 9.8,7 13,10.2 10.5,12.7 			"/>
			<polygon id="Path_47_" class="st18" points="25.8,12.7 23.2,10.2 26.5,7 29,9.5 			"/>
			<circle id="Oval_1_" class="st19" cx="18.1" cy="19.9" r="12.1"/>
			<path id="Path_48_" class="st17" d="M18.1,7.8L18.1,7.8v24l0,0c6.7,0,12.1-5.4,12.1-12.1S24.8,7.8,18.1,7.8z"/>
			<circle id="Oval_2_" class="st20" cx="18.1" cy="19.9" r="9.1"/>
			<path id="Path_49_" class="st21" d="M18.1,10.8L18.1,10.8V29l0,0c5,0,9.1-4.1,9.1-9.1S23.1,10.8,18.1,10.8z"/>
			<polygon id="Path_50_" class="st19" points="15.2,3.7 21.1,3.7 21.1,6.6 15.2,6.6 			"/>
			<polygon id="Path_51_" class="st17" points="18.1,3.7 21.1,3.7 21.1,6.6 18.1,6.6 			"/>
			<polygon id="Path_52_" class="st18" points="17.4,19.1 22.4,14.1 23.9,15.6 18.9,20.7 			"/>
			<circle id="Oval_3_" class="st19" cx="18.1" cy="19.9" r="1.9"/>
			<path id="Path_53_" class="st17" d="M18.1,18L18.1,18v3.7l0,0c1,0,1.9-0.9,1.9-1.9C20,18.8,19.1,18,18.1,18z"/>
		</g>
	</g>
</g>
</svg>
