<?xml version="1.0" encoding="UTF-8" standalone="no"?>
<svg width="139px" height="110px" viewBox="0 0 139 110" version="1.1" xmlns="http://www.w3.org/2000/svg" xmlns:xlink="http://www.w3.org/1999/xlink">
    <!-- Generator: Sketch 43 (38999) - http://www.bohemiancoding.com/sketch -->
    <title>text-lines</title>
    <desc>Created with Sketch.</desc>
    <defs></defs>
    <g id="لاگین" stroke="none" stroke-width="1" fill="none" fill-rule="evenodd">
        <g id="صفحه-اول" transform="translate(-380.000000, -1511.000000)" fill-rule="nonzero">
            <g id="text-lines" transform="translate(380.000000, 1511.000000)">
                <path d="M131.365316,69.1107673 L91.8420781,94.0712376 L93.0499121,80.7198515 C87.2081113,84.4092079 82.4278145,93.0932178 82.4278145,100.016955 C82.4278145,106.940693 87.2075684,109.5875 93.0499121,105.897871 L131.365588,81.7000495 C134.28676,79.855099 136.676365,75.5136386 136.676365,72.0516337 C136.676365,68.5893564 134.286488,67.2658168 131.365316,69.1107673 Z" id="Shape" fill="#C2B8B9"></path>
                <polygon id="Shape" fill="#D6CED1" points="52.9125762 13.9174505 18.1528027 50.2849752 90.6041094 96.0430693 136.44316 66.669802"></polygon>
                <path d="M136.239275,66.5505446 C134.484672,65.5790594 132.256871,65.7933416 130.127076,67.1383911 L90.6038379,92.0991337 C89.5176289,92.7852723 89.1918477,94.2239851 89.8757168,95.3130941 C90.5595859,96.402203 91.9943809,96.7292079 93.0803184,96.0433416 L132.603557,71.0828713 C133.374301,70.5963119 133.880348,70.5688119 133.993285,70.6314356 C134.105951,70.6937871 134.35273,71.1378713 134.35273,72.0516337 C134.35273,74.7194059 132.378225,78.3063861 130.127348,79.7282178 L91.8116719,103.92604 C89.7646797,105.218812 87.891166,105.573045 86.6711152,104.897525 C85.4513359,104.222005 84.7517207,102.443218 84.7517207,100.0175 C84.7517207,93.8907178 89.1185469,85.957104 94.2881523,82.6925 L135.734043,56.5179455 C136.81998,55.8323515 137.146033,54.3933663 136.462164,53.3039851 C136.275383,53.0066584 136.03159,52.7681436 135.754947,52.5895297 L135.757119,52.587896 L57.0022168,2.8504703 L52.6413633,0.0963861386 L9.42566602,27.3886386 C4.14067969,30.7264851 0.000271484375,38.2481436 0,44.512698 C0,50.7772525 4.14067969,58.2991832 9.42648047,61.637302 L83.7857793,108.573812 C83.9918359,108.717302 84.2030508,108.85453 84.4248535,108.977599 C87.2110977,110.52005 90.7137891,110.126609 94.2878809,107.869703 L132.603557,83.6718812 C134.157805,82.6903218 135.565994,81.1759158 136.663062,79.4289851 C138.097857,77.1437624 139.000543,74.460198 139,72.0510891 C139,69.5268069 137.993607,67.5220297 136.239275,66.5505446 Z" id="Shape" fill="#ECE7EA"></path>
                <g id="Group" transform="translate(50.496094, 16.336634)" fill="#8B7E7F">
                    <path d="M56.7320898,39.1619059 C56.3088457,39.1619059 55.8807148,39.0459158 55.496293,38.8033168 L1.11308594,4.45826733 C0.0271484375,3.77212871 -0.298904297,2.33341584 0.384964844,1.24430693 C1.06883398,0.155470297 2.50335742,-0.171806931 3.58956641,0.514059406 L57.972502,34.8588366 C59.0584395,35.5449752 59.3844922,36.9836881 58.700623,38.072797 C58.258918,38.7763614 57.5039199,39.1619059 56.7320898,39.1619059 Z" id="Shape"></path>
                    <path d="M47.3227129,45.4261881 C46.9010977,45.4261881 46.4743242,45.3112871 46.0904453,45.0697772 L23.1163516,30.622203 C22.0290566,29.9385149 21.7002891,28.5000743 22.3819863,27.4098762 C23.0636836,26.3194059 24.4976641,25.9894059 25.584959,26.6733663 L48.5590527,41.1209406 C49.6463477,41.8046287 49.9751152,43.2430693 49.293418,44.3332673 C48.8525273,45.0390099 48.0964434,45.4261881 47.3227129,45.4261881 Z" id="Shape"></path>
                    <path d="M37.9136074,51.690198 C37.4933496,51.690198 37.0679336,51.5758416 36.6851406,51.3362376 L13.534582,36.8393812 C12.4459297,36.157599 12.1147187,34.7202475 12.7939727,33.6281436 C13.4737695,32.5365842 14.9066641,32.2035891 15.9958594,32.8853713 L39.146418,47.3822277 C40.2350703,48.0640099 40.5662812,49.5013614 39.8870273,50.5934653 C39.4464082,51.3013861 38.6889668,51.690198 37.9136074,51.690198 Z" id="Shape"></path>
                </g>
                <polygon id="Shape" fill="#64A4EE" points="66.0437324 39.4486139 43.0674668 24.9999505 23.5081035 37.3542574 46.835127 51.900396"></polygon>
                <g id="Group" transform="translate(12.488281, 41.658416)" fill="#8B7E7F">
                    <path d="M66.5125859,32.6324257 C66.0936855,32.6324257 65.6698984,32.5188861 65.2879199,32.2806436 L41.9603535,17.7339604 C40.8703438,17.0543564 40.536418,15.6172772 41.214043,14.5243564 C41.8913965,13.4311634 43.3245625,13.0954455 44.4143008,13.7758663 L67.7418672,28.3225495 C68.831877,29.0021535 69.1658027,30.4392327 68.4881777,31.5321535 C68.0481016,32.2422525 67.2890313,32.6324257 66.5125859,32.6324257 Z" id="Shape"></path>
                    <path d="M60.1280879,40.8211634 C59.7091875,40.8211634 59.2854004,40.7076238 58.9034219,40.4693812 L1.32620117,4.56527228 C0.236191406,3.88566832 -0.097734375,2.44858911 0.579890625,1.35566832 C1.25751562,0.262475248 2.69041016,-0.0732425743 3.78014844,0.607178218 L61.3570977,36.5110149 C62.4471074,37.1906188 62.7810332,38.627698 62.1034082,39.7206188 C61.6636035,40.4309901 60.9045332,40.8211634 60.1280879,40.8211634 Z" id="Shape"></path>
                </g>
            </g>
        </g>
    </g>
</svg>