<?xml version="1.0" encoding="UTF-8" standalone="no"?>
<svg width="115px" height="131px" viewBox="0 0 115 131" version="1.1" xmlns="http://www.w3.org/2000/svg" xmlns:xlink="http://www.w3.org/1999/xlink">
    <!-- Generator: Sketch 43 (38999) - http://www.bohemiancoding.com/sketch -->
    <title>school-bell</title>
    <desc>Created with Sketch.</desc>
    <defs></defs>
    <g id="لاگین" stroke="none" stroke-width="1" fill="none" fill-rule="evenodd">
        <g id="صفحه-اول" transform="translate(-99.000000, -593.000000)" fill-rule="nonzero">
            <g id="school-bell" transform="translate(99.000000, 593.000000)">
                <path d="M80.3709682,128.01884 C78.2881565,128.611373 76.1678249,129.119907 74.013634,129.53747 C72.1034748,129.914701 70.1661671,130.217639 68.2050663,130.449921 C65.1467374,130.813507 62.030756,130.998787 58.8742042,130.998787 C49.8752255,130.998787 41.2319231,129.487132 33.1880239,126.699137 C32.6191247,126.50385 32.0532759,126.301891 31.4910875,126.089623 C30.3496286,125.665389 29.2218966,125.214167 28.1042308,124.739595 C26.4582361,124.035773 24.8393899,123.281613 23.2540981,122.47378 C23.1998011,122.443456 23.145809,122.416468 23.0915119,122.386144 C21.1203448,121.376049 19.1998143,120.285292 17.3338859,119.113569 L17.3338859,85.4065417 L80.3709682,85.4068449 L80.3709682,128.01884 Z" id="Shape" fill="#64A4EE"></path>
                <path d="M23.091817,85.4068449 L23.091817,122.38584 C21.1206499,121.375745 19.2001194,120.284988 17.334191,119.113266 L17.334191,85.4065417 L23.091817,85.4068449 L23.091817,85.4068449 Z" id="Shape" fill="#4B80BF"></path>
                <ellipse id="Oval" fill="#E9E4D8" cx="48.8524271" cy="48.5776505" rx="48.6428647" ry="48.3559815"></ellipse>
                <path d="M13.0828515,48.5761343 C13.0828515,24.039713 31.4672944,3.7744375 55.2887666,0.643780093 C53.1830769,0.366921296 51.0355968,0.221972222 48.8536472,0.221972222 C21.9900133,0.221972222 0.212612732,21.8706319 0.212612732,48.5761343 C0.212612732,75.2816366 21.9900133,96.9302963 48.8536472,96.9302963 C51.0355968,96.9302963 53.1830769,96.785044 55.2887666,96.5084884 C31.4669894,93.377831 13.0828515,73.1122523 13.0828515,48.5761343 Z" id="Shape" fill="#D8D1C3"></path>
                <path d="M90.0407294,41.846919 C89.2531167,41.846919 88.5481698,41.2980532 88.3834483,40.5014398 C84.5521485,21.9367384 67.9274801,8.46284259 48.8536472,8.46284259 C47.3284483,8.46284259 45.7922679,8.54865972 44.2878117,8.71786806 C43.3592706,8.82248611 42.5198011,8.15838889 42.4148674,7.23441435 C42.3096286,6.31043981 42.9776658,5.47683102 43.907122,5.3725162 C45.5375597,5.1893588 47.2018568,5.09596065 48.8536472,5.09596065 C69.5283289,5.09596065 87.5482493,19.7012477 91.701366,39.8249097 C91.8892706,40.7355417 91.2990186,41.6255532 90.3829841,41.8123495 C90.2679841,41.8356991 90.1535942,41.846919 90.0407294,41.846919 Z" id="Shape" fill="#FFFFFF"></path>
                <ellipse id="Oval" fill="#878277" cx="48.8524271" cy="48.5776505" rx="9.75822281" ry="9.7006713"></ellipse>
                <g id="Group" transform="translate(44.230769, 44.576389)" fill="#E9E4D8">
                    <polygon id="Shape" points="2.31433687 7.97492824 0.00549071618 3.99974537 2.31433687 0.0248657407 6.9314191 0.0248657407 9.23965517 3.99974537 6.9314191 7.97492824"></polygon>
                    <path d="M25.1456499,73.7663426 L8.14944297,73.7663426 C7.21419098,73.7663426 6.45586207,73.0124861 6.45586207,72.08275 C6.45586207,71.1530139 7.21419098,70.3991574 8.14944297,70.3991574 L25.1456499,70.3991574 C26.0809019,70.3991574 26.8392308,71.1530139 26.8392308,72.08275 C26.8392308,73.0124861 26.0812069,73.7663426 25.1456499,73.7663426 Z" id="Shape"></path>
                </g>
                <path d="M57.23187,106.618231 L57.23187,126.69853 L33.1883289,126.69853 C32.6194297,126.503243 32.0535809,126.301285 31.4913926,126.089016 C30.3499337,125.664782 29.2222016,125.21356 28.1045358,124.738988 C26.4585411,124.035167 24.839695,123.281007 23.2544032,122.473174 L23.2544032,106.618231 L57.23187,106.618231 L57.23187,106.618231 Z" id="Shape" fill="#4D4D4D"></path>
                <path d="M57.23187,121.392424 L57.23187,126.698833 L33.1883289,126.698833 C32.6194297,126.503546 32.0535809,126.301588 31.4913926,126.089319 C30.3499337,125.665086 29.2222016,125.213863 28.1045358,124.739292 C26.4585411,124.03547 24.839695,123.28131 23.2544032,122.473477 L23.2544032,121.392727 L57.23187,121.392727 L57.23187,121.392424 Z" id="Shape" fill="#333333"></path>
                <g id="Group" transform="translate(28.063660, 104.921296)" fill="#E9E4D8">
                    <path d="M3.42742706,1.69693519 L3.42742706,21.1680231 C2.28596817,20.7437894 1.15823607,20.2925671 0.0405702918,19.8179954 L0.0405702918,1.69723843 C0.0405702918,0.768108796 0.799204244,0.0136458333 1.73415119,0.0136458333 C2.6687931,0.0136458333 3.42742706,0.767805556 3.42742706,1.69693519 Z" id="Shape"></path>
                    <path d="M22.6232759,23.4623426 C21.6880239,23.4623426 20.929695,22.7084861 20.929695,21.77875 L20.929695,1.6963287 C20.929695,0.766592593 21.6880239,0.0127361111 22.6232759,0.0127361111 C23.5585279,0.0127361111 24.3168568,0.766592593 24.3168568,1.6963287 L24.3168568,21.77875 C24.3165517,22.7087894 23.5582228,23.4623426 22.6232759,23.4623426 Z" id="Shape"></path>
                </g>
                <g id="Group" transform="translate(28.063660, 120.689815)" fill="#D8D1C3">
                    <path d="M3.42742706,0.238043981 L3.42742706,5.39950463 C2.28596817,4.97527083 1.15823607,4.52404861 0.0405702918,4.04947685 L0.0405702918,0.238043981 C0.0405702918,0.399671296 0.0643633952,0.554627315 0.108289125,0.702608796 C0.308090186,1.40643056 0.961790451,1.92133333 1.73415119,1.92133333 C2.50651194,1.92133333 3.15990716,1.40612731 3.36001326,0.702608796 C3.40393899,0.554627315 3.42742706,0.399671296 3.42742706,0.238043981 Z" id="Shape"></path>
                    <path d="M24.3180769,0.239560185 L24.3180769,6.01053472 C24.3180769,6.93966435 23.559443,7.69412731 22.624496,7.69412731 C21.6861936,7.69412731 20.9309151,6.93996759 20.9309151,6.01053472 L20.9309151,0.239560185 C20.9309151,1.16868981 21.6861936,1.92315278 22.624496,1.92315278 C23.559443,1.92315278 24.3180769,1.16868981 24.3180769,0.239560185 Z" id="Shape"></path>
                </g>
                <path d="M64.1074668,123.64338 C63.1722149,123.64338 62.4138859,122.889826 62.4138859,121.959787 L62.4138859,116.854123 C62.4138859,110.078815 66.4407162,103.888155 72.6729841,101.082572 C91.3844297,92.6594537 104.336419,74.8671065 106.475663,54.6479236 C106.573581,53.7230394 107.409085,53.0543935 108.337016,53.1496111 C109.267082,53.2469514 109.94183,54.0754051 109.844218,54.9999861 C107.579602,76.4024144 93.8723342,95.2354838 74.0703714,104.149549 C69.0469761,106.411118 65.8010477,111.397912 65.8013528,116.854123 L65.8013528,121.959787 C65.8010477,122.889523 65.0427188,123.64338 64.1074668,123.64338 Z" id="Shape" fill="#878277"></path>
                <rect id="Rectangle-path" fill="#E9E4D8" x="17.3338859" y="115.320331" width="5.918687" height="3.36688194"></rect>
                <path d="M74.0407825,129.132947 C74.0407825,129.270921 74.0307162,129.40556 74.013634,129.536863 C72.1034748,129.914095 70.1661671,130.217032 68.2050663,130.449315 C68.0119761,130.048734 67.903687,129.604183 67.903687,129.132947 C67.903687,127.446019 69.2788064,126.082648 70.9720822,126.082648 C72.6693236,126.082648 74.0407825,127.446322 74.0407825,129.132947 Z" id="Shape" fill="#4D4D4D"></path>
                <ellipse id="Oval" fill="#878277" cx="108.489231" cy="48.5776505" rx="6.29175066" ry="6.25464352"></ellipse>
                <path d="M106.48634,48.5761343 C106.48634,45.8718333 108.215915,43.5747847 110.633355,42.7020579 C109.963183,42.4600718 109.242679,42.3211875 108.488316,42.3211875 C105.013302,42.3211875 102.196565,45.1213125 102.196565,48.575831 C102.196565,52.0303495 105.013302,54.8304745 108.488316,54.8304745 C109.242984,54.8304745 109.962878,54.691287 110.633355,54.4496042 C108.21622,53.5771806 106.48634,51.2804352 106.48634,48.5761343 Z" id="Shape" fill="#726C5F"></path>
            </g>
        </g>
    </g>
</svg>