<?xml version="1.0" encoding="UTF-8" standalone="no"?>
<svg width="52px" height="55px" viewBox="0 0 52 55" version="1.1" xmlns="http://www.w3.org/2000/svg" xmlns:xlink="http://www.w3.org/1999/xlink">
    <!-- Generator: Sketch 43 (38999) - http://www.bohemiancoding.com/sketch -->
    <title>settings</title>
    <desc>Created with Sketch.</desc>
    <defs>
        <linearGradient x1="50%" y1="0.822010746%" x2="50%" y2="97.297723%" id="linearGradient-1">
            <stop stop-color="#9C9C9C" offset="0%"></stop>
            <stop stop-color="#CCCCCC" offset="100%"></stop>
        </linearGradient>
        <linearGradient x1="50%" y1="0.821672533%" x2="50%" y2="97.3007444%" id="linearGradient-2">
            <stop stop-color="#F2F2F2" offset="0.5%"></stop>
            <stop stop-color="#E6E6E6" offset="100%"></stop>
        </linearGradient>
        <linearGradient x1="50%" y1="0%" x2="50%" y2="100%" id="linearGradient-3">
            <stop stop-color="#F2F2F2" offset="0.5%"></stop>
            <stop stop-color="#E6E6E6" offset="100%"></stop>
        </linearGradient>
    </defs>
    <g id="لاگین" stroke="none" stroke-width="1" fill="none" fill-rule="evenodd">
        <g id="صفحه-اول" transform="translate(-106.000000, -1805.000000)" fill-rule="nonzero">
            <g id="settings" transform="translate(106.000000, 1805.000000)">
                <path d="M50.4034303,24.9222817 L47.8754896,24.4802676 C46.7101958,24.2765352 45.7288309,23.4730704 45.3228605,22.3575775 C45.1273591,21.8202817 44.909638,21.2935211 44.6710861,20.7785352 C44.1711454,19.6994507 44.2959763,18.4322817 44.9779941,17.4588592 L46.4548249,15.3507324 C46.9459703,14.6495211 46.8638813,13.6953099 46.260095,13.0892254 L42.5350742,9.34907042 C41.9314421,8.74298592 40.981092,8.66040845 40.2827181,9.1535493 L38.1831217,10.6363803 C37.2134837,11.321169 35.9515964,11.446507 34.8768783,10.9445352 C34.3639763,10.7050141 33.8395015,10.4865634 33.3042255,10.2901127 C32.1932463,9.88249296 31.3930326,8.89698592 31.1901246,7.72711268 L30.7498991,5.18890141 C30.6034659,4.34438028 29.8733056,3.72791549 29.019549,3.72791549 L23.7516558,3.72791549 C22.8978991,3.72791549 22.1678932,4.34438028 22.0213056,5.18890141 L21.5810801,7.72711268 C21.3781721,8.89714085 20.5779585,9.88249296 19.4669792,10.2901127 C18.9318576,10.4864085 18.4072285,10.7050141 17.8943264,10.9445352 C16.8196083,11.446507 15.5575668,11.321169 14.5880831,10.6363803 L12.4884866,9.1535493 C11.7901128,8.66040845 10.8397626,8.74283099 10.2361306,9.34907042 L6.51110979,13.0892254 C5.90747774,13.6953099 5.82523442,14.6496761 6.31637982,15.3507324 L7.79321068,17.4588592 C8.47522849,18.4322817 8.60005935,19.6994507 8.10011869,20.7785352 C7.86156677,21.2935211 7.644,21.8201268 7.44834421,22.3575775 C7.04237389,23.4730704 6.0608546,24.2765352 4.89571513,24.4802676 L2.36777448,24.9222817 C1.52667062,25.0693099 0.912700297,25.8024366 0.912700297,26.659662 L0.912700297,31.9489577 C0.912700297,32.8061831 1.52667062,33.5391549 2.36777448,33.686338 L4.89571513,34.1283521 C6.0610089,34.3320845 7.04237389,35.1355493 7.44834421,36.2510423 C7.6438457,36.788338 7.86156677,37.3150986 8.10011869,37.8300845 C8.60005935,38.909169 8.47522849,40.176338 7.79321068,41.1497606 L6.31637982,43.2578873 C5.82523442,43.9590986 5.90732344,44.9133099 6.51110979,45.5193944 L10.2361306,49.2595493 C10.8397626,49.8656338 11.7902671,49.9482113 12.4884866,49.4550704 L14.5880831,47.9722394 C15.5577211,47.2874507 16.8196083,47.1621127 17.8943264,47.6640845 C18.4072285,47.9036056 18.9317033,48.1220563 19.4669792,48.318507 C20.5779585,48.7261268 21.3781721,49.7116338 21.5810801,50.881507 L22.0213056,53.4197183 C22.1677389,54.2642394 22.8978991,54.8807042 23.7516558,54.8807042 L29.019549,54.8807042 C29.8733056,54.8807042 30.6033116,54.2642394 30.7498991,53.4197183 L31.1901246,50.881507 C31.3930326,49.7114789 32.1932463,48.7261268 33.3042255,48.318507 C33.8393472,48.1222113 34.3639763,47.9036056 34.8768783,47.6640845 C35.9515964,47.1621127 37.213638,47.2874507 38.1831217,47.9722394 L40.2827181,49.4550704 C40.981092,49.9482113 41.9314421,49.8657887 42.5350742,49.2595493 L46.260095,45.5193944 C46.863727,44.9133099 46.9459703,43.9590986 46.4548249,43.2578873 L44.9779941,41.1497606 C44.2959763,40.1761831 44.1711454,38.909169 44.6710861,37.8300845 C44.909638,37.3150986 45.1272047,36.788493 45.3228605,36.2510423 C45.7288309,35.1355493 46.7103501,34.3320845 47.8754896,34.1283521 L50.4034303,33.686338 C51.2445341,33.5393099 51.8585045,32.8061831 51.8585045,31.9489577 L51.8585045,26.659662 C51.8583501,25.8024366 51.2443798,25.0693099 50.4034303,24.9222817 Z" id="Shape" fill="#1A1A1A" opacity="0.3"></path>
                <path d="M49.6319169,23.925 L47.1041306,23.4829859 C45.9388368,23.2792535 44.9574718,22.4757887 44.5515015,21.3602958 C44.356,20.823 44.1382789,20.2962394 43.899727,19.7812535 C43.3997864,18.702169 43.5246172,17.435 44.206635,16.4615775 L45.6834659,14.3534507 C45.9189318,14.0172535 46.0212344,13.6229577 45.9988605,13.2367183 L46.0025638,13.2367183 L46.0025638,10.6783662 L44.080724,10.6783662 L41.7637151,8.35194366 C41.1600831,7.74585915 40.2097329,7.66328169 39.5113591,8.15642254 L37.4117626,9.63925352 C36.4422789,10.3240423 35.1802374,10.4493803 34.1055193,9.94740845 C33.5926172,9.70788732 33.0679881,9.48943662 32.5328665,9.29298592 C31.4218872,8.8853662 30.6216736,7.89985915 30.4187656,6.72998592 L29.9785401,4.19177465 C29.8321068,3.34725352 29.1019466,2.73078873 28.2483442,2.73078873 L22.980451,2.73078873 C22.1266944,2.73078873 21.3966884,3.34725352 21.2502552,4.19177465 L20.8100297,6.72998592 C20.6071217,7.90001408 19.806908,8.8853662 18.6959288,9.29298592 C18.1608071,9.48928169 17.636178,9.70788732 17.123276,9.94740845 C16.0485579,10.4493803 14.7865163,10.3240423 13.8170326,9.63925352 L11.7174362,8.15642254 C11.0190623,7.66328169 10.0687122,7.74570423 9.46508012,8.35194366 L7.14529377,10.6811549 L5.22468843,10.6811549 L5.22468843,13.1964366 L5.23163205,13.1964366 C5.19938279,13.5955352 5.30153116,14.0056338 5.54532938,14.3534507 L7.02216024,16.4615775 C7.70417804,17.435 7.8290089,18.702169 7.32906825,19.7812535 C7.09051632,20.2962394 6.87294955,20.8228451 6.67729377,21.3602958 C6.27132344,22.4757887 5.28980415,23.2792535 4.12466469,23.4829859 L1.59672404,23.925 C0.755620178,24.0720282 0.141649852,24.8051549 0.141649852,25.6623803 L0.141649852,30.9516761 C0.141649852,31.8089014 0.755620178,32.5418732 1.59656973,32.6890563 L4.12451039,33.1310704 C5.28980415,33.3348028 6.27116914,34.1382676 6.67713947,35.2537606 C6.87264095,35.7910563 7.09036202,36.3178169 7.32891395,36.8328028 C7.8288546,37.9118873 7.70402374,39.1790563 7.02200593,40.1524789 L6.57252226,40.7941972 L5.22468843,40.7941972 L5.22468843,43.3094789 L5.22684866,43.3094789 C5.23564392,43.7522676 5.40861721,44.1896338 5.73990504,44.5221127 L9.46492582,48.2622676 C10.0685579,48.8683521 11.018908,48.9509296 11.7172819,48.4576338 L13.8168783,46.9748028 C14.786362,46.2900141 16.0484036,46.1646761 17.1231217,46.6666479 C17.6360237,46.906169 18.1606528,47.1246197 18.6957745,47.3210704 C19.8067537,47.7286901 20.6068131,48.7141972 20.8098754,49.8840704 L21.2501009,52.4222817 C21.3965341,53.2668028 22.1266944,53.8832676 22.980451,53.8832676 L28.2483442,53.8832676 C29.1021009,53.8832676 29.8321068,53.2668028 29.9786944,52.4222817 L30.4189199,49.8840704 C30.6218279,48.7140423 31.4220415,47.7286901 32.5330208,47.3210704 C33.0681424,47.1246197 33.5927715,46.906169 34.1056736,46.6666479 C35.1803917,46.1646761 36.4424332,46.2900141 37.4119169,46.9748028 L39.5115134,48.4576338 C40.2098872,48.9507746 41.1602374,48.8683521 41.7638694,48.2621127 L45.4888902,44.5219577 C45.8099941,44.1995493 45.9818872,43.7786056 46.000095,43.3497606 L46.0027181,43.3497606 L46.0027181,43.2908873 C46.0028724,43.280662 46.0028724,43.2704366 46.0027181,43.2603662 L46.0027181,40.7914085 L44.6544214,40.7914085 L44.2067893,40.1524789 C43.5249258,39.1790563 43.3999407,37.9118873 43.8998813,36.8328028 C44.1384332,36.3178169 44.356,35.7912113 44.5516558,35.2537606 C44.9576261,34.1382676 45.9391454,33.3348028 47.1042849,33.1310704 L49.6320712,32.6890563 C50.4731751,32.5420282 51.0871454,31.8089014 51.0871454,30.9516761 L51.0871454,25.6623803 C51.0868368,24.8051549 50.4730208,24.0720282 49.6319169,23.925 Z" id="Shape" fill="url(#linearGradient-1)"></path>
                <path d="M49.6319169,21.2265915 L47.1039763,20.7845775 C45.9386825,20.5808451 44.9573175,19.7773803 44.5513472,18.6618873 C44.3558457,18.1245915 44.1381246,17.597831 43.8995727,17.0828451 C43.399632,16.0037606 43.5244629,14.7365915 44.2064807,13.763169 L45.6833116,11.6550423 C46.174457,10.953831 46.092368,9.99961972 45.4885816,9.39353521 L41.7635608,5.65338028 C41.1599288,5.04729577 40.2095786,4.96471831 39.5112047,5.45785915 L37.4116083,6.94069014 C36.4421246,7.62547887 35.1800831,7.7508169 34.105365,7.24884507 C33.5924629,7.00932394 33.0679881,6.79087324 32.5327122,6.59442254 C31.4217329,6.18680282 30.6215193,5.20129577 30.4186113,4.03142254 L29.9783858,1.49321127 C29.8319525,0.648690141 29.1017923,0.0322253521 28.2480356,0.0322253521 L22.9801424,0.0322253521 C22.1263858,0.0322253521 21.3963798,0.648690141 21.2497923,1.49321127 L20.8095668,4.03142254 C20.6066588,5.2014507 19.8064451,6.18680282 18.6954659,6.59442254 C18.1603442,6.79071831 17.6357151,7.00932394 17.1228131,7.24884507 C16.048095,7.7508169 14.7860534,7.62547887 13.8165697,6.94069014 L11.7169733,5.45785915 C11.0185994,4.96471831 10.0682493,5.04714085 9.46461721,5.65338028 L5.73959644,9.39353521 C5.13596439,9.99961972 5.05372107,10.9539859 5.54486647,11.6550423 L7.02169733,13.763169 C7.70371513,14.7365915 7.82854599,16.0037606 7.32860534,17.0828451 C7.09005341,17.597831 6.87248665,18.1244366 6.67683086,18.6618873 C6.27086053,19.7773803 5.28934125,20.5808451 4.12420178,20.7845775 L1.59626113,21.2265915 C0.75515727,21.3736197 0.141186944,22.1067465 0.141186944,22.9639718 L0.141186944,28.2532676 C0.141186944,29.110493 0.75515727,29.8434648 1.59626113,29.9906479 L4.12420178,30.432662 C5.28949555,30.6363944 6.27086053,31.4398592 6.67683086,32.5553521 C6.87233234,33.0926479 7.09005341,33.6194085 7.32860534,34.1343944 C7.82854599,35.2134789 7.70371513,36.4806479 7.02169733,37.4540704 L5.54486647,39.5621972 C5.05372107,40.2634085 5.13581009,41.2176197 5.73944214,41.8237042 L9.46446291,45.5638592 C10.068095,46.1699437 11.0185994,46.2525211 11.716819,45.7593803 L13.8164154,44.2765493 C14.7860534,43.5917606 16.0479407,43.4664225 17.1226588,43.9683944 C17.6355608,44.2079155 18.1600356,44.4263662 18.6953116,44.6228169 C19.8062908,45.0304366 20.6065045,46.0159437 20.8094125,47.1858169 L21.249638,49.7240282 C21.3960712,50.5685493 22.1262315,51.1850141 22.9799881,51.1850141 L28.2478813,51.1850141 C29.101638,51.1850141 29.8316439,50.5685493 29.9782315,49.7240282 L30.418457,47.1858169 C30.621365,46.0157887 31.4215786,45.0304366 32.5325579,44.6228169 C33.0676795,44.4265211 33.5923086,44.2079155 34.1052107,43.9683944 C35.1799288,43.4664225 36.4419703,43.5917606 37.411454,44.2765493 L39.5110504,45.7593803 C40.2094243,46.2525211 41.1597745,46.1700986 41.7634065,45.5638592 L45.4884273,41.8237042 C46.0920593,41.2176197 46.1743027,40.2634085 45.6831573,39.5621972 L44.2063264,37.4540704 C43.5243086,36.4806479 43.3994777,35.2134789 43.8994184,34.1343944 C44.1379703,33.6194085 44.3555371,33.0928028 44.5511929,32.5553521 C44.9571632,31.4398592 45.9386825,30.6363944 47.103822,30.432662 L49.6317626,29.9906479 C50.4728665,29.8436197 51.0868368,29.110493 51.0868368,28.2532676 L51.0868368,22.9639718 C51.0868368,22.1065915 50.4728665,21.3736197 49.6319169,21.2265915 Z" id="Shape" fill="#FFFFFF"></path>
                <path d="M22.9802967,50.8748451 C22.2748249,50.8748451 21.6750504,50.3683803 21.5539228,49.6705775 L21.1136973,47.1323662 C20.89073,45.8461408 20.0045697,44.7729437 18.8016261,44.3315493 C18.2785401,44.1395915 17.7576142,43.9228451 17.2531988,43.6871972 C16.777638,43.4651831 16.2695193,43.3525493 15.7425757,43.3525493 C14.9874184,43.3525493 14.2600356,43.5843239 13.6391217,44.0229296 L11.5396795,45.5056056 C11.2944926,45.6788169 11.0065638,45.7702254 10.7072166,45.7702254 C10.3202255,45.7702254 9.95637982,45.6190141 9.68295549,45.3444789 L5.95793472,41.6044789 C5.45922849,41.1035915 5.39179822,40.3196479 5.79745994,39.7403662 L7.2742908,37.6322394 C8.02265875,36.564 8.15072997,35.173662 7.60866469,34.0036338 C7.37350742,33.4960845 7.15763798,32.9728873 6.96691988,32.4490704 C6.52715727,31.2409296 5.45830267,30.3513239 4.1772819,30.1274507 L1.64934125,29.6854366 C0.954362018,29.5638169 0.45010089,28.9616056 0.45010089,28.2534225 L0.45010089,22.9641268 C0.45010089,22.2559437 0.95451632,21.6535775 1.64949555,21.5319577 L4.1772819,21.0899437 C5.45830267,20.8659155 6.52715727,19.9763099 6.96691988,18.7683239 C7.15748368,18.244507 7.37350742,17.7213099 7.60866469,17.2136056 C8.15072997,16.0435775 8.02265875,14.6532394 7.2742908,13.585 L5.79745994,11.4768732 C5.39164392,10.8975915 5.45922849,10.113493 5.95793472,9.61260563 L9.68280119,5.87260563 C9.95622552,5.59807042 10.3200712,5.44685915 10.7072166,5.44685915 C11.0065638,5.44685915 11.2943383,5.53826761 11.5395252,5.71147887 L13.6389674,7.19430986 C14.2600356,7.63291549 14.9874184,7.86469014 15.7424214,7.86469014 C16.269365,7.86469014 16.7774837,7.75205634 17.2530445,7.53004225 C17.7577685,7.29439437 18.2785401,7.07764789 18.8014718,6.88569014 C20.0045697,6.44429577 20.8905757,5.37109859 21.113543,4.08471831 L21.5537685,1.54666197 C21.6748961,0.848859155 22.2746706,0.342394366 22.9801424,0.342394366 L28.2480356,0.342394366 C28.9533531,0.342394366 29.5531276,0.848859155 29.6741009,1.54666197 L30.1144807,4.08471831 C30.3376024,5.37094366 31.2236083,6.44429577 32.4267062,6.88569014 C32.9491751,7.07749296 33.4702552,7.29423944 33.9749792,7.53004225 C34.4505401,7.75221127 34.9588131,7.86469014 35.4856024,7.86469014 C36.2407596,7.86469014 36.9679881,7.63276056 37.5889021,7.19430986 L39.6884985,5.71147887 C39.9336855,5.53826761 40.2214599,5.44685915 40.5209614,5.44685915 C40.9079525,5.44685915 41.2716439,5.59807042 41.5452226,5.87260563 L45.2702433,9.61276056 C45.7691039,10.113493 45.8366884,10.8974366 45.4307181,11.4768732 L43.9540415,13.5851549 C43.2056736,14.6532394 43.0776024,16.0437324 43.6196677,17.2137606 C43.854362,17.7205352 44.0703858,18.2435775 44.2612582,18.7683239 C44.7010208,19.9763099 45.7698754,20.8659155 47.0510504,21.0899437 L49.5788368,21.5319577 C50.273816,21.6535775 50.7780772,22.2557887 50.7780772,22.9641268 L50.7780772,28.2534225 C50.7780772,28.9616056 50.2736617,29.5638169 49.5788368,29.6854366 L47.0510504,30.1274507 C45.7698754,30.3514789 44.7010208,31.2410845 44.2612582,32.4489155 C44.0703858,32.973507 43.8545163,33.4967042 43.6196677,34.0036338 C43.0776024,35.173662 43.2056736,36.564 43.9540415,37.6322394 L45.4307181,39.7402113 C45.8365341,40.3196479 45.7689496,41.1035915 45.2702433,41.6043239 L41.5452226,45.3444789 C41.2717982,45.6190141 40.9079525,45.7702254 40.5209614,45.7702254 C40.5208071,45.7702254 40.5209614,45.7702254 40.5208071,45.7702254 C40.2216142,45.7702254 39.9336855,45.678662 39.6884985,45.5056056 L37.5890564,44.0227746 C36.9681424,43.584169 36.2407596,43.3523944 35.4856024,43.3523944 C34.9586588,43.3523944 34.4505401,43.4650282 33.9749792,43.6870423 C33.4702552,43.9228451 32.9493294,44.1395915 32.4265519,44.3313944 C31.2236083,44.7727887 30.3376024,45.8459859 30.1144807,47.1322113 L29.6741009,49.6704225 C29.5531276,50.3682254 28.9533531,50.8746901 28.2480356,50.8746901 L22.9802967,50.8748451 L22.9802967,50.8748451 Z" id="Shape" fill="url(#linearGradient-2)"></path>
                <path d="M39.5375905,26.4884648 C39.0848665,19.1612254 33.0258635,13.3581831 25.6142433,13.3581831 C18.2024688,13.3581831 12.1436202,19.1612254 11.6908961,26.4884648 C11.672997,26.1971972 11.6606528,25.1585493 11.6606528,26.4884648 C11.6606528,34.2261127 17.907905,39.6187465 25.6142433,39.6187465 C33.3196558,39.6187465 39.5661365,33.3478169 39.5678338,25.6114085 C39.5676795,25.9062394 39.5554896,26.1981268 39.5375905,26.4884648 Z" id="Shape" fill="#8F8F8F"></path>
                <g id="Group" transform="translate(11.572700, 11.464789)" fill="#5C5C5C">
                    <path d="M14.041543,1.89339437 C21.4533175,1.89339437 27.5121662,7.69643662 27.9648902,15.0236761 C27.9829436,14.7324085 27.9951335,14.4395915 27.9951335,14.1436761 C27.9951335,6.40602817 21.7478813,0.133394366 14.041543,0.133394366 C6.33520475,0.133394366 0.0879525223,6.40602817 0.0879525223,14.1436761 C0.0879525223,14.4394366 0.100142433,14.7324085 0.118195846,15.0236761 C0.570919881,7.69628169 6.62992285,1.89339437 14.041543,1.89339437 Z" id="Shape"></path>
                    <ellipse id="Oval" cx="14.041543" cy="15.551831" rx="8.82148368" ry="8.85732394"></ellipse>
                </g>
                <ellipse id="Oval" fill="url(#linearGradient-3)" cx="25.6142433" cy="25.6083099" rx="8.82148368" ry="8.85732394"></ellipse>
                <ellipse id="Oval" fill="#5C5C5C" cx="25.6142433" cy="25.6083099" rx="3.68089021" ry="3.69584507"></ellipse>
            </g>
        </g>
    </g>
</svg>