<?xml version="1.0" encoding="UTF-8"?>
<svg width="24px" height="24px" viewBox="0 0 24 24" version="1.1" xmlns="http://www.w3.org/2000/svg" xmlns:xlink="http://www.w3.org/1999/xlink">
    <title>icon/home-disable copy 2</title>
    <g id="icon/home-disable-copy-2" stroke="none" stroke-width="1" fill="none" fill-rule="evenodd">
        <g id="shopping-purse-icon" fill="#CD1820" fill-rule="nonzero">
            <path d="M7.8665,7.0625 C8.4185,7.0625 8.8665,6.6145 8.8665,6.0625 L8.8665,5.1625 C8.8665,3.419 10.285,2 12.029,2 C13.7725,2 15.1915,3.419 15.1915,5.1625 L15.1915,6.0625 C15.1915,6.6145 15.6395,7.0625 16.1915,7.0625 C16.7435,7.0625 17.1915,6.6145 17.1915,6.0625 L17.1915,5.1625 C17.1915,2.316 14.8755,0 12.029,0 C9.183,0 6.86699958,2.316 6.86699958,5.1625 L6.86699958,6.0625 C6.8665,6.6145 7.3145,7.0625 7.8665,7.0625 Z" id="Path"></path>
            <path d="M22,5.8155 C21.1536667,5.8155 19.8841667,5.8155 18.1915,5.8155 L18.1915,6.0625 C18.1915,7.1655 17.2945,8.0625 16.1915,8.0625 C15.089,8.0625 14.1915,7.1655 14.1915,6.0625 L14.1915,5.8155 L9.867,5.8155 L9.867,6.0625 C9.867,7.1655 8.97,8.0625 7.867,8.0625 C6.764,8.0625 5.867,7.1655 5.867,6.0625 L5.867,5.8155 C4.14833333,5.8155 2.85933333,5.8155 2,5.8155 C0.5,6 0.36898109,7.46205266 0.493971635,8.04257899 C1.18808905,11.2664503 2.22926517,16.1022573 3.6175,22.55 C3.829,23.351 4.6715,24 5.5,24 L18.5,24 C19.329,24 20.171,23.3505 20.3835,22.55 C21.7691546,16.1133213 22.8083956,11.2858123 23.5012229,8.0674729 C23.6279819,7.4786486 23.5,6 22,5.8155 Z" id="Path"></path>
        </g>
        <path d="M11.9509524,9.00036792 C13.1589747,8.98365483 14.3275541,9.53786095 15.1986404,10.3541284 C15.62449,10.7458832 15.8952421,11.261315 16.2094482,11.7386409 C16.4227073,11.6931813 16.6379719,11.6530699 16.8545736,11.6243234 C17.5478326,12.6057161 17.8901168,13.8291144 17.854685,15.0271089 C17.8633758,16.259198 17.4248243,17.474574 16.7054928,18.4680002 C16.0129023,19.377861 15.0696154,20.1032091 13.9952978,20.5023178 C12.814685,20.946886 11.4956878,20.9936827 10.2843229,20.6447133 C9.06359865,20.2750197 7.94181592,19.5302844 7.1930694,18.49073 C6.14482428,17.1276103 5.74304155,15.2784738 6.16554851,13.6085016 C6.2698382,13.1946855 6.40688556,12.7875545 6.58939252,12.4018164 C7.34749837,12.4680002 8.10694127,12.5154654 8.86638416,12.5729584 C8.74337581,12.2935156 8.58760979,12.0307857 8.46259586,11.7526799 C8.60900255,11.4825963 8.76811118,11.219198 8.94660701,10.9698387 C9.26482428,10.9658275 9.58036745,11.0146298 9.89724767,11.0386966 C9.80098026,10.7699501 9.66059029,10.5205908 9.54359865,10.2612036 C10.2876655,9.88950441 11.1634315,9.88549327 11.9429301,10.146886 C11.9549636,9.76449048 11.940256,9.38209494 11.9509524,9.00036792 M12.3239886,10.3387523 C12.816022,10.6730142 13.2565792,11.1048805 13.4952421,11.6590866 C13.8141279,12.3456604 13.8502282,13.1579167 13.5788076,13.8665518 C13.2325123,14.8305629 12.3353535,15.5759668 11.3205346,15.7250476 C10.5958549,15.8500615 9.82905826,15.6749083 9.22471286,15.2584181 C8.92454572,15.0712314 8.70861258,14.7871089 8.46059029,14.5410922 C8.77479642,16.0726799 10.2301725,17.2706743 11.7958549,17.2680002 C12.7384733,17.29073 13.6717324,16.8942955 14.3308967,16.2244348 C15.3791418,15.1929027 15.6311753,13.4594208 14.9232087,12.1705072 C14.4264956,11.1844348 13.4143507,10.4858275 12.3239886,10.3387523 M9.99217804,11.0453818 C10.046997,11.3254933 10.218139,11.5621506 10.3311195,11.8208693 C10.1954092,12.1043234 10.0222616,12.3663846 9.83908611,12.6210922 C9.5168577,12.6404793 9.19529781,12.5970253 8.8730694,12.6010364 C8.74337581,13.5690587 9.39919754,14.565159 10.3505067,14.7998108 C11.0852142,15.0097273 11.9014817,14.7256047 12.3901725,14.1506743 C12.9163006,13.5510086 12.9958549,12.6244348 12.6241558,11.9258275 C12.4396432,11.5501172 12.1080555,11.2680002 11.7490583,11.0661061 C11.2075541,10.7880002 10.542373,10.7973596 9.99217804,11.0453818 M15.4446571,16.9377495 C14.8844343,17.5969139 14.1376934,18.0956325 13.3113981,18.3543512 C12.1481669,18.7441005 10.8345179,18.643822 9.74014461,18.0902844 C8.9860499,17.7306186 8.37702483,17.1369696 7.86894684,16.4844905 C8.24799976,17.4785852 8.99875185,18.3276103 9.94671843,18.8122899 C10.9187519,19.3404236 12.0986961,19.4159668 13.1556321,19.1231534 C14.3101725,18.7888916 15.3096154,17.9512314 15.8344064,16.8688916 C15.9861613,16.5807579 16.1051585,16.2725685 16.1472755,15.9483345 C15.9132922,16.2785852 15.7314538,16.6469417 15.4446571,16.9377495" id="Fill-1" fill="#FFFFFF"></path>
    </g>
</svg>