<?xml version="1.0" encoding="UTF-8"?>
<svg width="100px" height="100px" viewBox="0 0 100 100" version="1.1" xmlns="http://www.w3.org/2000/svg" xmlns:xlink="http://www.w3.org/1999/xlink">
    <title>icon/ic-disciplinary</title>
    <g id="icon/ic-disciplinary" stroke="none" stroke-width="1" fill="none" fill-rule="evenodd">
        <g id="treasure" transform="translate(-1.000000, -1.000000)" fill-rule="nonzero">
            <g id="#f0c419ff" transform="translate(40.000000, 49.000000)" fill="#F0C419">
                <path d="M0.6484375,0.30859375 C1.60546875,0.279296875 2.5625,0.279296875 3.51953125,0.275390625 C8.35546875,0.28125 13.1933594,0.271484375 18.03125,0.28125 C18.9472656,0.28515625 19.8613281,0.28515625 20.7773438,0.2890625 C20.9121094,0.287109375 21.1816406,0.283203125 21.3164062,0.28125 L21.3457031,0.43359375 C21.34375,3.82617188 21.3515625,7.22070313 21.3476563,10.6152344 C21.3027344,12.7675781 21.5253906,14.9824219 20.8613281,17.0664063 C20.4589844,18.5117188 19.6367188,19.7890625 18.6992188,20.9453125 C16.8105469,23.0566406 14.0410156,24.3691406 11.1992187,24.3945313 C8.21875,24.4804688 5.25976563,23.15625 3.2890625,20.9277344 C1.9375,19.328125 0.966796875,17.3671875 0.763671875,15.2636719 C0.58203125,13.7207031 0.677734375,12.1660156 0.654296875,10.6152344 C0.64453125,7.1796875 0.65625,3.74414063 0.6484375,0.30859375 M7.60546875,10.5976562 C7.546875,11.8457031 8.30859375,13.0039062 9.35546875,13.6328125 C9.1953125,14.5 9.30273438,15.3867188 9.27148438,16.2636719 C9.296875,17 9.15039063,17.8222656 9.59179688,18.4707031 C10.0917969,19.28125 11.328125,19.4746094 12.0527344,18.8535156 C12.6835938,18.4042969 12.7519531,17.5605469 12.7246094,16.8496094 C12.6796875,15.7792969 12.8105469,14.6972656 12.640625,13.6367188 C13.6835938,12.9960938 14.4550781,11.8496094 14.3925781,10.5957031 C14.4589844,8.7890625 12.8066406,7.15429688 11.0058594,7.2265625 C9.19726563,7.1484375 7.5390625,8.78515625 7.60546875,10.5976562 Z" id="Shape"></path>
            </g>
            <g id="#f29c1fff" transform="translate(0.195312, 0.242188)">
                <path d="M0.8046875,20.4472656 C1.11610909,20.4485402 2.06580024,20.2569623 4.3046875,20.2578041 C22.650641,20.2647791 98.2528278,20.4513843 100.804688,20.453125 C96.7773438,29.6386719 92.7695312,39.8261719 88.7519531,49.0078125 C86.3046875,48.9863281 14.8535156,49.0878906 12.8730469,49.0488281 C8.85351562,39.8535156 4.83984375,29.6542969 0.8046875,20.4667969 L0.8046875,20.4472656 Z" id="Path" fill="#805333"></path>
                <path d="M4.359375,49.0488281 C7.19726563,49.0273437 10.0351563,49.0273437 12.8730469,49.0488281 C14.8535156,49.0878906 16.8339844,49.0625 18.8125,49.0625 C19.7929688,49.0371094 20.7734375,49.0898438 21.7519531,49.0292969 C23.7988281,49.0527344 25.84375,49.0136719 27.890625,49.0507812 C30.6777344,49.1289062 33.4667969,49.0839844 36.2539063,49.0859375 C37.6542969,49.0703125 75.8652344,49.2070312 83.2226563,49.1796875 C85.3046875,49.1582031 87.3886719,49.2265625 89.4707031,49.125 C92.0996094,49.0683594 94.7324219,49.1835938 97.359375,49.0566406 C99.1914063,49.1347656 100.714844,50.8886719 100.552734,52.7148437 C99.5703125,67.6269531 98.5664063,82.5371094 97.5664063,97.4492188 C97.515625,99.1933594 96.0039063,100.703125 94.2578125,100.757812 L7.375,100.757812 C5.62109375,100.71875 4.09570313,99.203125 4.04296875,97.4511719 C3.04101563,82.5410156 2.03515625,67.6328125 1.05078125,52.7226562 C0.890625,50.8554688 2.47851563,49.0683594 4.359375,49.0488281 Z" id="Path" fill="#FF9811"></path>
                <path d="M18.8515625,0.7578125 L49.3046875,0.7578125 C49.3808594,4.2578125 49.4550781,19.1132812 49.3964844,21.4472656 C46.5332031,21.4453125 3.66796875,21.4589844 0.8046875,21.4472656 L0.8046875,18.8339844 C1,14.578125 2.67578125,10.3984375 5.50585938,7.20898438 C8.83203125,3.36328125 13.7773438,0.9921875 18.8515625,0.7578125 Z" id="Path" fill="#FFDA44"></path>
                <path d="M56.3964844,0.7578125 L82.7402344,0.7578125 C85.9179687,0.9140625 89.0644531,1.87109375 91.7695312,3.55273437 C97.0585937,6.73046875 100.542969,12.6484375 100.804687,18.8085937 L100.804687,21.453125 C97.9414062,21.4511719 59.0761719,21.4472656 56.2128906,21.4472656 C56.3046875,7.7578125 56.3046875,7.7578125 56.3964844,0.7578125 Z" id="Path" fill="#FFDA44"></path>
                <path d="M29.2285156,0.7578125 L72.3964844,0.7578125 C75.8710938,0.931640625 79.3886719,1.49609375 82.5605469,2.98632813 C84.9394531,4.04101563 88.8046875,6.2578125 89.8046875,9.7578125 C64.5175781,9.7734375 37.0917969,9.77929687 11.8046875,9.7578125 C13.3046875,5.2578125 18.046875,3.140625 21.2851563,2.10742188 C23.8398438,1.23242188 26.5429688,0.904296875 29.2285156,0.7578125 Z" id="Path" fill="#FF9811"></path>
            </g>
            <g id="#af8066ff" transform="translate(9.789062, 7.835938)" fill="#AF8066">
                <path d="M0.150390625,8.859375 C0.619140625,6.37695312 1.67578125,2.00585938 3.27734375,0.048828125 C28.5644531,0.0703125 53.8535156,0.06640625 79.140625,0.05078125 C80.7460938,2.00585938 81.8027344,6.37890625 82.2714844,8.86132813 C73.3398438,8.92578125 64.4082031,8.87304687 55.4785156,8.890625 C42.3886719,8.88867187 29.2988281,8.88867187 16.2089844,8.890625 C10.8554687,8.86523437 5.50195312,8.93164062 0.150390625,8.859375 Z" id="Path"></path>
                <path d="M2.71289062,52.5332031 C3.09375,51.9492187 3.828125,51.7578125 4.49023437,51.78125 C13.28125,51.78125 22.0742188,51.7832031 30.8652344,51.7792969 C30.8886719,53.3300781 30.7929687,54.8847656 30.9746094,56.4277344 C31.1777344,58.53125 32.1484375,60.4921875 33.5,62.0917969 C23.3203125,62.1757812 13.1367187,62.1074219 2.95703125,62.1269531 C2.76953125,59.4570312 2.59765625,56.7871094 2.41015625,54.1171875 C2.37695312,53.578125 2.36914063,52.984375 2.71289062,52.5332031 Z" id="Path"></path>
                <path d="M51.5585938,51.7792969 C60.4160156,51.7890625 69.2753906,51.7734375 78.1328125,51.7871094 C79.1777344,51.7128906 80.1484375,52.6386719 80.0195312,53.7011719 C79.859375,56.515625 79.6484375,59.328125 79.4648438,62.140625 C73.3515625,62.1503906 67.2382812,62.1425781 61.125,62.1445312 C57.0527344,62.1230469 52.9804688,62.1914062 48.9101563,62.109375 C49.8476563,60.953125 50.6699219,59.6757812 51.0722656,58.2304687 C51.7363281,56.1464844 51.5136719,53.9316406 51.5585938,51.7792969 Z" id="Path"></path>
                <path d="M3.64453125,72.4648437 C28.6894531,72.4589844 53.7324219,72.4570312 78.7773437,72.4648437 C78.578125,75.3652344 78.4023438,78.2695312 78.1855469,81.1679687 C78.1523438,82.1894531 77.15625,82.9257812 76.171875,82.8164062 C52.9277344,82.8222656 29.6816406,82.8144531 6.4375,82.8203125 C5.89648438,82.8164062 5.30078125,82.7949219 4.87304688,82.4179687 C4.38671875,82.0566406 4.234375,81.4335937 4.203125,80.8613281 C4.02148438,78.0625 3.828125,75.2636719 3.64453125,72.4648437 Z" id="Path"></path>
            </g>
            <g id="#805333ff" transform="translate(12.000000, 69.507812)" fill="#805333">
                <path d="M0.74609375,0.455078125 C10.9257812,0.435546875 21.109375,0.50390625 31.2890625,0.419921875 C33.2597656,2.6484375 36.21875,3.97265625 39.1992188,3.88671875 C42.0410156,3.86132812 44.8105469,2.54882812 46.6992188,0.4375 C50.7695312,0.51953125 54.8417969,0.451171875 58.9140625,0.47265625 C65.0273438,0.470703125 71.140625,0.478515625 77.2539062,0.46875 C77.0292969,3.91015625 76.796875,7.3515625 76.5664062,10.7929687 C51.5214844,10.7851562 26.4785156,10.7871094 1.43359375,10.7929687 C1.203125,7.34765625 0.970703125,3.90039062 0.74609375,0.455078125 Z" id="Path"></path>
            </g>
            <g id="#cb8252ff" transform="translate(9.398438, 13.671875)" fill="#CB8252">
                <path d="M1.1015625,0.828125 C6.453125,0.900390625 73.1699219,0.892578125 82.1015625,0.828125 C83.1015625,3.828125 82.5429688,5.49609375 82.6015625,7.828125 C41.2851562,8.828125 41.6015625,8.828125 0.1015625,7.828125 C0.16015625,5.49414063 0.6015625,2.828125 1.1015625,0.828125 Z" id="Path"></path>
            </g>
            <g id="#cc4b4cff" transform="translate(26.195312, 28.734375)" fill="#CC4B4C">
                <path d="M36.8964844,0.16015625 C37.3046875,0.068359375 37.765625,-0.140625 38.1445313,0.150390625 C40.6757812,1.63867187 43.2011719,3.13476563 45.7304688,4.62304687 C42.9804688,5.34179687 40.2265625,6.04882812 37.4765625,6.765625 C38.0976563,7.23242188 38.7890625,7.59179688 39.4550781,7.9921875 C42.4472656,9.7578125 45.4394531,11.5214844 48.4296875,13.2871094 C49.1015625,13.6757813 49.7460938,14.1191406 50.46875,14.4101562 C50.4882812,14.4414062 50.5234375,14.5039062 50.5429688,14.5371094 C48.140625,16.5136719 45.7226563,18.4746094 43.3828125,20.5214844 C40.6289062,20.5507812 37.875,20.5019531 35.1210938,20.546875 C34.9863281,20.5488281 34.7167969,20.5527344 34.5820313,20.5546875 C35.4921875,15.9863281 36.3632813,11.4101562 37.2324219,6.83398438 C35.7226562,5.80078125 34.0878906,4.96289062 32.5332031,4 C31.4941406,3.40820312 30.5,2.73242188 29.4101562,2.234375 C29.4042969,2.20507812 29.3925781,2.1484375 29.3867188,2.12109375 C31.875,1.4140625 34.3984375,0.8359375 36.8964844,0.16015625 Z" id="Path"></path>
                <path d="M1.17382812,13.0859375 C3.05664063,12.4238281 4.94335937,11.7753906 6.81445312,11.0839844 C8.375,12.3398438 9.79492188,13.7675781 11.4238281,14.9316406 C11.2460938,15.2714844 11.1503906,15.6464844 11.0917969,16.0253906 C10.828125,17.5507812 10.5195313,19.0683594 10.2539062,20.59375 C7.46679687,20.5917969 4.67773437,20.6367188 1.890625,20.5585937 C1.31640625,19.9863281 0.689453125,19.4707031 0.060546875,18.9628906 C0.423828125,17.0019531 0.75,15.0332031 1.17382812,13.0859375 Z" id="Path"></path>
            </g>
            <g id="#ff5364ff" transform="translate(18.968750, 30.882812)" fill="#FF5364">
                <path d="M36.6367188,0.0859375 C37.7265625,0.583984375 38.7207031,1.25976562 39.7597656,1.8515625 C41.3144531,2.81445312 42.9492188,3.65234375 44.4589844,4.68554688 C43.5898438,9.26171875 42.71875,13.8378906 41.8085938,18.40625 C40.8925781,18.4023437 39.9785156,18.4023437 39.0625,18.3984375 C38.3964844,13.3632812 37.7363281,8.328125 37.0625,3.29492188 C36.9277344,2.22460937 36.7734375,1.15625 36.6367188,0.0859375 Z" id="Path"></path>
                <path d="M0.0390625,18.421875 C0.810546875,14.2050781 1.54296875,9.9765625 2.39648437,5.77539062 C4.39453125,7.49804687 6.4296875,9.18164062 8.40039062,10.9375 C7.9765625,12.8847656 7.65039062,14.8535156 7.28710938,16.8144531 C5.859375,17.3613281 4.38867188,17.7949219 2.97851562,18.3886719 C2,18.4492188 1.01953125,18.3964844 0.0390625,18.421875 Z" id="Path"></path>
            </g>
            <g id="#fb7b76ff" transform="translate(21.312500, 31.859375)" fill="#FB7B76">
                <path d="M0.052734375,4.79882812 C4.41015625,3.26953125 8.7578125,1.70898437 13.1210938,0.19140625 C12.6464844,2.78125 12.1445312,5.36523438 11.6972656,7.95898438 C9.82617188,8.65039062 7.93945312,9.29882813 6.05664062,9.9609375 C4.0859375,8.20507812 2.05078125,6.52148437 0.052734375,4.79882812 Z" id="Path"></path>
                <path d="M42.359375,3.640625 C45.109375,2.92382812 47.8632812,2.21679687 50.6132812,1.49804687 C51.5019531,2.01367188 52.3847656,2.54101562 53.265625,3.07226562 C53.9042969,5.82421875 54.640625,8.55273437 55.3515625,11.2851562 C54.6289062,10.9941406 53.984375,10.5507813 53.3125,10.1621094 C50.3222656,8.39648438 47.3300781,6.6328125 44.3378906,4.8671875 C43.671875,4.46679688 42.9804688,4.10742188 42.359375,3.640625 Z" id="Path"></path>
            </g>
            <g id="#e64c3cff" transform="translate(32.835938, 31.859375)" fill="#E64C3C">
                <path d="M1.59765625,0.19140625 C2.78515625,1.140625 3.90429688,2.16796875 5.08007812,3.13085938 C7.43554687,5.19140625 9.87304688,7.1640625 12.203125,9.25390625 C9.74609375,10.1503906 7.26171875,10.96875 4.78320313,11.8066406 C3.15429688,10.6425781 1.734375,9.21484375 0.173828125,7.95898438 C0.62109375,5.36523438 1.12304687,2.78125 1.59765625,0.19140625 Z" id="Path"></path>
                <path d="M41.7421875,3.07226562 C44.2675781,4.54492188 46.7753906,6.05078125 49.2988281,7.52734375 C49.5175781,7.63085937 49.6777344,7.82226563 49.7167969,8.06835938 C50.4042969,10.7421875 51.0996094,13.4140625 51.7832031,16.0898437 C49.1523438,14.5390625 46.5097656,13.0019531 43.9023437,11.4121094 C43.8828125,11.3789062 43.8476562,11.3164062 43.828125,11.2851562 C43.1171875,8.55273437 42.3808594,5.82421875 41.7421875,3.07226562 Z" id="Path"></path>
            </g>
            <g id="#f3d55bff" transform="translate(37.914062, 33.617188)" fill="#FFDA44">
                <path d="M0.001953125,1.37304688 C5.9375,0.064453125 12.0878906,-0.158203125 18.1171875,0.560546875 C18.7910156,5.59375 19.4511719,10.6289062 20.1171875,15.6640625 C15.2792969,15.6542969 10.4414062,15.6640625 5.60546875,15.6582031 C6.11328125,12.9375 6.59765625,10.2128906 7.125,7.49609375 C4.79492188,5.40625 2.35742187,3.43359375 0.001953125,1.37304688 Z" id="Path"></path>
            </g>
            <g id="#802f34ff" transform="translate(21.898438, 41.039062)" fill="#802F34">
                <path d="M15.7207031,2.62695312 C18.1992188,1.7890625 20.6835938,0.970703125 23.140625,0.07421875 C22.6132812,2.79101562 22.1289062,5.515625 21.6210938,8.23632812 C20.6640625,8.24023438 19.7070312,8.24023438 18.75,8.26953125 C17.3515625,8.31054688 15.9511719,8.2734375 14.5507812,8.2890625 C14.8164063,6.76367187 15.125,5.24609375 15.3886719,3.72070313 C15.4472656,3.34179688 15.5429688,2.96679687 15.7207031,2.62695312 Z" id="Path"></path>
                <path d="M47.6796875,8.21679687 C50.0195312,6.16992188 52.4375,4.20898438 54.8398437,2.23242188 C57.4472656,3.82226562 60.0898438,5.359375 62.7207031,6.91015625 C61.7558594,7.42382812 60.6855469,7.69726562 59.7109375,8.19726562 C55.7011719,8.265625 51.6894531,8.22460938 47.6796875,8.21679687 Z" id="Path"></path>
                <path d="M0.048828125,8.23242188 C1.45898437,7.63867188 2.9296875,7.20507812 4.35742188,6.65820313 C4.98632812,7.16601562 5.61328125,7.68164063 6.1875,8.25390625 C4.140625,8.21679687 2.09570313,8.25585938 0.048828125,8.23242188 Z" id="Path"></path>
            </g>
            <g id="#c47a1edb" transform="translate(61.156250, 49.046875)" fill="#C47A1E" opacity="0.86">
                <path d="M0.16015625,0.6 C2.9140625,0.485 5.66796875,0.61 8.421875,0.535 C12.4316406,0.555 16.4433594,0.66 20.453125,0.485 C22.8984375,0.51 25.34375,0.465 27.7910156,0.52 C30.6601562,0.645 33.53125,0.42 36.3984375,0.645 C33.7714844,0.97 31.1386719,0.675 28.5097656,0.82 C26.4277344,1.08 24.34375,0.905 22.2617188,0.96 C14.9042969,1.03 7.546875,0.92 0.189453125,0.99 L0.16015625,0.6 Z" id="Path"></path>
            </g>
            <g id="#2c2f38ff" transform="translate(47.484375, 56.078125)" fill="#2C2F38">
                <path d="M0.12109375,3.51953125 C0.0546875,1.70703125 1.71289063,0.0703125 3.52148437,0.1484375 C5.32226562,0.076171875 6.97460937,1.7109375 6.90820313,3.51757812 C6.97070312,4.77148438 6.19921875,5.91796875 5.15625,6.55859375 C5.32617187,7.61914063 5.1953125,8.70117188 5.24023437,9.77148437 C5.26757813,10.4824219 5.19921875,11.3261719 4.56835937,11.7753906 C3.84375,12.3964844 2.60742187,12.203125 2.10742187,11.3925781 C1.66601563,10.7441406 1.8125,9.921875 1.78710938,9.18554687 C1.81835938,8.30859375 1.7109375,7.421875 1.87109375,6.5546875 C0.82421875,5.92578125 0.0625,4.76757813 0.12109375,3.51953125 Z" id="Path"></path>
            </g>
        </g>
    </g>
</svg>