<?xml version="1.0" encoding="UTF-8" standalone="no"?>
<svg width="117px" height="101px" viewBox="0 0 117 101" version="1.1" xmlns="http://www.w3.org/2000/svg" xmlns:xlink="http://www.w3.org/1999/xlink">
    <!-- Generator: Sketch 43 (38999) - http://www.bohemiancoding.com/sketch -->
    <title>library-2</title>
    <desc>Created with Sketch.</desc>
    <defs></defs>
    <g id="لاگین" stroke="none" stroke-width="1" fill="none" fill-rule="evenodd">
        <g id="صفحه-اول" transform="translate(-92.000000, -1513.000000)" fill-rule="nonzero">
            <g id="library-2" transform="translate(92.000000, 1513.000000)">
                <path d="M107.177778,67.116129 L20.3666667,67.116129 C12.5666667,67.116129 6.35555556,73.4874552 6.35555556,81.1620072 C6.35555556,88.981362 12.7111111,95.2078853 20.3666667,95.2078853 L107.177778,95.2078853 L107.177778,67.116129 Z" id="Shape" fill="#E6E9EE"></path>
                <path d="M107.611111,97.5247312 L20.3666667,97.5247312 C11.4111111,97.5247312 4.18888889,90.2845878 4.18888889,81.30681 C4.18888889,72.3290323 11.4111111,65.0888889 20.3666667,65.0888889 L107.611111,65.0888889 C108.766667,65.0888889 109.777778,66.102509 109.777778,67.2609319 C109.777778,68.4193548 108.766667,69.4329749 107.611111,69.4329749 L20.3666667,69.4329749 C13.7222222,69.4329749 8.37777778,74.790681 8.37777778,81.4516129 C8.37777778,88.1125448 13.7222222,93.4702509 20.3666667,93.4702509 L107.611111,93.4702509 C108.766667,93.4702509 109.777778,94.483871 109.777778,95.6422939 C109.777778,96.5111111 108.766667,97.5247312 107.611111,97.5247312 Z" id="Shape" fill="#8FC2FE"></path>
                <path d="M114.111111,34.5354839 L27.3,34.5354839 C19.5,34.5354839 13.2888889,40.90681 13.2888889,48.581362 C13.2888889,56.255914 19.6444444,62.6272401 27.3,62.6272401 L114.111111,62.6272401 L114.111111,34.5354839 Z" id="Shape" fill="#E6E9EE"></path>
                <path d="M2.88888889,2.09964158 L89.7,2.09964158 C97.5,2.09964158 103.711111,8.47096774 103.711111,16.1455197 C103.711111,23.8200717 97.3555556,30.1913978 89.7,30.1913978 L2.88888889,30.1913978 L2.88888889,2.09964158 Z" id="Shape" fill="#E6E9EE"></path>
                <path d="M2.45555556,32.5082437 L89.7,32.5082437 C98.6555556,32.5082437 105.877778,25.2681004 105.877778,16.2903226 C105.877778,7.3125448 98.6555556,0.0724014337 89.7,0.0724014337 L2.45555556,0.0724014337 C1.3,0.0724014337 0.288888889,1.08602151 0.288888889,2.24444444 C0.288888889,3.40286738 1.3,4.41648746 2.45555556,4.41648746 L89.7,4.41648746 C96.3444444,4.41648746 101.688889,9.77419355 101.688889,16.4351254 C101.688889,23.0960573 96.3444444,28.4537634 89.7,28.4537634 L2.45555556,28.4537634 C1.3,28.4537634 0.288888889,29.4673835 0.288888889,30.6258065 C0.288888889,31.7842294 1.3,32.5082437 2.45555556,32.5082437 Z" id="Shape" fill="#3B72B1"></path>
                <path d="M114.544444,64.944086 L27.3,64.944086 C18.3444444,64.944086 11.1222222,57.7039427 11.1222222,48.7261649 C11.1222222,39.7483871 18.3444444,32.5082437 27.3,32.5082437 L114.544444,32.5082437 C115.7,32.5082437 116.711111,33.5218638 116.711111,34.6802867 C116.711111,35.8387097 115.7,36.8523297 114.544444,36.8523297 L27.3,36.8523297 C20.6555556,36.8523297 15.3111111,42.2100358 15.3111111,48.8709677 C15.3111111,55.5318996 20.6555556,60.8896057 27.3,60.8896057 L114.544444,60.8896057 C115.7,60.8896057 116.711111,61.9032258 116.711111,63.0616487 C116.711111,63.9304659 115.7,64.944086 114.544444,64.944086 Z" id="Shape" fill="#324A5E"></path>
                <polygon id="Shape" fill="#64A4EE" points="96.4888889 43.5132616 96.4888889 64.2200717 90.4222222 57.7039427 83.7777778 64.944086 83.7777778 43.5132616"></polygon>
                <polygon id="Shape" fill="#64A4EE" points="35.9666667 79.2795699 35.9666667 99.9863799 30.0444444 93.4702509 23.4 100.710394 23.4 79.2795699"></polygon>
                <polygon id="Shape" fill="#64A4EE" points="22.1 9.62939068 22.1 30.3362007 16.0333333 23.8200717 9.53333333 31.0602151 9.53333333 9.62939068"></polygon>
            </g>
        </g>
    </g>
</svg>