<?xml version="1.0" encoding="UTF-8" standalone="no"?>
<svg width="57px" height="62px" viewBox="0 0 57 62" version="1.1" xmlns="http://www.w3.org/2000/svg" xmlns:xlink="http://www.w3.org/1999/xlink">
    <!-- Generator: Sketch 43 (38999) - http://www.bohemiancoding.com/sketch -->
    <title>school</title>
    <desc>Created with Sketch.</desc>
    <defs></defs>
    <g id="لاگین" stroke="none" stroke-width="1" fill="none" fill-rule="evenodd">
        <g id="صفحه-اول" transform="translate(-745.000000, -1801.000000)" fill-rule="nonzero">
            <g id="school" transform="translate(745.000000, 1801.000000)">
                <path d="M55.0400857,62 L39.8743386,62 C38.8277869,62 37.9785777,61.1534492 37.9785777,60.1086563 L37.9785777,37.4130977 C37.9785777,36.3683047 38.8277869,35.5217539 39.8743386,35.5217539 L55.0400857,35.5217539 C56.0866375,35.5217539 56.9358466,36.3683047 56.9358466,37.4130977 L56.9358466,60.1087695 C56.9358466,61.1534492 56.0866375,62 55.0400857,62 Z" id="Shape" fill="#B8BFCC"></path>
                <path d="M17.1256614,62 L1.95991434,62 C0.91336255,62 0.0641533865,61.1534492 0.0641533865,60.1086563 L0.0641533865,37.4130977 C0.0641533865,36.3683047 0.91336255,35.5217539 1.95991434,35.5217539 L17.1256614,35.5217539 C18.1722131,35.5217539 19.0214223,36.3683047 19.0214223,37.4130977 L19.0214223,60.1087695 C19.0214223,61.1534492 18.1722131,62 17.1256614,62 Z" id="Shape" fill="#CFD6E6"></path>
                <polygon id="Shape" fill="#E6EEFF" points="28.5 9.04350781 15.2299004 21.0217539 15.2299004 62 41.7700996 62 41.7700996 21.0217539"></polygon>
                <polygon id="Shape" fill="#DAE2F2" points="28.5 62 41.7700996 62 41.7700996 21.0217539 28.5 9.04350781"></polygon>
                <path d="M28.5,30.4782461 C25.3639781,30.4782461 22.8128307,27.933043 22.8128307,24.8043281 C22.8128307,21.6756133 25.3639781,19.1304102 28.5,19.1304102 C31.6360219,19.1304102 34.1871693,21.6756133 34.1871693,24.8043281 C34.1871693,27.933043 31.6360219,30.4782461 28.5,30.4782461 Z" id="Shape" fill="#50B9FF"></path>
                <path d="M34.1871693,24.8043281 C34.1871693,21.6756133 31.6360219,19.1304102 28.5,19.1304102 L28.5,30.4782461 C31.6360219,30.4782461 34.1871693,27.933043 34.1871693,24.8043281 Z" id="Shape" fill="#48A7E6"></path>
                <path d="M28.5,26.6956719 C27.4546972,26.6956719 26.604239,25.8471953 26.604239,24.8043281 C26.604239,23.7614609 27.4546972,22.9129844 28.5,22.9129844 C29.5453028,22.9129844 30.395761,23.7614609 30.395761,24.8043281 C30.395761,25.8471953 29.5453028,26.6956719 28.5,26.6956719 Z" id="Shape" fill="#E6EEFF"></path>
                <path d="M30.395761,24.8043281 C30.395761,23.7614609 29.5453028,22.9129844 28.5,22.9129844 L28.5,26.6955586 C29.5453028,26.6956719 30.395761,25.8471953 30.395761,24.8043281 Z" id="Shape" fill="#DAE2F2"></path>
                <path d="M28.5,11.5652617 C27.4534482,11.5652617 26.604239,10.2954419 26.604239,8.72826025 L26.604239,3.05442725 C26.604239,1.48724562 27.4534482,0.217425781 28.5,0.217425781 C29.5465518,0.217425781 30.395761,1.48724562 30.395761,3.05442725 L30.395761,8.72826025 C30.395761,10.2954419 29.5465518,11.5652617 28.5,11.5652617 Z" id="Shape" fill="#5C5F66"></path>
                <path d="M34.1871693,62 L22.8128307,62 L22.8128307,44.9782461 C22.8128307,43.933793 23.6615857,43.0869023 24.7085916,43.0869023 L32.2915219,43.0869023 C33.3384143,43.0869023 34.1872829,43.9336797 34.1872829,44.9782461 L34.1872829,62 L34.1871693,62 Z" id="Shape" fill="#737780"></path>
                <g id="Group" transform="translate(7.607570, 43.082031)" fill="#54CCFF">
                    <rect id="Rectangle-path" x="0.0395139442" y="0.00487109375" width="3.79140837" height="3.78257422"></rect>
                    <rect id="Rectangle-path" x="0.0395139442" y="7.57013281" width="3.79140837" height="3.78257422"></rect>
                </g>
                <g id="Group" transform="translate(45.531873, 43.082031)" fill="#4BB8E6">
                    <rect id="Rectangle-path" x="0.0296354582" y="0.00487109375" width="3.79140837" height="3.78257422"></rect>
                    <rect id="Rectangle-path" x="0.0296354582" y="7.57013281" width="3.79140837" height="3.78257422"></rect>
                </g>
                <rect id="Rectangle-path" fill="#54CCFF" x="22.8128307" y="35.5217539" width="3.79140837" height="3.78257422"></rect>
                <rect id="Rectangle-path" fill="#4BB8E6" x="30.395761" y="35.5217539" width="3.79140837" height="3.78257422"></rect>
                <g id="Group-5" transform="translate(30.000000, 1.000000)">
                    <path d="M8.84886399,5.83051351 L0,5.83051351 L0,0.430350376 L8.84886399,0.430350376 C9.5143714,0.430350376 9.84772726,1.11152643 9.37707888,1.50997517 L7.46293216,3.13048292 L9.37707888,4.75099067 C9.84760683,5.14933745 9.5143714,5.83051351 8.84886399,5.83051351 Z" id="Shape" fill="#21D379"></path>
                    <path d="M4.42443199,0.430350376 L0,0.430350376 L0,5.83051351 L8.84886399,5.83051351 C9.5143714,5.83051351 9.84760683,5.14933745 9.37707888,4.75099067 L7.46293216,3.13048292 L8.47165337,2.27650422 L0,2.27650422 L0,0.430350376 L4.42443199,0.430350376 Z" id="Combined-Shape" fill="#FFFFFF"></path>
                    <path d="M4.42443199,0.430350376 L0,0.430350376 L0,5.83051351 L8.84886399,5.83051351 C9.5143714,5.83051351 9.84760683,5.14933745 9.37707888,4.75099067 L8.63489127,4.12265807 L0,4.12265807 L0,0.430350376 L4.42443199,0.430350376 Z" id="Combined-Shape" fill="#FF4545"></path>
                </g>
                <path d="M30.395761,8.72826025 L30.395761,3.05442725 C30.395761,1.48724562 29.5465518,0.217425781 28.5,0.217425781 L28.5,11.5652617 C29.5465518,11.5652617 30.395761,10.2954419 30.395761,8.72826025 Z" id="Shape" fill="#53565C"></path>
                <path d="M32.2914084,43.0869023 L28.5,43.0869023 L28.5,62 L34.1871693,62 L34.1871693,44.9782461 C34.1871693,43.933793 33.3384143,43.0869023 32.2914084,43.0869023 Z" id="Shape" fill="#626873"></path>
                <path d="M42.3254522,26.1415 L28.5,12.348375 L14.6745478,26.1415 C13.9341155,26.880207 12.7343904,26.880207 11.9938446,26.1415 C11.2534124,25.4033594 11.2534124,24.2052969 11.9938446,23.467043 L27.1595916,8.33663281 C27.9000239,7.59792578 29.099749,7.59792578 29.8402948,8.33663281 L45.0060418,23.467043 C45.7464741,24.2051836 45.7464741,25.4032461 45.0060418,26.1415 C44.2656096,26.8803203 43.065998,26.8803203 42.3254522,26.1415 Z" id="Shape" fill="#E55639"></path>
                <path d="M42.3254522,26.1415 C43.0658845,26.880207 44.2656096,26.880207 45.0061554,26.1415 C45.7465876,25.4033594 45.7465876,24.2052969 45.0061554,23.467043 L29.8404084,8.33663281 C29.4701355,7.96733594 28.9850677,7.78257422 28.5,7.78257422 L28.5,12.3482617 L42.3254522,26.1415 Z" id="Shape" fill="#CF4529"></path>
            </g>
        </g>
    </g>
</svg>