<?xml version="1.0" encoding="UTF-8" standalone="no"?>
<svg width="45px" height="60px" viewBox="0 0 45 60" version="1.1" xmlns="http://www.w3.org/2000/svg" xmlns:xlink="http://www.w3.org/1999/xlink">
    <!-- Generator: Sketch 43 (38999) - http://www.bohemiancoding.com/sketch -->
    <title>operator</title>
    <desc>Created with Sketch.</desc>
    <defs></defs>
    <g id="لاگین" stroke="none" stroke-width="1" fill="none" fill-rule="evenodd">
        <g id="صفحه-اول" transform="translate(-323.000000, -1802.000000)" fill-rule="nonzero">
            <g id="operator" transform="translate(323.000000, 1802.000000)">
                <path d="M41.8480385,36.4204279 C41.8540385,37.229581 41.3750769,37.9582919 40.6411154,38.2987571 C36.0231923,40.4412642 29.6034231,41.7712713 22.4998846,41.7712713 C15.3963462,41.7712713 8.97657692,40.4413796 4.35853846,38.2987571 C3.62469231,37.9581765 3.14573077,37.2294656 3.15161538,36.4204279 C3.29653846,16.9727095 6.85326923,0 22.5,0 C38.1467308,0 41.7034615,16.9727095 41.8480385,36.4204279 Z" id="Shape" fill="#5A4146"></path>
                <path d="M29.6299615,39.5682884 L29.6299615,34.6395064 L15.3700385,34.6395064 L15.3700385,39.5682884 C15.3700385,40.883869 14.5284231,42.0518377 13.2805385,42.4677823 L3.57369231,45.7041637 C1.49411538,46.3975586 0.0915,48.3442116 0.0915,50.5368075 L0.0915,57.0533114 C0.0915,58.1786932 1.0035,59.0909091 2.12861538,59.0909091 L42.8712692,59.0909091 C43.9963846,59.0909091 44.9083846,58.1786932 44.9083846,57.0533114 L44.9083846,50.5368075 C44.9083846,48.3442116 43.5056538,46.3975586 41.4260769,45.7041637 L31.7192308,42.4677823 C30.4715769,42.0517223 29.6299615,40.8837536 29.6299615,39.5682884 Z" id="Shape" fill="#E6AF78"></path>
                <path d="M15.3700385,39.5682884 C15.3700385,40.8014648 14.6254615,41.8964933 13.5053077,42.3725675 C24.9191538,44.3181818 29.6268462,36.1677912 29.6268462,36.1677912 L29.6300769,36.1655984 L29.6300769,34.6395064 L15.3700385,34.6395064 L15.3700385,39.5682884 Z" id="Shape" fill="#D29B6E"></path>
                <path d="M41.4260769,45.7041637 L33.4945385,43.0597301 C29.7195,48.1822887 25.3133077,51.0447354 22.5,51.9592596 C19.6866923,51.0447354 15.2805,48.1822887 11.5054615,43.0597301 L3.57392308,45.7041637 C1.49423077,46.3975586 0.0916153846,48.3442116 0.0916153846,50.5368075 L0.0916153846,57.0533114 C0.0916153846,58.1785778 1.00373077,59.0909091 2.12873077,59.0909091 L42.8713846,59.0909091 C43.9963846,59.0909091 44.9085,58.1785778 44.9085,57.0533114 L44.9085,50.5368075 C44.9085,48.3440962 43.5057692,46.3975586 41.4260769,45.7041637 Z" id="Shape" fill="#E4EAF6"></path>
                <g id="Group" transform="translate(0.000000, 43.048651)" fill="#D7DEED">
                    <path d="M7.04665385,9.75450107 L1.39626923,4.10277876 C0.581653846,5.01545632 0.0915,6.20546875 0.0915,7.48804155 L0.0915,14.0045455 C0.0915,15.1299272 1.0035,16.0421431 2.12861538,16.0421431 L8.24007692,16.0421431 L8.24007692,12.6361062 C8.24007692,11.5553888 7.81084615,10.5188743 7.04665385,9.75450107 Z" id="Shape"></path>
                    <path d="M37.9533462,9.75450107 L43.6037308,4.10277876 C44.4183462,5.01545632 44.9085,6.20546875 44.9085,7.48804155 L44.9085,14.0045455 C44.9085,15.1299272 43.9965,16.0421431 42.8713846,16.0421431 L36.7599231,16.0421431 L36.7599231,12.6361062 C36.7599231,11.5553888 37.1891538,10.5188743 37.9533462,9.75450107 Z" id="Shape"></path>
                    <path d="M9.86596154,1.21978871 C13.9571538,6.77202592 18.7495385,9.83448153 21.8704615,10.8487216 L22.5,11.0530007 L23.1296538,10.8486062 C26.2505769,9.83425071 31.0429615,6.7717951 35.1341538,1.2196733 L35.4994615,0.679314631 L33.4945385,0.0108487216 C29.7196154,5.13352273 25.3134231,7.99596946 22.5001154,8.91049361 C19.6868077,7.99596946 15.2806154,5.13352273 11.5055769,0.0109641335 L9.50065385,0.679430043 L9.86596154,1.21978871 Z" id="Shape"></path>
                </g>
                <path d="M9.42923077,21.4053356 L8.24642308,21.401527 C7.11888462,21.3979492 6.20284615,22.3113192 6.20284615,23.4391246 L6.20284615,27.4668857 C6.20284615,28.6080788 7.13976923,29.5267578 8.28057692,29.5041371 L10.0361538,29.4691673 L9.42923077,21.4053356 Z" id="Shape" fill="#707487"></path>
                <path d="M8.24653846,21.401527 C8.24423077,21.401527 8.24238462,21.4022195 8.24007692,21.4022195 L8.24007692,29.5009055 C8.25380769,29.5009055 8.26684615,29.5044833 8.28069231,29.5042525 L10.0362692,29.4692827 L9.42934615,21.4055664 L8.24653846,21.401527 Z" id="Shape" fill="#65687A"></path>
                <path d="M35.5707692,21.4053356 L36.7535769,21.401527 C37.8811154,21.3979492 38.7971538,22.3113192 38.7971538,23.4391246 L38.7971538,27.4668857 C38.7971538,28.6080788 37.8602308,29.5267578 36.7194231,29.5041371 L34.9638462,29.4691673 L35.5707692,21.4053356 Z" id="Shape" fill="#707487"></path>
                <path d="M36.7534615,21.401527 C36.7557692,21.401527 36.7576154,21.4022195 36.7599231,21.4022195 L36.7599231,29.5009055 C36.7461923,29.5009055 36.7331538,29.5044833 36.7193077,29.5042525 L34.9637308,29.4692827 L35.5706538,21.4055664 L36.7534615,21.401527 Z" id="Shape" fill="#65687A"></path>
                <path d="M9.25857692,12.2257013 L9.25857692,16.6183949 C9.25857692,18.44375 9.32861538,20.2682972 9.46857692,22.0881126 L10.0555385,29.7201882 C10.1958462,31.5445046 11.1456923,33.2100142 12.6441923,34.2592241 L18.7951154,38.5658203 C19.8805385,39.3258079 21.1734231,39.7335582 22.4983846,39.7335582 L22.5013846,39.7335582 C23.8262308,39.7335582 25.1192308,39.3259233 26.2046538,38.5658203 L32.3555769,34.2592241 C33.8541923,33.2100142 34.8040385,31.5445046 34.9442308,29.7201882 L35.5311923,22.0881126 C35.6711538,20.2682972 35.7411923,18.4436346 35.7411923,16.6183949 L35.7411923,12.2257013 L9.25857692,12.2257013 L9.25857692,12.2257013 Z" id="Shape" fill="#F0C087"></path>
                <path d="M35.6650385,12.2257013 L9.25857692,12.2257013 L9.25857692,16.6186257 C9.25857692,17.1847212 9.27773077,17.7503551 9.29111538,18.3162198 L9.29111538,18.3162198 L9.29111538,18.3165661 C9.30726923,18.9969194 9.33311538,19.6766957 9.36876923,20.3562411 L9.36876923,20.3565874 L9.36876923,20.3567028 C9.39911538,20.9339933 9.42426923,21.5115146 9.46857692,22.0879972 L10.0555385,29.7200728 C10.1958462,31.5443892 11.1456923,33.2098988 12.6443077,34.2591087 L18.7952308,38.5657049 C19.8806538,39.3255771 21.1735385,39.733212 22.4985,39.733212 C20.8639615,39.733212 19.0675385,36.9190075 17.9404615,34.78481 C17.1979615,33.3789773 16.8017308,31.82057 16.7720769,30.230886 L16.6000385,21.0062411 C16.5864231,20.2726829 17.1177692,19.6486506 17.8404231,19.5231978 C23.3027308,18.5749734 27.6387692,17.0255682 30.1174615,15.930886 C32.0824615,19.1797319 34.6705385,20.1515004 35.0060769,20.2662198 L35.3265,20.3757457 L35.6300769,20.3757457 C35.6658462,19.6968928 35.6919231,19.0178089 35.7084231,18.3381481 L35.6650385,12.2257013 Z" id="Shape" fill="#E6AF78"></path>
                <path d="M8.24007692,11.2068448 L8.24007692,18.3384943 C20.3075769,18.3384943 29.4936923,14.1363459 31.0322308,13.2078569 C32.6856923,17.3196378 35.6650385,18.3384943 35.6650385,18.3384943 L36.7600385,18.3384943 L36.7600385,11.2068448 L8.24007692,11.2068448 Z" id="Shape" fill="#5A4146"></path>
                <path d="M36.7193077,29.5040217 L34.9715769,29.4692827 C34.1938846,30.8825018 31.8643846,33.196511 24.9189231,33.196511 L24.9189231,35.2341087 C34.2003462,35.2341087 36.582,31.2780185 37.1870769,29.455087 C37.0361538,29.4872869 36.8806154,29.5072532 36.7193077,29.5040217 Z" id="Shape" fill="#464655"></path>
                <path d="M24.0278077,35.6583629 L23.0091923,35.6583629 C22.1653846,35.6583629 21.4813846,34.9740856 21.4813846,34.1301935 L21.4813846,34.1301935 C21.4813846,33.2861861 22.1655,32.6020241 23.0091923,32.6020241 L24.0278077,32.6020241 C24.8716154,32.6020241 25.5556154,33.2863015 25.5556154,34.1301935 L25.5556154,34.1301935 C25.5557308,34.9740856 24.8716154,35.6583629 24.0278077,35.6583629 Z" id="Shape" fill="#5B5D6E"></path>
            </g>
        </g>
    </g>
</svg>